<svg width="770" height="525" viewBox="0 0 770 525" fill="none" xmlns="http://www.w3.org/2000/svg">
<g clip-path="url(#clip0)">
<path d="M174.757 13.6267C178.52 13.6267 181.57 10.5763 181.57 6.81335C181.57 3.05044 178.52 0 174.757 0C170.994 0 167.943 3.05044 167.943 6.81335C167.943 10.5763 170.994 13.6267 174.757 13.6267Z" fill="#E6E6E6"/>
<path d="M209.246 13.6267C213.009 13.6267 216.059 10.5763 216.059 6.81335C216.059 3.05044 213.009 0 209.246 0C205.483 0 202.433 3.05044 202.433 6.81335C202.433 10.5763 205.483 13.6267 209.246 13.6267Z" fill="#E6E6E6"/>
<path d="M243.735 13.6267C247.498 13.6267 250.549 10.5763 250.549 6.81335C250.549 3.05044 247.498 0 243.735 0C239.972 0 236.922 3.05044 236.922 6.81335C236.922 10.5763 239.972 13.6267 243.735 13.6267Z" fill="#E6E6E6"/>
<path d="M278.224 13.6267C281.987 13.6267 285.038 10.5763 285.038 6.81335C285.038 3.05044 281.987 0 278.224 0C274.462 0 271.411 3.05044 271.411 6.81335C271.411 10.5763 274.462 13.6267 278.224 13.6267Z" fill="#E6E6E6"/>
<path d="M312.714 13.6267C316.477 13.6267 319.527 10.5763 319.527 6.81335C319.527 3.05044 316.477 0 312.714 0C308.951 0 305.9 3.05044 305.9 6.81335C305.9 10.5763 308.951 13.6267 312.714 13.6267Z" fill="#E6E6E6"/>
<path d="M174.757 48.5486C178.52 48.5486 181.57 45.4981 181.57 41.7352C181.57 37.9723 178.52 34.9219 174.757 34.9219C170.994 34.9219 167.943 37.9723 167.943 41.7352C167.943 45.4981 170.994 48.5486 174.757 48.5486Z" fill="#E6E6E6"/>
<path d="M209.246 48.5486C213.009 48.5486 216.059 45.4981 216.059 41.7352C216.059 37.9723 213.009 34.9219 209.246 34.9219C205.483 34.9219 202.433 37.9723 202.433 41.7352C202.433 45.4981 205.483 48.5486 209.246 48.5486Z" fill="#E6E6E6"/>
<path d="M243.735 48.5486C247.498 48.5486 250.549 45.4981 250.549 41.7352C250.549 37.9723 247.498 34.9219 243.735 34.9219C239.972 34.9219 236.922 37.9723 236.922 41.7352C236.922 45.4981 239.972 48.5486 243.735 48.5486Z" fill="#E6E6E6"/>
<path d="M278.224 48.5486C281.987 48.5486 285.038 45.4981 285.038 41.7352C285.038 37.9723 281.987 34.9219 278.224 34.9219C274.462 34.9219 271.411 37.9723 271.411 41.7352C271.411 45.4981 274.462 48.5486 278.224 48.5486Z" fill="#12B2FF"/>
<path d="M312.714 48.5486C316.477 48.5486 319.527 45.4981 319.527 41.7352C319.527 37.9723 316.477 34.9219 312.714 34.9219C308.951 34.9219 305.9 37.9723 305.9 41.7352C305.9 45.4981 308.951 48.5486 312.714 48.5486Z" fill="#E6E6E6"/>
<path d="M381.691 48.5486C385.454 48.5486 388.505 45.4981 388.505 41.7352C388.505 37.9723 385.454 34.9219 381.691 34.9219C377.928 34.9219 374.878 37.9723 374.878 41.7352C374.878 45.4981 377.928 48.5486 381.691 48.5486Z" fill="#E6E6E6"/>
<path d="M174.757 83.4705C178.52 83.4705 181.57 80.42 181.57 76.6571C181.57 72.8942 178.52 69.8438 174.757 69.8438C170.994 69.8438 167.943 72.8942 167.943 76.6571C167.943 80.42 170.994 83.4705 174.757 83.4705Z" fill="#E6E6E6"/>
<path d="M209.246 83.4705C213.009 83.4705 216.059 80.42 216.059 76.6571C216.059 72.8942 213.009 69.8438 209.246 69.8438C205.483 69.8438 202.433 72.8942 202.433 76.6571C202.433 80.42 205.483 83.4705 209.246 83.4705Z" fill="#E6E6E6"/>
<path d="M243.735 83.4705C247.498 83.4705 250.549 80.42 250.549 76.6571C250.549 72.8942 247.498 69.8438 243.735 69.8438C239.972 69.8438 236.922 72.8942 236.922 76.6571C236.922 80.42 239.972 83.4705 243.735 83.4705Z" fill="#E6E6E6"/>
<path d="M278.224 83.4705C281.987 83.4705 285.038 80.42 285.038 76.6571C285.038 72.8942 281.987 69.8438 278.224 69.8438C274.462 69.8438 271.411 72.8942 271.411 76.6571C271.411 80.42 274.462 83.4705 278.224 83.4705Z" fill="#E6E6E6"/>
<path d="M312.714 83.4705C316.477 83.4705 319.527 80.42 319.527 76.6571C319.527 72.8942 316.477 69.8438 312.714 69.8438C308.951 69.8438 305.9 72.8942 305.9 76.6571C305.9 80.42 308.951 83.4705 312.714 83.4705Z" fill="#E6E6E6"/>
<path d="M174.757 118.392C178.52 118.392 181.57 115.342 181.57 111.579C181.57 107.816 178.52 104.766 174.757 104.766C170.994 104.766 167.943 107.816 167.943 111.579C167.943 115.342 170.994 118.392 174.757 118.392Z" fill="#E6E6E6"/>
<path d="M209.246 118.392C213.009 118.392 216.059 115.342 216.059 111.579C216.059 107.816 213.009 104.766 209.246 104.766C205.483 104.766 202.433 107.816 202.433 111.579C202.433 115.342 205.483 118.392 209.246 118.392Z" fill="#E6E6E6"/>
<path d="M243.735 118.392C247.498 118.392 250.549 115.342 250.549 111.579C250.549 107.816 247.498 104.766 243.735 104.766C239.972 104.766 236.922 107.816 236.922 111.579C236.922 115.342 239.972 118.392 243.735 118.392Z" fill="#E6E6E6"/>
<path d="M278.224 118.392C281.987 118.392 285.038 115.342 285.038 111.579C285.038 107.816 281.987 104.766 278.224 104.766C274.462 104.766 271.411 107.816 271.411 111.579C271.411 115.342 274.462 118.392 278.224 118.392Z" fill="#E6E6E6"/>
<path d="M312.714 118.392C316.477 118.392 319.527 115.342 319.527 111.579C319.527 107.816 316.477 104.766 312.714 104.766C308.951 104.766 305.9 107.816 305.9 111.579C305.9 115.342 308.951 118.392 312.714 118.392Z" fill="#E6E6E6"/>
<path d="M347.202 118.392C350.965 118.392 354.015 115.342 354.015 111.579C354.015 107.816 350.965 104.766 347.202 104.766C343.439 104.766 340.389 107.816 340.389 111.579C340.389 115.342 343.439 118.392 347.202 118.392Z" fill="#E6E6E6"/>
<path d="M381.691 118.392C385.454 118.392 388.505 115.342 388.505 111.579C388.505 107.816 385.454 104.766 381.691 104.766C377.928 104.766 374.878 107.816 374.878 111.579C374.878 115.342 377.928 118.392 381.691 118.392Z" fill="#E6E6E6"/>
<path d="M416.181 118.392C419.943 118.392 422.994 115.342 422.994 111.579C422.994 107.816 419.943 104.766 416.181 104.766C412.418 104.766 409.367 107.816 409.367 111.579C409.367 115.342 412.418 118.392 416.181 118.392Z" fill="#E6E6E6"/>
<path d="M450.67 118.392C454.433 118.392 457.483 115.342 457.483 111.579C457.483 107.816 454.433 104.766 450.67 104.766C446.907 104.766 443.856 107.816 443.856 111.579C443.856 115.342 446.907 118.392 450.67 118.392Z" fill="#E6E6E6"/>
<path d="M485.158 118.392C488.921 118.392 491.971 115.342 491.971 111.579C491.971 107.816 488.921 104.766 485.158 104.766C481.395 104.766 478.345 107.816 478.345 111.579C478.345 115.342 481.395 118.392 485.158 118.392Z" fill="#E6E6E6"/>
<path d="M312.714 153.315C316.477 153.315 319.527 150.264 319.527 146.501C319.527 142.738 316.477 139.688 312.714 139.688C308.951 139.688 305.9 142.738 305.9 146.501C305.9 150.264 308.951 153.315 312.714 153.315Z" fill="#E6E6E6"/>
<path d="M347.202 153.315C350.965 153.315 354.015 150.264 354.015 146.501C354.015 142.738 350.965 139.688 347.202 139.688C343.439 139.688 340.389 142.738 340.389 146.501C340.389 150.264 343.439 153.315 347.202 153.315Z" fill="#12B2FF"/>
<path d="M381.691 153.315C385.454 153.315 388.505 150.264 388.505 146.501C388.505 142.738 385.454 139.688 381.691 139.688C377.928 139.688 374.878 142.738 374.878 146.501C374.878 150.264 377.928 153.315 381.691 153.315Z" fill="#E6E6E6"/>
<path d="M416.181 153.315C419.943 153.315 422.994 150.264 422.994 146.501C422.994 142.738 419.943 139.688 416.181 139.688C412.418 139.688 409.367 142.738 409.367 146.501C409.367 150.264 412.418 153.315 416.181 153.315Z" fill="#E6E6E6"/>
<path d="M450.67 153.315C454.433 153.315 457.483 150.264 457.483 146.501C457.483 142.738 454.433 139.688 450.67 139.688C446.907 139.688 443.856 142.738 443.856 146.501C443.856 150.264 446.907 153.315 450.67 153.315Z" fill="#E6E6E6"/>
<path d="M485.158 153.315C488.921 153.315 491.971 150.264 491.971 146.501C491.971 142.738 488.921 139.688 485.158 139.688C481.395 139.688 478.345 142.738 478.345 146.501C478.345 150.264 481.395 153.315 485.158 153.315Z" fill="#E6E6E6"/>
<path d="M312.714 188.237C316.477 188.237 319.527 185.186 319.527 181.423C319.527 177.66 316.477 174.61 312.714 174.61C308.951 174.61 305.9 177.66 305.9 181.423C305.9 185.186 308.951 188.237 312.714 188.237Z" fill="#E6E6E6"/>
<path d="M347.202 188.237C350.965 188.237 354.015 185.186 354.015 181.423C354.015 177.66 350.965 174.61 347.202 174.61C343.439 174.61 340.389 177.66 340.389 181.423C340.389 185.186 343.439 188.237 347.202 188.237Z" fill="#E6E6E6"/>
<path d="M381.691 188.237C385.454 188.237 388.505 185.186 388.505 181.423C388.505 177.66 385.454 174.61 381.691 174.61C377.928 174.61 374.878 177.66 374.878 181.423C374.878 185.186 377.928 188.237 381.691 188.237Z" fill="#E6E6E6"/>
<path d="M416.181 188.237C419.943 188.237 422.994 185.186 422.994 181.423C422.994 177.66 419.943 174.61 416.181 174.61C412.418 174.61 409.367 177.66 409.367 181.423C409.367 185.186 412.418 188.237 416.181 188.237Z" fill="#E6E6E6"/>
<path d="M450.67 188.237C454.433 188.237 457.483 185.186 457.483 181.423C457.483 177.66 454.433 174.61 450.67 174.61C446.907 174.61 443.856 177.66 443.856 181.423C443.856 185.186 446.907 188.237 450.67 188.237Z" fill="#12B2FF"/>
<path d="M485.158 188.237C488.921 188.237 491.971 185.186 491.971 181.423C491.971 177.66 488.921 174.61 485.158 174.61C481.395 174.61 478.345 177.66 478.345 181.423C478.345 185.186 481.395 188.237 485.158 188.237Z" fill="#E6E6E6"/>
<path d="M312.714 223.158C316.477 223.158 319.527 220.108 319.527 216.345C319.527 212.582 316.477 209.532 312.714 209.532C308.951 209.532 305.9 212.582 305.9 216.345C305.9 220.108 308.951 223.158 312.714 223.158Z" fill="#E6E6E6"/>
<path d="M347.202 223.158C350.965 223.158 354.015 220.108 354.015 216.345C354.015 212.582 350.965 209.532 347.202 209.532C343.439 209.532 340.389 212.582 340.389 216.345C340.389 220.108 343.439 223.158 347.202 223.158Z" fill="#E6E6E6"/>
<path d="M381.691 223.158C385.454 223.158 388.505 220.108 388.505 216.345C388.505 212.582 385.454 209.532 381.691 209.532C377.928 209.532 374.878 212.582 374.878 216.345C374.878 220.108 377.928 223.158 381.691 223.158Z" fill="#E6E6E6"/>
<path d="M416.181 223.158C419.943 223.158 422.994 220.108 422.994 216.345C422.994 212.582 419.943 209.532 416.181 209.532C412.418 209.532 409.367 212.582 409.367 216.345C409.367 220.108 412.418 223.158 416.181 223.158Z" fill="#E6E6E6"/>
<path d="M450.67 223.158C454.433 223.158 457.483 220.108 457.483 216.345C457.483 212.582 454.433 209.532 450.67 209.532C446.907 209.532 443.856 212.582 443.856 216.345C443.856 220.108 446.907 223.158 450.67 223.158Z" fill="#E6E6E6"/>
<path d="M485.158 223.158C488.921 223.158 491.971 220.108 491.971 216.345C491.971 212.582 488.921 209.532 485.158 209.532C481.395 209.532 478.345 212.582 478.345 216.345C478.345 220.108 481.395 223.158 485.158 223.158Z" fill="#E6E6E6"/>
<path d="M174.757 258.08C178.52 258.08 181.57 255.03 181.57 251.267C181.57 247.504 178.52 244.454 174.757 244.454C170.994 244.454 167.943 247.504 167.943 251.267C167.943 255.03 170.994 258.08 174.757 258.08Z" fill="#E6E6E6"/>
<path d="M209.246 258.08C213.009 258.08 216.059 255.03 216.059 251.267C216.059 247.504 213.009 244.454 209.246 244.454C205.483 244.454 202.433 247.504 202.433 251.267C202.433 255.03 205.483 258.08 209.246 258.08Z" fill="#E6E6E6"/>
<path d="M243.735 258.08C247.498 258.08 250.549 255.03 250.549 251.267C250.549 247.504 247.498 244.454 243.735 244.454C239.972 244.454 236.922 247.504 236.922 251.267C236.922 255.03 239.972 258.08 243.735 258.08Z" fill="#E6E6E6"/>
<path d="M278.224 258.08C281.987 258.08 285.038 255.03 285.038 251.267C285.038 247.504 281.987 244.454 278.224 244.454C274.462 244.454 271.411 247.504 271.411 251.267C271.411 255.03 274.462 258.08 278.224 258.08Z" fill="#E6E6E6"/>
<path d="M312.714 258.08C316.477 258.08 319.527 255.03 319.527 251.267C319.527 247.504 316.477 244.454 312.714 244.454C308.951 244.454 305.9 247.504 305.9 251.267C305.9 255.03 308.951 258.08 312.714 258.08Z" fill="#E6E6E6"/>
<path d="M347.202 258.08C350.965 258.08 354.015 255.03 354.015 251.267C354.015 247.504 350.965 244.454 347.202 244.454C343.439 244.454 340.389 247.504 340.389 251.267C340.389 255.03 343.439 258.08 347.202 258.08Z" fill="#E6E6E6"/>
<path d="M381.691 258.08C385.454 258.08 388.505 255.03 388.505 251.267C388.505 247.504 385.454 244.454 381.691 244.454C377.928 244.454 374.878 247.504 374.878 251.267C374.878 255.03 377.928 258.08 381.691 258.08Z" fill="#E6E6E6"/>
<path d="M416.181 258.08C419.943 258.08 422.994 255.03 422.994 251.267C422.994 247.504 419.943 244.454 416.181 244.454C412.418 244.454 409.367 247.504 409.367 251.267C409.367 255.03 412.418 258.08 416.181 258.08Z" fill="#E6E6E6"/>
<path d="M450.67 258.08C454.433 258.08 457.483 255.03 457.483 251.267C457.483 247.504 454.433 244.454 450.67 244.454C446.907 244.454 443.856 247.504 443.856 251.267C443.856 255.03 446.907 258.08 450.67 258.08Z" fill="#E6E6E6"/>
<path d="M485.158 258.08C488.921 258.08 491.971 255.03 491.971 251.267C491.971 247.504 488.921 244.454 485.158 244.454C481.395 244.454 478.345 247.504 478.345 251.267C478.345 255.03 481.395 258.08 485.158 258.08Z" fill="#E6E6E6"/>
<path d="M174.753 293.001C178.516 293.001 181.566 289.951 181.566 286.188C181.566 282.425 178.516 279.375 174.753 279.375C170.99 279.375 167.939 282.425 167.939 286.188C167.939 289.951 170.99 293.001 174.753 293.001Z" fill="#E6E6E6"/>
<path d="M209.246 293.002C213.009 293.002 216.059 289.952 216.059 286.189C216.059 282.426 213.009 279.375 209.246 279.375C205.483 279.375 202.433 282.426 202.433 286.189C202.433 289.952 205.483 293.002 209.246 293.002Z" fill="#E6E6E6"/>
<path d="M174.753 327.923C178.516 327.923 181.566 324.873 181.566 321.11C181.566 317.347 178.516 314.296 174.753 314.296C170.99 314.296 167.939 317.347 167.939 321.11C167.939 324.873 170.99 327.923 174.753 327.923Z" fill="#E6E6E6"/>
<path d="M209.246 327.924C213.009 327.924 216.059 324.874 216.059 321.111C216.059 317.348 213.009 314.297 209.246 314.297C205.483 314.297 202.433 317.348 202.433 321.111C202.433 324.874 205.483 327.924 209.246 327.924Z" fill="#E6E6E6"/>
<path d="M278.224 327.924C281.987 327.924 285.038 324.874 285.038 321.111C285.038 317.348 281.987 314.297 278.224 314.297C274.462 314.297 271.411 317.348 271.411 321.111C271.411 324.874 274.462 327.924 278.224 327.924Z" fill="#E6E6E6"/>
<path d="M622.001 80.3837H352C350.674 80.3822 349.404 79.8549 348.466 78.9176C347.529 77.9802 347.002 76.7093 347 75.3837V8.4082C347.002 7.0826 347.529 5.81173 348.466 4.87439C349.404 3.93704 350.674 3.40976 352 3.4082H622.001C623.326 3.40976 624.597 3.93704 625.534 4.87439C626.472 5.81173 626.999 7.0826 627.001 8.4082V75.3838C626.999 76.7094 626.472 77.9802 625.534 78.9176C624.597 79.8549 623.326 80.3822 622.001 80.3837ZM352 5.4082C351.205 5.40907 350.442 5.72542 349.88 6.28784C349.317 6.85026 349.001 7.61282 349 8.4082V75.3838C349.001 76.1792 349.317 76.9417 349.88 77.5041C350.442 78.0666 351.205 78.3829 352 78.3838H622.001C622.796 78.3829 623.558 78.0666 624.121 77.5041C624.683 76.9417 625 76.1792 625.001 75.3838V8.4082C625 7.61282 624.683 6.85026 624.121 6.28784C623.558 5.72542 622.796 5.40907 622.001 5.4082H352Z" fill="#E6E6E6"/>
<path d="M387 62.896C398.598 62.896 408 53.494 408 41.896C408 30.298 398.598 20.896 387 20.896C375.402 20.896 366 30.298 366 41.896C366 53.494 375.402 62.896 387 62.896Z" fill="#12B2FF"/>
<path d="M435.5 27.896C434.572 27.896 433.682 28.2647 433.025 28.9211C432.369 29.5775 432 30.4677 432 31.396C432 32.3243 432.369 33.2145 433.025 33.8709C433.682 34.5272 434.572 34.896 435.5 34.896H528.5C529.428 34.896 530.319 34.5272 530.975 33.8709C531.631 33.2145 532 32.3243 532 31.396C532 30.4677 531.631 29.5775 530.975 28.9211C530.319 28.2647 529.428 27.896 528.5 27.896H435.5Z" fill="#E6E6E6"/>
<path d="M435.5 48.896C434.572 48.896 433.682 49.2647 433.025 49.9211C432.369 50.5775 432 51.4677 432 52.396C432 53.3243 432.369 54.2145 433.025 54.8709C433.682 55.5272 434.572 55.896 435.5 55.896H600.5C601.428 55.896 602.319 55.5272 602.975 54.8709C603.631 54.2145 604 53.3243 604 52.396C604 51.4677 603.631 50.5775 602.975 49.9211C602.319 49.2647 601.428 48.896 600.5 48.896H435.5Z" fill="#E6E6E6"/>
<path d="M275 216.384H5C3.67439 216.382 2.40353 215.855 1.46619 214.918C0.528841 213.98 0.00155353 212.709 0 211.384V144.408C0.00155353 143.083 0.528841 141.812 1.46619 140.874C2.40353 139.937 3.67439 139.41 5 139.408H275C276.326 139.41 277.597 139.937 278.534 140.874C279.472 141.812 279.999 143.083 280 144.408V211.384C279.999 212.709 279.472 213.98 278.534 214.918C277.597 215.855 276.326 216.382 275 216.384ZM5 141.408C4.20462 141.409 3.44206 141.725 2.87964 142.288C2.31722 142.85 2.00087 143.613 2 144.408V211.384C2.00087 212.179 2.31722 212.942 2.87964 213.504C3.44206 214.067 4.20462 214.383 5 214.384H275C275.796 214.383 276.558 214.067 277.121 213.504C277.683 212.942 278 212.179 278 211.384V144.408C278 143.613 277.683 142.85 277.121 142.288C276.558 141.725 275.796 141.409 275 141.408H5Z" fill="#E6E6E6"/>
<path d="M40 198.896C51.598 198.896 61 189.494 61 177.896C61 166.298 51.598 156.896 40 156.896C28.402 156.896 19 166.298 19 177.896C19 189.494 28.402 198.896 40 198.896Z" fill="#12B2FF"/>
<path d="M88.5 163.896C87.5717 163.896 86.6815 164.265 86.0251 164.921C85.3687 165.578 85 166.468 85 167.396C85 168.324 85.3687 169.215 86.0251 169.871C86.6815 170.527 87.5717 170.896 88.5 170.896H185.5C186.428 170.896 187.319 170.527 187.975 169.871C188.631 169.215 189 168.324 189 167.396C189 166.468 188.631 165.578 187.975 164.921C187.319 164.265 186.428 163.896 185.5 163.896H88.5Z" fill="#E6E6E6"/>
<path d="M88.5 184.896C87.5717 184.896 86.6815 185.265 86.0251 185.921C85.3687 186.578 85 187.468 85 188.396C85 189.324 85.3687 190.215 86.0251 190.871C86.6815 191.527 87.5717 191.896 88.5 191.896H253.5C254.428 191.896 255.319 191.527 255.975 190.871C256.631 190.215 257 189.324 257 188.396C257 187.468 256.631 186.578 255.975 185.921C255.319 185.265 254.428 184.896 253.5 184.896H88.5Z" fill="#E6E6E6"/>
<path d="M519 363.384H249C247.674 363.382 246.404 362.855 245.466 361.918C244.529 360.98 244.002 359.709 244 358.384V291.408C244.002 290.083 244.529 288.812 245.466 287.874C246.404 286.937 247.674 286.41 249 286.408H519C520.326 286.41 521.597 286.937 522.534 287.874C523.472 288.812 523.999 290.083 524 291.408V358.384C523.999 359.709 523.472 360.98 522.534 361.918C521.597 362.855 520.326 363.382 519 363.384ZM249 288.408C248.205 288.409 247.442 288.725 246.88 289.288C246.317 289.85 246.001 290.613 246 291.408V358.384C246.001 359.179 246.317 359.942 246.88 360.504C247.442 361.067 248.205 361.383 249 361.384H519C519.796 361.383 520.558 361.067 521.121 360.504C521.683 359.942 522 359.179 522 358.384V291.408C522 290.613 521.683 289.85 521.121 289.288C520.558 288.725 519.796 288.409 519 288.408H249Z" fill="#21272D"/>
<path d="M284 345.896C295.598 345.896 305 336.494 305 324.896C305 313.298 295.598 303.896 284 303.896C272.402 303.896 263 313.298 263 324.896C263 336.494 272.402 345.896 284 345.896Z" fill="#12B2FF"/>
<path d="M332.5 310.896C331.572 310.896 330.682 311.265 330.025 311.921C329.369 312.578 329 313.468 329 314.396C329 315.324 329.369 316.215 330.025 316.871C330.682 317.527 331.572 317.896 332.5 317.896H421.5C422.428 317.896 423.319 317.527 423.975 316.871C424.631 316.215 425 315.324 425 314.396C425 313.468 424.631 312.578 423.975 311.921C423.319 311.265 422.428 310.896 421.5 310.896H332.5Z" fill="#E6E6E6"/>
<path d="M332.5 331.896C331.572 331.896 330.682 332.265 330.025 332.921C329.369 333.578 329 334.468 329 335.396C329 336.324 329.369 337.215 330.025 337.871C330.682 338.527 331.572 338.896 332.5 338.896H497.5C498.428 338.896 499.319 338.527 499.975 337.871C500.631 337.215 501 336.324 501 335.396C501 334.468 500.631 333.578 499.975 332.921C499.319 332.265 498.428 331.896 497.5 331.896H332.5Z" fill="#E6E6E6"/>
<path d="M664.25 346.398C652.524 381.575 604.555 344.266 604.555 344.266L617.346 211.019C636.534 196.095 656.788 208.887 656.788 208.887L664.25 346.398Z" fill="#E6E6E6"/>
<path d="M661.731 464.458L678.076 464.63L673.993 511.745L661.733 511.746L661.731 464.458Z" fill="#FFB8B8"/>
<path d="M658.605 507.742H682.749C686.829 507.747 690.74 509.369 693.624 512.254C696.509 515.138 698.132 519.049 698.136 523.129V523.629H658.605V507.742Z" fill="#21272D"/>
<path d="M617.421 464.458L599.327 464.457L605.159 511.745L617.419 511.746L617.421 464.458Z" fill="#FFB8B8"/>
<path d="M581.015 523.628V523.128C581.015 519.048 582.636 515.134 585.522 512.248C588.407 509.363 592.321 507.742 596.402 507.742L620.546 507.743L620.545 523.63L581.015 523.628Z" fill="#21272D"/>
<path d="M660.627 503.584L639.214 378.761L619.375 501.975L599.274 503.092L593.914 338.006L594.318 337.915C597.641 337.171 675.855 319.993 688.677 344.568L688.742 344.692L678.04 504.145L660.627 503.584Z" fill="#21272D"/>
<path d="M637.934 195.403C651.499 195.403 662.495 184.407 662.495 170.842C662.495 157.278 651.499 146.281 637.934 146.281C624.369 146.281 613.373 157.278 613.373 170.842C613.373 184.407 624.369 195.403 637.934 195.403Z" fill="#FFB8B8"/>
<path d="M658.567 356.924C655.688 356.127 653.614 352.821 652.038 346.519C651.767 345.433 626.266 236.808 647.831 217.127L652.802 203.319L659.605 207.854C662.012 207.877 686.626 208.5 688.729 224.277C690.789 239.721 696.395 343.19 690.76 349.626C690.649 349.768 690.509 349.884 690.349 349.965C690.188 350.046 690.012 350.091 689.833 350.096C684.122 350.096 682.388 343.759 681.981 341.74C680.623 342.302 676.579 344.369 669.933 351.015C665.816 355.132 662.587 357.105 659.92 357.105C659.463 357.107 659.008 357.046 658.567 356.924Z" fill="#21272D"/>
<path d="M605.267 351.016C598.619 344.367 594.574 342.301 593.218 341.74C592.811 343.76 591.078 350.096 585.367 350.096C585.187 350.091 585.011 350.046 584.851 349.965C584.691 349.884 584.55 349.769 584.44 349.627C578.805 343.191 584.411 239.722 586.47 224.278C588.574 208.5 613.188 207.877 615.595 207.855L622.397 203.32L627.368 217.128C648.932 236.807 623.433 345.433 623.161 346.52C621.586 352.821 619.511 356.127 616.632 356.925C616.192 357.046 615.736 357.107 615.279 357.106C612.612 357.106 609.384 355.132 605.267 351.016Z" fill="#21272D"/>
<path d="M658.212 184.872C662.367 181.883 665.513 177.7 667.233 172.88C668.953 168.059 669.164 162.829 667.839 157.885C666.513 152.942 663.715 148.519 659.814 145.204C655.914 141.89 651.097 139.842 646.004 139.332C643.743 139.106 641.308 139.14 639.433 137.855C637.768 136.715 636.871 134.736 635.34 133.42C634.368 132.668 633.251 132.125 632.06 131.824C630.868 131.524 629.627 131.472 628.414 131.674C625.994 132.091 623.648 132.862 621.452 133.961C616.006 136.39 610.216 139.378 607.738 144.801C605.591 149.499 606.539 155.292 609.578 159.469C612.773 163.602 617.432 166.353 622.594 167.154C627.726 167.921 632.967 167.449 637.879 165.778C641.12 164.758 644.321 163.368 647.717 163.254C650.368 163.166 652.985 163.868 655.236 165.271C657.487 166.674 659.27 168.715 660.357 171.134C661.445 173.553 661.788 176.241 661.344 178.856C660.9 181.471 659.688 183.894 657.862 185.818" fill="#21272D"/>
<path d="M524.341 330.982C525.759 330.949 527.157 330.637 528.455 330.064C529.752 329.491 530.924 328.668 531.903 327.642C532.883 326.616 533.651 325.407 534.163 324.084C534.675 322.762 534.922 321.351 534.889 319.933L549.212 295.767L538.146 285.621L523.058 309.432C520.274 309.699 517.702 311.036 515.884 313.161C514.066 315.286 513.143 318.034 513.309 320.825C513.475 323.617 514.718 326.236 516.776 328.13C518.833 330.024 521.545 331.046 524.341 330.982V330.982Z" fill="#FFB8B8"/>
<path d="M690.514 357.456C691.703 356.681 692.727 355.68 693.528 354.51C694.329 353.34 694.892 352.023 695.185 350.635C695.477 349.247 695.493 347.815 695.232 346.421C694.971 345.027 694.438 343.698 693.664 342.509L693.115 314.423L678.365 311.625L678.076 339.811C675.85 341.505 674.368 343.995 673.941 346.759C673.514 349.523 674.176 352.345 675.788 354.631C677.399 356.917 679.834 358.489 682.581 359.015C685.327 359.542 688.171 358.983 690.514 357.456V357.456Z" fill="#FFB8B8"/>
<path d="M528.698 292.123L528.531 291.858L528.697 291.592C550.18 257.093 595.276 213.999 595.729 213.567L595.871 213.432L601.441 213.375L607.462 228.375C605.588 231.981 555.066 302.484 548.395 307.161C547.864 307.528 547.262 307.78 546.627 307.9C545.992 308.019 545.339 308.004 544.711 307.855C543.599 307.598 542.541 307.148 541.586 306.524C535.43 302.711 529.013 292.622 528.698 292.123Z" fill="#21272D"/>
<path d="M675.558 331.49C674.959 331.286 674.41 330.96 673.944 330.532C673.478 330.104 673.106 329.585 672.851 329.006C669.635 321.501 683.42 226.704 684.009 222.672L684.12 221.909L688.78 224.862L688.826 225.063C688.964 225.669 702.539 286.061 698.859 326.189L698.833 326.477L698.571 326.598C698.011 326.857 686.703 332.05 679.167 332.05C677.94 332.082 676.718 331.893 675.558 331.49V331.49Z" fill="#21272D"/>
<path d="M768.411 524.375H502.411C502.146 524.375 501.892 524.27 501.704 524.082C501.516 523.895 501.411 523.64 501.411 523.375C501.411 523.11 501.516 522.855 501.704 522.668C501.892 522.48 502.146 522.375 502.411 522.375H768.411C768.676 522.375 768.931 522.48 769.118 522.668C769.306 522.855 769.411 523.11 769.411 523.375C769.411 523.64 769.306 523.895 769.118 524.082C768.931 524.27 768.676 524.375 768.411 524.375Z" fill="white"/>
</g>
<defs>
<clipPath id="clip0">
<rect width="769.411" height="524.375" fill="white"/>
</clipPath>
</defs>
</svg>
