<svg width="437" height="358" viewBox="0 0 437 358" fill="none" xmlns="http://www.w3.org/2000/svg">
<path d="M356 176.5C356 255.753 291.753 320 212.5 320C133.247 320 69 255.753 69 176.5C69 97.2471 133.247 33 212.5 33C291.753 33 356 97.2471 356 176.5ZM70.435 176.5C70.435 254.96 134.04 318.565 212.5 318.565C290.96 318.565 354.565 254.96 354.565 176.5C354.565 98.0397 290.96 34.435 212.5 34.435C134.04 34.435 70.435 98.0397 70.435 176.5Z" fill="#21272D"/>
<path d="M175.124 5.868C175.124 6.732 174.824 7.404 174.224 7.884C173.632 8.356 172.848 8.592 171.872 8.592H170.072C169.984 8.592 169.94 8.636 169.94 8.724V11.724C169.94 11.908 169.836 12 169.628 12H168.092C167.996 12 167.928 11.98 167.888 11.94C167.856 11.9 167.84 11.84 167.84 11.76V3.324C167.84 3.172 167.904 3.096 168.032 3.096H171.632C172.296 3.096 172.888 3.2 173.408 3.408C173.936 3.608 174.352 3.916 174.656 4.332C174.968 4.748 175.124 5.26 175.124 5.868ZM172.964 5.832C172.964 5.424 172.832 5.116 172.568 4.908C172.304 4.7 171.948 4.596 171.5 4.596H170.168C170.088 4.596 170.028 4.612 169.988 4.644C169.956 4.676 169.94 4.732 169.94 4.812V6.864C169.94 6.944 169.952 7.004 169.976 7.044C170 7.076 170.044 7.092 170.108 7.092H171.584C172.008 7.092 172.344 6.98 172.592 6.756C172.84 6.532 172.964 6.224 172.964 5.832ZM178.11 4.572C178.11 4.772 178.002 4.872 177.786 4.872H176.49C176.394 4.872 176.326 4.852 176.286 4.812C176.246 4.764 176.226 4.692 176.226 4.596V3.336C176.226 3.176 176.294 3.096 176.43 3.096H177.918C177.974 3.096 178.018 3.116 178.05 3.156C178.09 3.196 178.11 3.252 178.11 3.324V4.572ZM178.086 11.712C178.086 11.816 178.062 11.892 178.014 11.94C177.966 11.98 177.882 12 177.762 12H176.502C176.406 12 176.338 11.98 176.298 11.94C176.258 11.9 176.238 11.836 176.238 11.748V5.868C176.238 5.716 176.306 5.64 176.442 5.64H177.906C178.026 5.64 178.086 5.708 178.086 5.844V11.712ZM182.318 5.52C183.03 5.52 183.618 5.7 184.082 6.06C184.554 6.412 184.87 6.84 185.03 7.344C185.046 7.408 185.054 7.448 185.054 7.464C185.054 7.536 184.998 7.58 184.886 7.596L183.626 7.716H183.59C183.518 7.716 183.47 7.672 183.446 7.584C183.302 7.296 183.154 7.084 183.002 6.948C182.858 6.804 182.65 6.732 182.378 6.732C181.946 6.732 181.606 6.908 181.358 7.26C181.118 7.612 180.998 8.132 180.998 8.82C180.998 9.524 181.126 10.052 181.382 10.404C181.646 10.756 182.01 10.932 182.474 10.932C182.802 10.932 183.07 10.848 183.278 10.68C183.486 10.512 183.69 10.256 183.89 9.912C183.914 9.872 183.938 9.852 183.962 9.852C183.994 9.844 184.038 9.844 184.094 9.852L184.982 10.056C185.054 10.064 185.09 10.104 185.09 10.176L185.066 10.284C184.906 10.748 184.594 11.172 184.13 11.556C183.674 11.932 183.07 12.12 182.318 12.12C181.702 12.12 181.15 11.984 180.662 11.712C180.182 11.432 179.806 11.044 179.534 10.548C179.262 10.052 179.126 9.484 179.126 8.844C179.126 8.196 179.262 7.62 179.534 7.116C179.814 6.612 180.194 6.22 180.674 5.94C181.162 5.66 181.71 5.52 182.318 5.52ZM192.359 11.724C192.375 11.748 192.383 11.784 192.383 11.832C192.383 11.88 192.363 11.92 192.323 11.952C192.291 11.984 192.243 12 192.179 12H190.607C190.471 12 190.363 11.916 190.283 11.748L189.047 9.276C189.015 9.204 188.979 9.168 188.939 9.168C188.915 9.168 188.883 9.188 188.843 9.228L187.991 10.068C187.919 10.124 187.883 10.224 187.883 10.368V11.712C187.883 11.816 187.859 11.892 187.811 11.94C187.763 11.98 187.683 12 187.571 12H186.299C186.203 12 186.135 11.98 186.095 11.94C186.055 11.9 186.035 11.836 186.035 11.748V3.324C186.035 3.172 186.099 3.096 186.227 3.096H187.703C187.823 3.096 187.883 3.168 187.883 3.312V8.232C187.883 8.296 187.899 8.328 187.931 8.328C187.963 8.328 187.995 8.308 188.027 8.268L190.283 5.82C190.403 5.7 190.511 5.64 190.607 5.64H191.891C192.027 5.64 192.095 5.684 192.095 5.772C192.095 5.828 192.067 5.884 192.011 5.94L190.331 7.644C190.283 7.7 190.259 7.752 190.259 7.8C190.259 7.856 190.275 7.916 190.307 7.98L192.359 11.724ZM199.242 11.388C198.714 11.876 198.086 12.12 197.358 12.12C196.758 12.12 196.282 11.96 195.93 11.64C195.578 11.312 195.402 10.888 195.402 10.368C195.402 9.696 195.71 9.156 196.326 8.748C196.942 8.34 197.79 8.124 198.87 8.1L199.302 8.064C199.35 8.064 199.39 8.052 199.422 8.028C199.462 7.996 199.482 7.952 199.482 7.896V7.644C199.482 7.332 199.394 7.092 199.218 6.924C199.042 6.756 198.79 6.672 198.462 6.672C197.902 6.672 197.486 6.912 197.214 7.392C197.182 7.472 197.13 7.512 197.058 7.512C197.018 7.512 196.982 7.508 196.95 7.5L195.75 7.224C195.678 7.208 195.642 7.164 195.642 7.092C195.642 7.044 195.658 6.984 195.69 6.912C195.882 6.448 196.222 6.1 196.71 5.868C197.206 5.636 197.818 5.52 198.546 5.52C199.498 5.52 200.186 5.696 200.61 6.048C201.034 6.392 201.246 6.884 201.246 7.524V11.736C201.246 11.832 201.23 11.9 201.198 11.94C201.166 11.98 201.106 12 201.018 12H199.782C199.702 12 199.642 11.972 199.602 11.916C199.57 11.86 199.546 11.776 199.53 11.664L199.518 11.4C199.51 11.328 199.478 11.292 199.422 11.292C199.39 11.292 199.33 11.324 199.242 11.388ZM199.482 9.168C199.482 9.096 199.47 9.044 199.446 9.012C199.422 8.98 199.374 8.964 199.302 8.964L198.966 8.988C198.502 9.012 198.09 9.124 197.73 9.324C197.378 9.516 197.202 9.784 197.202 10.128C197.202 10.368 197.286 10.56 197.454 10.704C197.622 10.84 197.854 10.908 198.15 10.908C198.518 10.908 198.83 10.8 199.086 10.584C199.35 10.376 199.482 10.164 199.482 9.948V9.168ZM208.897 7.296C208.569 6.864 208.101 6.648 207.493 6.648C207.189 6.648 206.937 6.708 206.737 6.828C206.537 6.94 206.437 7.096 206.437 7.296C206.437 7.408 206.481 7.512 206.569 7.608C206.665 7.696 206.845 7.772 207.109 7.836L208.489 8.172C209.121 8.324 209.585 8.568 209.881 8.904C210.177 9.232 210.325 9.62 210.325 10.068C210.325 10.7 210.061 11.2 209.533 11.568C209.005 11.936 208.313 12.12 207.457 12.12C206.769 12.12 206.173 12 205.669 11.76C205.165 11.512 204.809 11.192 204.601 10.8C204.561 10.744 204.541 10.692 204.541 10.644C204.541 10.588 204.569 10.548 204.625 10.524L205.441 10.104C205.505 10.072 205.561 10.056 205.609 10.056C205.657 10.056 205.701 10.076 205.741 10.116C205.917 10.364 206.129 10.564 206.377 10.716C206.633 10.86 206.969 10.932 207.385 10.932C207.761 10.932 208.065 10.876 208.297 10.764C208.537 10.652 208.657 10.488 208.657 10.272C208.657 10.128 208.597 10.008 208.477 9.912C208.357 9.816 208.153 9.732 207.865 9.66L206.629 9.396C205.413 9.132 204.805 8.528 204.805 7.584C204.805 7.184 204.913 6.828 205.129 6.516C205.353 6.204 205.669 5.96 206.076 5.784C206.485 5.608 206.965 5.52 207.517 5.52C208.101 5.52 208.617 5.628 209.065 5.844C209.521 6.06 209.849 6.332 210.049 6.66C210.097 6.724 210.121 6.78 210.121 6.828C210.121 6.876 210.093 6.916 210.037 6.948L209.173 7.368C209.149 7.384 209.117 7.392 209.077 7.392C209.005 7.392 208.945 7.36 208.897 7.296ZM214.012 6.912C213.924 6.912 213.88 6.96 213.88 7.056V9.948C213.88 10.22 213.944 10.416 214.072 10.536C214.2 10.648 214.404 10.704 214.684 10.704H215.332C215.388 10.704 215.432 10.724 215.464 10.764C215.496 10.796 215.512 10.844 215.512 10.908L215.5 11.64C215.5 11.8 215.412 11.896 215.236 11.928C214.9 11.976 214.424 12 213.808 12C213.248 12 212.812 11.868 212.5 11.604C212.188 11.34 212.032 10.956 212.032 10.452V7.092C212.032 6.972 211.98 6.912 211.876 6.912H211.144C210.992 6.912 210.916 6.844 210.916 6.708V5.82C210.916 5.7 210.988 5.64 211.132 5.64H211.96C212.024 5.64 212.064 5.596 212.08 5.508L212.248 3.684C212.264 3.548 212.324 3.48 212.428 3.48H213.736C213.792 3.48 213.836 3.5 213.868 3.54C213.908 3.58 213.928 3.636 213.928 3.708V5.508C213.928 5.588 213.968 5.628 214.048 5.628H215.308C215.452 5.628 215.524 5.692 215.524 5.82V6.708C215.524 6.844 215.444 6.912 215.284 6.912H214.012ZM216.767 12C216.599 12 216.515 11.92 216.515 11.76V5.868C216.515 5.716 216.579 5.64 216.707 5.64H218.111C218.239 5.64 218.303 5.708 218.303 5.844V6.552C218.303 6.584 218.311 6.608 218.327 6.624C218.343 6.64 218.359 6.648 218.375 6.648C218.399 6.648 218.431 6.628 218.471 6.588C218.711 6.268 218.995 6.012 219.323 5.82C219.651 5.62 219.963 5.52 220.259 5.52C220.547 5.52 220.691 5.588 220.691 5.724V7.116C220.691 7.172 220.675 7.216 220.643 7.248C220.611 7.28 220.567 7.288 220.511 7.272C220.255 7.208 219.975 7.176 219.671 7.176C219.471 7.176 219.267 7.228 219.059 7.332C218.859 7.428 218.691 7.56 218.555 7.728C218.427 7.888 218.363 8.052 218.363 8.22V11.724C218.363 11.908 218.259 12 218.051 12H216.767ZM225.047 11.388C224.519 11.876 223.891 12.12 223.163 12.12C222.563 12.12 222.087 11.96 221.735 11.64C221.383 11.312 221.207 10.888 221.207 10.368C221.207 9.696 221.515 9.156 222.131 8.748C222.747 8.34 223.595 8.124 224.675 8.1L225.107 8.064C225.155 8.064 225.195 8.052 225.227 8.028C225.267 7.996 225.287 7.952 225.287 7.896V7.644C225.287 7.332 225.199 7.092 225.023 6.924C224.847 6.756 224.595 6.672 224.267 6.672C223.707 6.672 223.291 6.912 223.019 7.392C222.987 7.472 222.935 7.512 222.863 7.512C222.823 7.512 222.787 7.508 222.755 7.5L221.555 7.224C221.483 7.208 221.447 7.164 221.447 7.092C221.447 7.044 221.463 6.984 221.495 6.912C221.687 6.448 222.027 6.1 222.515 5.868C223.011 5.636 223.623 5.52 224.351 5.52C225.303 5.52 225.991 5.696 226.415 6.048C226.839 6.392 227.051 6.884 227.051 7.524V11.736C227.051 11.832 227.035 11.9 227.003 11.94C226.971 11.98 226.911 12 226.823 12H225.587C225.507 12 225.447 11.972 225.407 11.916C225.375 11.86 225.351 11.776 225.335 11.664L225.323 11.4C225.315 11.328 225.283 11.292 225.227 11.292C225.195 11.292 225.135 11.324 225.047 11.388ZM225.287 9.168C225.287 9.096 225.275 9.044 225.251 9.012C225.227 8.98 225.179 8.964 225.107 8.964L224.771 8.988C224.307 9.012 223.895 9.124 223.535 9.324C223.183 9.516 223.007 9.784 223.007 10.128C223.007 10.368 223.091 10.56 223.259 10.704C223.427 10.84 223.659 10.908 223.955 10.908C224.323 10.908 224.635 10.8 224.891 10.584C225.155 10.376 225.287 10.164 225.287 9.948V9.168ZM230.981 6.912C230.893 6.912 230.849 6.96 230.849 7.056V9.948C230.849 10.22 230.913 10.416 231.041 10.536C231.169 10.648 231.373 10.704 231.653 10.704H232.301C232.357 10.704 232.401 10.724 232.433 10.764C232.465 10.796 232.481 10.844 232.481 10.908L232.469 11.64C232.469 11.8 232.381 11.896 232.205 11.928C231.869 11.976 231.393 12 230.777 12C230.217 12 229.781 11.868 229.469 11.604C229.157 11.34 229.001 10.956 229.001 10.452V7.092C229.001 6.972 228.949 6.912 228.845 6.912H228.113C227.961 6.912 227.885 6.844 227.885 6.708V5.82C227.885 5.7 227.957 5.64 228.101 5.64H228.929C228.993 5.64 229.033 5.596 229.049 5.508L229.217 3.684C229.233 3.548 229.293 3.48 229.397 3.48H230.705C230.761 3.48 230.805 3.5 230.837 3.54C230.877 3.58 230.897 3.636 230.897 3.708V5.508C230.897 5.588 230.937 5.628 231.017 5.628H232.277C232.421 5.628 232.493 5.692 232.493 5.82V6.708C232.493 6.844 232.413 6.912 232.253 6.912H230.981ZM234.905 9.36C234.905 9.808 235.053 10.172 235.349 10.452C235.653 10.724 236.029 10.86 236.477 10.86C236.765 10.86 237.029 10.8 237.269 10.68C237.517 10.552 237.765 10.344 238.013 10.056C238.045 10.024 238.077 10.008 238.109 10.008C238.133 10.008 238.173 10.02 238.229 10.044L239.093 10.404C239.149 10.428 239.177 10.468 239.177 10.524C239.177 10.564 239.161 10.604 239.129 10.644C238.745 11.188 238.333 11.572 237.893 11.796C237.453 12.012 236.905 12.12 236.249 12.12C235.633 12.12 235.077 11.984 234.581 11.712C234.085 11.44 233.697 11.064 233.417 10.584C233.137 10.096 232.997 9.54 232.997 8.916C232.997 8.244 233.141 7.652 233.429 7.14C233.717 6.62 234.105 6.22 234.593 5.94C235.089 5.66 235.629 5.52 236.213 5.52C236.821 5.52 237.361 5.656 237.833 5.928C238.305 6.192 238.673 6.576 238.937 7.08C239.201 7.584 239.333 8.184 239.333 8.88C239.333 8.984 239.321 9.056 239.297 9.096C239.281 9.136 239.225 9.16 239.129 9.168H235.049C234.953 9.168 234.905 9.232 234.905 9.36ZM237.317 8.16C237.405 8.16 237.461 8.152 237.485 8.136C237.509 8.112 237.521 8.064 237.521 7.992C237.521 7.784 237.473 7.576 237.377 7.368C237.281 7.16 237.141 6.988 236.957 6.852C236.773 6.716 236.549 6.648 236.285 6.648C235.885 6.648 235.557 6.788 235.301 7.068C235.045 7.348 234.921 7.708 234.929 8.148L237.317 8.16ZM246.748 5.364C246.908 5.364 246.988 5.452 246.988 5.628V6.444C246.988 6.668 246.896 6.76 246.712 6.72C246.592 6.696 246.476 6.684 246.364 6.684C246.3 6.684 246.228 6.692 246.148 6.708C245.94 6.74 245.86 6.832 245.908 6.984C245.98 7.2 246.016 7.38 246.016 7.524C246.016 7.892 245.904 8.224 245.68 8.52C245.464 8.816 245.136 9.052 244.696 9.228C244.264 9.404 243.74 9.492 243.124 9.492C242.676 9.492 242.344 9.528 242.128 9.6C241.92 9.672 241.816 9.768 241.816 9.888C241.816 9.992 241.872 10.068 241.984 10.116C242.104 10.156 242.3 10.184 242.572 10.2L244.288 10.296C245.08 10.344 245.668 10.52 246.052 10.824C246.444 11.128 246.64 11.532 246.64 12.036C246.64 12.66 246.344 13.16 245.752 13.536C245.16 13.912 244.32 14.1 243.232 14.1C240.904 14.1 239.74 13.584 239.74 12.552C239.74 12.296 239.84 12.08 240.04 11.904C240.24 11.72 240.524 11.56 240.892 11.424C240.94 11.408 240.964 11.388 240.964 11.364C240.964 11.34 240.94 11.316 240.892 11.292C240.428 11.068 240.196 10.772 240.196 10.404C240.196 10.188 240.3 9.988 240.508 9.804C240.724 9.612 241.008 9.448 241.36 9.312C241.456 9.264 241.464 9.216 241.384 9.168C240.608 8.808 240.22 8.264 240.22 7.536C240.22 6.928 240.48 6.444 241 6.084C241.528 5.724 242.28 5.544 243.256 5.544C244.08 5.544 244.72 5.724 245.176 6.084C245.232 6.124 245.284 6.144 245.332 6.144C245.396 6.144 245.452 6.116 245.5 6.06C245.652 5.876 245.852 5.716 246.1 5.58C246.348 5.436 246.564 5.364 246.748 5.364ZM243.112 8.58C243.52 8.58 243.824 8.488 244.024 8.304C244.232 8.112 244.336 7.864 244.336 7.56C244.336 7.224 244.232 6.96 244.024 6.768C243.824 6.568 243.52 6.468 243.112 6.468C242.728 6.468 242.424 6.568 242.2 6.768C241.984 6.968 241.876 7.232 241.876 7.56C241.876 7.864 241.984 8.112 242.2 8.304C242.424 8.488 242.728 8.58 243.112 8.58ZM242.224 11.64C241.976 11.624 241.752 11.684 241.552 11.82C241.36 11.948 241.264 12.112 241.264 12.312C241.264 12.608 241.428 12.832 241.756 12.984C242.084 13.136 242.616 13.212 243.352 13.212C243.888 13.212 244.3 13.136 244.588 12.984C244.876 12.84 245.02 12.632 245.02 12.36C245.02 12.176 244.94 12.028 244.78 11.916C244.62 11.804 244.384 11.74 244.072 11.724L242.224 11.64ZM248.498 13.98C248.234 13.98 248.05 13.964 247.946 13.932C247.842 13.908 247.79 13.848 247.79 13.752V12.828C247.79 12.7 247.906 12.636 248.138 12.636H248.954C249.194 12.636 249.402 12.544 249.578 12.36C249.754 12.184 249.842 11.996 249.842 11.796C249.842 11.724 249.83 11.66 249.806 11.604L247.502 5.928C247.486 5.88 247.478 5.848 247.478 5.832C247.478 5.776 247.498 5.732 247.538 5.7C247.578 5.66 247.63 5.64 247.694 5.64H249.206C249.262 5.64 249.314 5.66 249.362 5.7C249.418 5.732 249.454 5.78 249.47 5.844L250.802 9.42C250.826 9.5 250.858 9.54 250.898 9.54C250.93 9.54 250.966 9.496 251.006 9.408L252.326 5.832C252.382 5.704 252.47 5.64 252.59 5.64H253.622C253.678 5.64 253.722 5.66 253.754 5.7C253.794 5.732 253.814 5.772 253.814 5.82C253.814 5.836 253.806 5.868 253.79 5.916L251.33 12C251.106 12.552 250.87 12.968 250.622 13.248C250.374 13.528 250.086 13.72 249.758 13.824C249.438 13.928 249.018 13.98 248.498 13.98Z" fill="#12B2FF"/>
<path d="M377.32 184V172.625H380.531C381.521 172.625 382.396 172.844 383.156 173.281C383.917 173.719 384.503 174.341 384.914 175.148C385.331 175.956 385.542 176.883 385.547 177.93V178.656C385.547 179.729 385.339 180.669 384.922 181.477C384.51 182.284 383.919 182.904 383.148 183.336C382.383 183.768 381.49 183.99 380.469 184H377.32ZM378.82 173.859V182.773H380.398C381.555 182.773 382.453 182.414 383.094 181.695C383.74 180.977 384.062 179.953 384.062 178.625V177.961C384.062 176.669 383.758 175.667 383.148 174.953C382.544 174.234 381.685 173.87 380.57 173.859H378.82ZM391.102 184.156C389.956 184.156 389.023 183.781 388.305 183.031C387.586 182.276 387.227 181.268 387.227 180.008V179.742C387.227 178.904 387.385 178.156 387.703 177.5C388.026 176.839 388.474 176.323 389.047 175.953C389.625 175.578 390.25 175.391 390.922 175.391C392.021 175.391 392.875 175.753 393.484 176.477C394.094 177.201 394.398 178.237 394.398 179.586V180.188H388.672C388.693 181.021 388.935 181.695 389.398 182.211C389.867 182.721 390.461 182.977 391.18 182.977C391.69 182.977 392.122 182.872 392.477 182.664C392.831 182.456 393.141 182.18 393.406 181.836L394.289 182.523C393.581 183.612 392.518 184.156 391.102 184.156ZM390.922 176.578C390.339 176.578 389.849 176.792 389.453 177.219C389.057 177.641 388.812 178.234 388.719 179H392.953V178.891C392.911 178.156 392.714 177.589 392.359 177.188C392.005 176.781 391.526 176.578 390.922 176.578ZM403.219 179.867C403.219 181.154 402.924 182.19 402.336 182.977C401.747 183.763 400.951 184.156 399.945 184.156C398.919 184.156 398.112 183.831 397.523 183.18V187.25H396.078V175.547H397.398L397.469 176.484C398.057 175.755 398.875 175.391 399.922 175.391C400.938 175.391 401.74 175.773 402.328 176.539C402.922 177.305 403.219 178.37 403.219 179.734V179.867ZM401.773 179.703C401.773 178.75 401.57 177.997 401.164 177.445C400.758 176.893 400.201 176.617 399.492 176.617C398.617 176.617 397.961 177.005 397.523 177.781V181.82C397.956 182.591 398.617 182.977 399.508 182.977C400.201 182.977 400.75 182.703 401.156 182.156C401.568 181.604 401.773 180.786 401.773 179.703ZM404.68 179.695C404.68 178.867 404.841 178.122 405.164 177.461C405.492 176.799 405.945 176.289 406.523 175.93C407.107 175.57 407.771 175.391 408.516 175.391C409.667 175.391 410.596 175.789 411.305 176.586C412.018 177.383 412.375 178.443 412.375 179.766V179.867C412.375 180.69 412.216 181.43 411.898 182.086C411.586 182.737 411.135 183.245 410.547 183.609C409.964 183.974 409.292 184.156 408.531 184.156C407.385 184.156 406.456 183.758 405.742 182.961C405.034 182.164 404.68 181.109 404.68 179.797V179.695ZM406.133 179.867C406.133 180.805 406.349 181.557 406.781 182.125C407.219 182.693 407.802 182.977 408.531 182.977C409.266 182.977 409.849 182.69 410.281 182.117C410.714 181.539 410.93 180.732 410.93 179.695C410.93 178.768 410.708 178.018 410.266 177.445C409.828 176.867 409.245 176.578 408.516 176.578C407.802 176.578 407.227 176.862 406.789 177.43C406.352 177.997 406.133 178.81 406.133 179.867ZM419.109 181.758C419.109 181.367 418.961 181.065 418.664 180.852C418.372 180.633 417.859 180.445 417.125 180.289C416.396 180.133 415.815 179.945 415.383 179.727C414.956 179.508 414.638 179.247 414.43 178.945C414.227 178.643 414.125 178.284 414.125 177.867C414.125 177.174 414.417 176.589 415 176.109C415.589 175.63 416.339 175.391 417.25 175.391C418.208 175.391 418.984 175.638 419.578 176.133C420.177 176.628 420.477 177.26 420.477 178.031H419.023C419.023 177.635 418.854 177.294 418.516 177.008C418.182 176.721 417.76 176.578 417.25 176.578C416.724 176.578 416.312 176.693 416.016 176.922C415.719 177.151 415.57 177.451 415.57 177.82C415.57 178.169 415.708 178.432 415.984 178.609C416.26 178.786 416.758 178.956 417.477 179.117C418.201 179.279 418.786 179.471 419.234 179.695C419.682 179.919 420.013 180.19 420.227 180.508C420.445 180.82 420.555 181.203 420.555 181.656C420.555 182.411 420.253 183.018 419.648 183.477C419.044 183.93 418.26 184.156 417.297 184.156C416.62 184.156 416.021 184.036 415.5 183.797C414.979 183.557 414.57 183.224 414.273 182.797C413.982 182.365 413.836 181.898 413.836 181.398H415.281C415.307 181.883 415.5 182.268 415.859 182.555C416.224 182.836 416.703 182.977 417.297 182.977C417.844 182.977 418.281 182.867 418.609 182.648C418.943 182.424 419.109 182.128 419.109 181.758ZM424.008 184H422.562V175.547H424.008V184ZM422.445 173.305C422.445 173.07 422.516 172.872 422.656 172.711C422.802 172.549 423.016 172.469 423.297 172.469C423.578 172.469 423.792 172.549 423.938 172.711C424.083 172.872 424.156 173.07 424.156 173.305C424.156 173.539 424.083 173.734 423.938 173.891C423.792 174.047 423.578 174.125 423.297 174.125C423.016 174.125 422.802 174.047 422.656 173.891C422.516 173.734 422.445 173.539 422.445 173.305ZM428.289 173.5V175.547H429.867V176.664H428.289V181.906C428.289 182.245 428.359 182.5 428.5 182.672C428.641 182.839 428.88 182.922 429.219 182.922C429.385 182.922 429.615 182.891 429.906 182.828V184C429.526 184.104 429.156 184.156 428.797 184.156C428.151 184.156 427.664 183.961 427.336 183.57C427.008 183.18 426.844 182.625 426.844 181.906V176.664H425.305V175.547H426.844V173.5H428.289Z" fill="#12B2FF"/>
<path d="M8.064 181.676C8.08 181.724 8.088 181.76 8.088 181.784C8.088 181.848 8.068 181.9 8.028 181.94C7.988 181.98 7.94 182 7.884 182H6.12C5.984 182 5.896 181.928 5.856 181.784L4.56 178.424C4.536 178.36 4.5 178.316 4.452 178.292C4.404 178.268 4.328 178.256 4.224 178.256H3.084C3.036 178.256 3 178.272 2.976 178.304C2.952 178.328 2.94 178.356 2.94 178.388V181.712C2.94 181.816 2.912 181.892 2.856 181.94C2.808 181.98 2.728 182 2.616 182H1.092C0.996 182 0.928 181.98 0.888 181.94C0.856 181.9 0.84 181.84 0.84 181.76V173.324C0.84 173.172 0.904 173.096 1.032 173.096H4.776C5.856 173.096 6.692 173.308 7.284 173.732C7.876 174.156 8.172 174.76 8.172 175.544C8.172 176.128 8.016 176.628 7.704 177.044C7.392 177.452 7 177.74 6.528 177.908C6.464 177.932 6.448 177.992 6.48 178.088L8.064 181.676ZM4.584 176.84C5.048 176.84 5.4 176.744 5.64 176.552C5.88 176.352 6 176.064 6 175.688C6 175.304 5.876 175.012 5.628 174.812C5.388 174.604 5.06 174.5 4.644 174.5H3.168C3.08 174.5 3.02 174.516 2.988 174.548C2.956 174.572 2.94 174.62 2.94 174.692V176.636C2.94 176.708 2.952 176.76 2.976 176.792C3 176.824 3.044 176.84 3.108 176.84H4.584ZM10.9402 179.36C10.9402 179.808 11.0882 180.172 11.3842 180.452C11.6882 180.724 12.0642 180.86 12.5122 180.86C12.8002 180.86 13.0642 180.8 13.3042 180.68C13.5522 180.552 13.8002 180.344 14.0482 180.056C14.0802 180.024 14.1122 180.008 14.1442 180.008C14.1682 180.008 14.2082 180.02 14.2642 180.044L15.1282 180.404C15.1842 180.428 15.2122 180.468 15.2122 180.524C15.2122 180.564 15.1962 180.604 15.1642 180.644C14.7802 181.188 14.3682 181.572 13.9282 181.796C13.4882 182.012 12.9402 182.12 12.2842 182.12C11.6682 182.12 11.1122 181.984 10.6162 181.712C10.1202 181.44 9.73216 181.064 9.45216 180.584C9.17216 180.096 9.03216 179.54 9.03216 178.916C9.03216 178.244 9.17616 177.652 9.46416 177.14C9.75216 176.62 10.1402 176.22 10.6282 175.94C11.1242 175.66 11.6642 175.52 12.2482 175.52C12.8562 175.52 13.3962 175.656 13.8682 175.928C14.3402 176.192 14.7082 176.576 14.9722 177.08C15.2362 177.584 15.3682 178.184 15.3682 178.88C15.3682 178.984 15.3562 179.056 15.3322 179.096C15.3162 179.136 15.2602 179.16 15.1642 179.168H11.0842C10.9882 179.168 10.9402 179.232 10.9402 179.36ZM13.3522 178.16C13.4402 178.16 13.4962 178.152 13.5202 178.136C13.5442 178.112 13.5562 178.064 13.5562 177.992C13.5562 177.784 13.5082 177.576 13.4122 177.368C13.3162 177.16 13.1762 176.988 12.9922 176.852C12.8082 176.716 12.5842 176.648 12.3202 176.648C11.9202 176.648 11.5922 176.788 11.3362 177.068C11.0802 177.348 10.9562 177.708 10.9642 178.148L13.3522 178.16ZM20.7674 182C20.5994 182 20.5154 181.92 20.5154 181.76V181.424C20.5154 181.36 20.4954 181.328 20.4554 181.328C20.4314 181.328 20.3954 181.344 20.3474 181.376C20.1154 181.6 19.8594 181.78 19.5794 181.916C19.3074 182.052 18.9794 182.12 18.5954 182.12C17.8434 182.12 17.2354 181.84 16.7714 181.28C16.3154 180.72 16.0874 179.916 16.0874 178.868C16.0874 178.212 16.2034 177.632 16.4354 177.128C16.6754 176.616 16.9954 176.22 17.3954 175.94C17.7954 175.66 18.2354 175.52 18.7154 175.52C19.0274 175.52 19.3074 175.572 19.5554 175.676C19.8114 175.78 20.0554 175.94 20.2874 176.156C20.3434 176.196 20.3834 176.216 20.4074 176.216C20.4634 176.216 20.4914 176.164 20.4914 176.06V173.312C20.4914 173.168 20.5554 173.096 20.6834 173.096H22.1474C22.2034 173.096 22.2474 173.116 22.2794 173.156C22.3194 173.196 22.3394 173.252 22.3394 173.324V181.748C22.3394 181.836 22.3194 181.9 22.2794 181.94C22.2394 181.98 22.1674 182 22.0634 182H20.7674ZM20.4914 177.296C20.3074 177.096 20.1234 176.948 19.9394 176.852C19.7634 176.756 19.5634 176.708 19.3394 176.708C18.9154 176.708 18.5794 176.884 18.3314 177.236C18.0834 177.58 17.9594 178.116 17.9594 178.844C17.9594 179.58 18.0794 180.12 18.3194 180.464C18.5594 180.8 18.8914 180.968 19.3154 180.968C19.6354 180.968 19.9114 180.864 20.1434 180.656C20.3754 180.44 20.4914 180.192 20.4914 179.912V177.296ZM25.2839 179.36C25.2839 179.808 25.4319 180.172 25.7279 180.452C26.0319 180.724 26.4079 180.86 26.8559 180.86C27.1439 180.86 27.4079 180.8 27.6479 180.68C27.8959 180.552 28.1439 180.344 28.3919 180.056C28.4239 180.024 28.4559 180.008 28.4879 180.008C28.5119 180.008 28.5519 180.02 28.6079 180.044L29.4719 180.404C29.5279 180.428 29.5559 180.468 29.5559 180.524C29.5559 180.564 29.5399 180.604 29.5079 180.644C29.1239 181.188 28.7119 181.572 28.2719 181.796C27.8319 182.012 27.2839 182.12 26.6279 182.12C26.0119 182.12 25.4559 181.984 24.9599 181.712C24.4639 181.44 24.0759 181.064 23.7959 180.584C23.5159 180.096 23.3759 179.54 23.3759 178.916C23.3759 178.244 23.5199 177.652 23.8079 177.14C24.0959 176.62 24.4839 176.22 24.9719 175.94C25.4679 175.66 26.0079 175.52 26.5919 175.52C27.1999 175.52 27.7399 175.656 28.2119 175.928C28.6839 176.192 29.0519 176.576 29.3159 177.08C29.5799 177.584 29.7119 178.184 29.7119 178.88C29.7119 178.984 29.6999 179.056 29.6759 179.096C29.6599 179.136 29.6039 179.16 29.5079 179.168H25.4279C25.3319 179.168 25.2839 179.232 25.2839 179.36ZM27.6959 178.16C27.7839 178.16 27.8399 178.152 27.8639 178.136C27.8879 178.112 27.8999 178.064 27.8999 177.992C27.8999 177.784 27.8519 177.576 27.7559 177.368C27.6599 177.16 27.5199 176.988 27.3359 176.852C27.1519 176.716 26.9279 176.648 26.6639 176.648C26.2639 176.648 25.9359 176.788 25.6799 177.068C25.4239 177.348 25.2999 177.708 25.3079 178.148L27.6959 178.16ZM32.3152 179.36C32.3152 179.808 32.4632 180.172 32.7592 180.452C33.0632 180.724 33.4392 180.86 33.8872 180.86C34.1752 180.86 34.4392 180.8 34.6792 180.68C34.9272 180.552 35.1752 180.344 35.4232 180.056C35.4552 180.024 35.4872 180.008 35.5192 180.008C35.5432 180.008 35.5832 180.02 35.6392 180.044L36.5032 180.404C36.5592 180.428 36.5872 180.468 36.5872 180.524C36.5872 180.564 36.5712 180.604 36.5392 180.644C36.1552 181.188 35.7432 181.572 35.3032 181.796C34.8632 182.012 34.3152 182.12 33.6592 182.12C33.0432 182.12 32.4872 181.984 31.9912 181.712C31.4952 181.44 31.1072 181.064 30.8272 180.584C30.5472 180.096 30.4072 179.54 30.4072 178.916C30.4072 178.244 30.5512 177.652 30.8392 177.14C31.1272 176.62 31.5152 176.22 32.0032 175.94C32.4992 175.66 33.0392 175.52 33.6232 175.52C34.2312 175.52 34.7712 175.656 35.2432 175.928C35.7152 176.192 36.0832 176.576 36.3472 177.08C36.6112 177.584 36.7432 178.184 36.7432 178.88C36.7432 178.984 36.7312 179.056 36.7072 179.096C36.6912 179.136 36.6352 179.16 36.5392 179.168H32.4592C32.3632 179.168 32.3152 179.232 32.3152 179.36ZM34.7272 178.16C34.8152 178.16 34.8712 178.152 34.8952 178.136C34.9192 178.112 34.9312 178.064 34.9312 177.992C34.9312 177.784 34.8832 177.576 34.7872 177.368C34.6912 177.16 34.5512 176.988 34.3672 176.852C34.1832 176.716 33.9592 176.648 33.6952 176.648C33.2952 176.648 32.9672 176.788 32.7112 177.068C32.4552 177.348 32.3312 177.708 32.3392 178.148L34.7272 178.16ZM37.9784 182C37.8904 182 37.8264 181.984 37.7864 181.952C37.7464 181.912 37.7264 181.848 37.7264 181.76V175.868C37.7264 175.796 37.7424 175.74 37.7744 175.7C37.8144 175.66 37.8624 175.64 37.9184 175.64H39.3584C39.4784 175.64 39.5384 175.708 39.5384 175.844V176.432C39.5384 176.496 39.5584 176.528 39.5984 176.528C39.6224 176.528 39.6504 176.512 39.6824 176.48C40.0184 176.168 40.3464 175.928 40.6664 175.76C40.9864 175.592 41.3264 175.508 41.6864 175.508C42.1104 175.508 42.4704 175.608 42.7664 175.808C43.0624 176.008 43.2704 176.28 43.3904 176.624C43.3984 176.656 43.4144 176.672 43.4384 176.672C43.4704 176.672 43.5064 176.652 43.5464 176.612C43.8424 176.284 44.1744 176.02 44.5424 175.82C44.9184 175.62 45.2904 175.52 45.6584 175.52C46.2184 175.52 46.6624 175.692 46.9904 176.036C47.3264 176.38 47.4944 176.852 47.4944 177.452V181.712C47.4944 181.904 47.3984 182 47.2064 182H45.8744C45.7864 182 45.7264 181.984 45.6944 181.952C45.6624 181.912 45.6464 181.848 45.6464 181.76V177.704C45.6464 177.44 45.5744 177.232 45.4304 177.08C45.2864 176.928 45.0824 176.852 44.8184 176.852C44.6024 176.852 44.3904 176.912 44.1824 177.032C43.9824 177.152 43.8104 177.296 43.6664 177.464C43.6184 177.52 43.5824 177.572 43.5584 177.62C43.5424 177.668 43.5344 177.728 43.5344 177.8V181.712C43.5344 181.904 43.4384 182 43.2464 182H41.9264C41.8464 182 41.7864 181.984 41.7464 181.952C41.7144 181.912 41.6984 181.848 41.6984 181.76V177.704C41.6984 177.44 41.6264 177.232 41.4824 177.08C41.3384 176.928 41.1304 176.852 40.8584 176.852C40.6264 176.852 40.4104 176.912 40.2104 177.032C40.0104 177.152 39.7984 177.34 39.5744 177.596V181.724C39.5744 181.82 39.5504 181.892 39.5024 181.94C39.4544 181.98 39.3744 182 39.2624 182H37.9784Z" fill="#12B2FF"/>
<path d="M190.064 355.676C190.08 355.724 190.088 355.76 190.088 355.784C190.088 355.848 190.068 355.9 190.028 355.94C189.988 355.98 189.94 356 189.884 356H188.12C187.984 356 187.896 355.928 187.856 355.784L186.56 352.424C186.536 352.36 186.5 352.316 186.452 352.292C186.404 352.268 186.328 352.256 186.224 352.256H185.084C185.036 352.256 185 352.272 184.976 352.304C184.952 352.328 184.94 352.356 184.94 352.388V355.712C184.94 355.816 184.912 355.892 184.856 355.94C184.808 355.98 184.728 356 184.616 356H183.092C182.996 356 182.928 355.98 182.888 355.94C182.856 355.9 182.84 355.84 182.84 355.76V347.324C182.84 347.172 182.904 347.096 183.032 347.096H186.776C187.856 347.096 188.692 347.308 189.284 347.732C189.876 348.156 190.172 348.76 190.172 349.544C190.172 350.128 190.016 350.628 189.704 351.044C189.392 351.452 189 351.74 188.528 351.908C188.464 351.932 188.448 351.992 188.48 352.088L190.064 355.676ZM186.584 350.84C187.048 350.84 187.4 350.744 187.64 350.552C187.88 350.352 188 350.064 188 349.688C188 349.304 187.876 349.012 187.628 348.812C187.388 348.604 187.06 348.5 186.644 348.5H185.168C185.08 348.5 185.02 348.516 184.988 348.548C184.956 348.572 184.94 348.62 184.94 348.692V350.636C184.94 350.708 184.952 350.76 184.976 350.792C185 350.824 185.044 350.84 185.108 350.84H186.584ZM192.94 353.36C192.94 353.808 193.088 354.172 193.384 354.452C193.688 354.724 194.064 354.86 194.512 354.86C194.8 354.86 195.064 354.8 195.304 354.68C195.552 354.552 195.8 354.344 196.048 354.056C196.08 354.024 196.112 354.008 196.144 354.008C196.168 354.008 196.208 354.02 196.264 354.044L197.128 354.404C197.184 354.428 197.212 354.468 197.212 354.524C197.212 354.564 197.196 354.604 197.164 354.644C196.78 355.188 196.368 355.572 195.928 355.796C195.488 356.012 194.94 356.12 194.284 356.12C193.668 356.12 193.112 355.984 192.616 355.712C192.12 355.44 191.732 355.064 191.452 354.584C191.172 354.096 191.032 353.54 191.032 352.916C191.032 352.244 191.176 351.652 191.464 351.14C191.752 350.62 192.14 350.22 192.628 349.94C193.124 349.66 193.664 349.52 194.248 349.52C194.856 349.52 195.396 349.656 195.868 349.928C196.34 350.192 196.708 350.576 196.972 351.08C197.236 351.584 197.368 352.184 197.368 352.88C197.368 352.984 197.356 353.056 197.332 353.096C197.316 353.136 197.26 353.16 197.164 353.168H193.084C192.988 353.168 192.94 353.232 192.94 353.36ZM195.352 352.16C195.44 352.16 195.496 352.152 195.52 352.136C195.544 352.112 195.556 352.064 195.556 351.992C195.556 351.784 195.508 351.576 195.412 351.368C195.316 351.16 195.176 350.988 194.992 350.852C194.808 350.716 194.584 350.648 194.32 350.648C193.92 350.648 193.592 350.788 193.336 351.068C193.08 351.348 192.956 351.708 192.964 352.148L195.352 352.16ZM198.627 356C198.531 356 198.459 355.98 198.411 355.94C198.371 355.892 198.351 355.824 198.351 355.736V347.324C198.351 347.252 198.367 347.196 198.399 347.156C198.439 347.116 198.491 347.096 198.555 347.096H200.019C200.139 347.096 200.199 347.168 200.199 347.312V350.108C200.199 350.204 200.227 350.252 200.283 350.252C200.315 350.252 200.359 350.232 200.415 350.192C200.895 349.744 201.455 349.52 202.095 349.52C202.895 349.52 203.511 349.816 203.943 350.408C204.383 351 204.603 351.792 204.603 352.784C204.603 353.816 204.363 354.632 203.883 355.232C203.403 355.824 202.731 356.12 201.867 356.12C201.459 356.12 201.091 356.028 200.763 355.844C200.443 355.66 200.179 355.428 199.971 355.148C199.931 355.108 199.903 355.088 199.887 355.088C199.863 355.088 199.843 355.12 199.827 355.184L199.683 355.76C199.659 355.848 199.627 355.912 199.587 355.952C199.547 355.984 199.487 356 199.407 356H198.627ZM200.199 353.804C200.199 354.148 200.315 354.432 200.547 354.656C200.787 354.88 201.071 354.992 201.399 354.992C202.279 354.992 202.719 354.264 202.719 352.808C202.719 352.08 202.611 351.548 202.395 351.212C202.187 350.868 201.871 350.696 201.447 350.696C200.967 350.696 200.551 350.908 200.199 351.332V353.804ZM209.168 355.388C208.64 355.876 208.012 356.12 207.284 356.12C206.684 356.12 206.208 355.96 205.856 355.64C205.504 355.312 205.328 354.888 205.328 354.368C205.328 353.696 205.636 353.156 206.252 352.748C206.868 352.34 207.716 352.124 208.796 352.1L209.228 352.064C209.276 352.064 209.316 352.052 209.348 352.028C209.388 351.996 209.408 351.952 209.408 351.896V351.644C209.408 351.332 209.32 351.092 209.144 350.924C208.968 350.756 208.716 350.672 208.388 350.672C207.828 350.672 207.412 350.912 207.14 351.392C207.108 351.472 207.056 351.512 206.984 351.512C206.944 351.512 206.908 351.508 206.876 351.5L205.676 351.224C205.604 351.208 205.568 351.164 205.568 351.092C205.568 351.044 205.584 350.984 205.616 350.912C205.808 350.448 206.148 350.1 206.636 349.868C207.132 349.636 207.744 349.52 208.472 349.52C209.424 349.52 210.112 349.696 210.536 350.048C210.96 350.392 211.172 350.884 211.172 351.524V355.736C211.172 355.832 211.156 355.9 211.124 355.94C211.092 355.98 211.032 356 210.944 356H209.708C209.628 356 209.568 355.972 209.528 355.916C209.496 355.86 209.472 355.776 209.456 355.664L209.444 355.4C209.436 355.328 209.404 355.292 209.348 355.292C209.316 355.292 209.256 355.324 209.168 355.388ZM209.408 353.168C209.408 353.096 209.396 353.044 209.372 353.012C209.348 352.98 209.3 352.964 209.228 352.964L208.892 352.988C208.428 353.012 208.016 353.124 207.656 353.324C207.304 353.516 207.128 353.784 207.128 354.128C207.128 354.368 207.212 354.56 207.38 354.704C207.548 354.84 207.78 354.908 208.076 354.908C208.444 354.908 208.756 354.8 209.012 354.584C209.276 354.376 209.408 354.164 209.408 353.948V353.168ZM214.286 355.712C214.286 355.816 214.262 355.892 214.214 355.94C214.166 355.98 214.082 356 213.962 356H212.69C212.594 356 212.526 355.98 212.486 355.94C212.446 355.9 212.426 355.836 212.426 355.748L212.462 347.324C212.462 347.172 212.526 347.096 212.654 347.096H214.106C214.226 347.096 214.286 347.168 214.286 347.312V355.712ZM219.117 355.388C218.589 355.876 217.961 356.12 217.233 356.12C216.633 356.12 216.157 355.96 215.805 355.64C215.453 355.312 215.277 354.888 215.277 354.368C215.277 353.696 215.585 353.156 216.201 352.748C216.817 352.34 217.665 352.124 218.745 352.1L219.177 352.064C219.225 352.064 219.265 352.052 219.297 352.028C219.337 351.996 219.357 351.952 219.357 351.896V351.644C219.357 351.332 219.269 351.092 219.093 350.924C218.917 350.756 218.665 350.672 218.337 350.672C217.777 350.672 217.361 350.912 217.089 351.392C217.057 351.472 217.005 351.512 216.933 351.512C216.893 351.512 216.857 351.508 216.825 351.5L215.625 351.224C215.553 351.208 215.517 351.164 215.517 351.092C215.517 351.044 215.533 350.984 215.565 350.912C215.757 350.448 216.097 350.1 216.585 349.868C217.081 349.636 217.693 349.52 218.421 349.52C219.373 349.52 220.061 349.696 220.485 350.048C220.909 350.392 221.121 350.884 221.121 351.524V355.736C221.121 355.832 221.105 355.9 221.073 355.94C221.041 355.98 220.981 356 220.893 356H219.657C219.577 356 219.517 355.972 219.477 355.916C219.445 355.86 219.421 355.776 219.405 355.664L219.393 355.4C219.385 355.328 219.353 355.292 219.297 355.292C219.265 355.292 219.205 355.324 219.117 355.388ZM219.357 353.168C219.357 353.096 219.345 353.044 219.321 353.012C219.297 352.98 219.249 352.964 219.177 352.964L218.841 352.988C218.377 353.012 217.965 353.124 217.605 353.324C217.253 353.516 217.077 353.784 217.077 354.128C217.077 354.368 217.161 354.56 217.329 354.704C217.497 354.84 217.729 354.908 218.025 354.908C218.393 354.908 218.705 354.8 218.961 354.584C219.225 354.376 219.357 354.164 219.357 353.948V353.168ZM222.627 356C222.539 356 222.475 355.984 222.435 355.952C222.395 355.912 222.375 355.848 222.375 355.76V349.868C222.375 349.716 222.439 349.64 222.567 349.64H224.019C224.139 349.64 224.199 349.708 224.199 349.844V350.432C224.199 350.496 224.219 350.528 224.259 350.528C224.283 350.528 224.311 350.512 224.343 350.48C224.671 350.168 224.999 349.932 225.327 349.772C225.655 349.604 226.003 349.52 226.371 349.52C226.955 349.52 227.415 349.692 227.751 350.036C228.095 350.38 228.267 350.84 228.267 351.416V355.712C228.267 355.904 228.171 356 227.979 356H226.647C226.559 356 226.499 355.984 226.467 355.952C226.435 355.912 226.419 355.848 226.419 355.76V351.704C226.419 351.432 226.343 351.224 226.191 351.08C226.047 350.928 225.831 350.852 225.543 350.852C225.303 350.852 225.079 350.912 224.871 351.032C224.671 351.152 224.455 351.34 224.223 351.596V355.724C224.223 355.82 224.199 355.892 224.151 355.94C224.103 355.98 224.023 356 223.911 356H222.627ZM232.427 349.52C233.139 349.52 233.727 349.7 234.191 350.06C234.663 350.412 234.979 350.84 235.139 351.344C235.155 351.408 235.163 351.448 235.163 351.464C235.163 351.536 235.107 351.58 234.995 351.596L233.735 351.716H233.699C233.627 351.716 233.579 351.672 233.555 351.584C233.411 351.296 233.263 351.084 233.111 350.948C232.967 350.804 232.759 350.732 232.487 350.732C232.055 350.732 231.715 350.908 231.467 351.26C231.227 351.612 231.107 352.132 231.107 352.82C231.107 353.524 231.235 354.052 231.491 354.404C231.755 354.756 232.119 354.932 232.583 354.932C232.911 354.932 233.179 354.848 233.387 354.68C233.595 354.512 233.799 354.256 233.999 353.912C234.023 353.872 234.047 353.852 234.071 353.852C234.103 353.844 234.147 353.844 234.203 353.852L235.091 354.056C235.163 354.064 235.199 354.104 235.199 354.176L235.175 354.284C235.015 354.748 234.703 355.172 234.239 355.556C233.783 355.932 233.179 356.12 232.427 356.12C231.811 356.12 231.259 355.984 230.771 355.712C230.291 355.432 229.915 355.044 229.643 354.548C229.371 354.052 229.235 353.484 229.235 352.844C229.235 352.196 229.371 351.62 229.643 351.116C229.923 350.612 230.303 350.22 230.783 349.94C231.271 349.66 231.819 349.52 232.427 349.52ZM237.753 353.36C237.753 353.808 237.901 354.172 238.197 354.452C238.501 354.724 238.877 354.86 239.325 354.86C239.613 354.86 239.877 354.8 240.117 354.68C240.365 354.552 240.613 354.344 240.861 354.056C240.893 354.024 240.925 354.008 240.957 354.008C240.981 354.008 241.021 354.02 241.077 354.044L241.941 354.404C241.997 354.428 242.025 354.468 242.025 354.524C242.025 354.564 242.009 354.604 241.977 354.644C241.593 355.188 241.181 355.572 240.741 355.796C240.301 356.012 239.753 356.12 239.097 356.12C238.481 356.12 237.925 355.984 237.429 355.712C236.933 355.44 236.545 355.064 236.265 354.584C235.985 354.096 235.845 353.54 235.845 352.916C235.845 352.244 235.989 351.652 236.277 351.14C236.565 350.62 236.953 350.22 237.441 349.94C237.937 349.66 238.477 349.52 239.061 349.52C239.669 349.52 240.209 349.656 240.681 349.928C241.153 350.192 241.521 350.576 241.785 351.08C242.049 351.584 242.181 352.184 242.181 352.88C242.181 352.984 242.169 353.056 242.145 353.096C242.129 353.136 242.073 353.16 241.977 353.168H237.897C237.801 353.168 237.753 353.232 237.753 353.36ZM240.165 352.16C240.253 352.16 240.309 352.152 240.333 352.136C240.357 352.112 240.369 352.064 240.369 351.992C240.369 351.784 240.321 351.576 240.225 351.368C240.129 351.16 239.989 350.988 239.805 350.852C239.621 350.716 239.397 350.648 239.133 350.648C238.733 350.648 238.405 350.788 238.149 351.068C237.893 351.348 237.769 351.708 237.777 352.148L240.165 352.16Z" fill="#12B2FF"/>
<circle cx="214" cy="177" r="83" fill="#21272D"/>
<path d="M161.26 169C161.111 169 161.036 168.92 161.036 168.76V157.352C161.036 157.267 161.047 157.208 161.068 157.176C161.1 157.144 161.154 157.128 161.228 157.128H162.764C162.85 157.128 162.908 157.144 162.94 157.176C162.983 157.197 163.015 157.24 163.036 157.304L166.588 166.472C166.62 166.568 166.658 166.616 166.7 166.616C166.754 166.616 166.802 166.563 166.844 166.456L170.396 157.336C170.428 157.197 170.508 157.128 170.636 157.128H172.252C172.37 157.128 172.428 157.197 172.428 157.336V168.76C172.428 168.92 172.348 169 172.188 169H171.132C170.972 169 170.892 168.931 170.892 168.792V159.64C170.892 159.587 170.882 159.565 170.86 159.576C170.85 159.576 170.834 159.597 170.812 159.64L167.292 168.792C167.228 168.931 167.127 169 166.988 169H166.22C166.06 169 165.954 168.936 165.9 168.808L162.428 159.736C162.418 159.683 162.402 159.656 162.38 159.656C162.359 159.656 162.348 159.683 162.348 159.736V168.792C162.348 168.867 162.332 168.92 162.3 168.952C162.268 168.984 162.21 169 162.124 169H161.26ZM180.144 167.976C179.323 168.765 178.374 169.16 177.296 169.16C176.464 169.16 175.808 168.952 175.328 168.536C174.859 168.109 174.624 167.544 174.624 166.84C174.624 165.987 174.982 165.315 175.696 164.824C176.422 164.333 177.467 164.045 178.832 163.96L180.08 163.864C180.262 163.843 180.352 163.763 180.352 163.624V163.192C180.352 162.616 180.171 162.163 179.808 161.832C179.456 161.491 178.976 161.32 178.368 161.32C177.43 161.32 176.662 161.747 176.064 162.6C176.032 162.653 176 162.691 175.968 162.712C175.936 162.723 175.894 162.717 175.84 162.696L174.976 162.408C174.923 162.387 174.896 162.349 174.896 162.296C174.896 162.264 174.912 162.216 174.944 162.152C175.264 161.587 175.718 161.149 176.304 160.84C176.902 160.52 177.606 160.36 178.416 160.36C179.462 160.36 180.262 160.605 180.816 161.096C181.371 161.576 181.648 162.243 181.648 163.096V168.76C181.648 168.856 181.632 168.92 181.6 168.952C181.568 168.984 181.51 169 181.424 169H180.624C180.496 169 180.422 168.915 180.4 168.744L180.368 168.008C180.358 167.933 180.331 167.896 180.288 167.896C180.246 167.896 180.198 167.923 180.144 167.976ZM180.352 164.936C180.352 164.765 180.272 164.68 180.112 164.68L179.072 164.776C178.08 164.84 177.312 165.032 176.768 165.352C176.235 165.672 175.968 166.115 175.968 166.68C175.968 167.139 176.128 167.501 176.448 167.768C176.779 168.035 177.216 168.168 177.76 168.168C178.091 168.168 178.416 168.109 178.736 167.992C179.056 167.875 179.339 167.715 179.584 167.512C179.83 167.32 180.016 167.117 180.144 166.904C180.283 166.68 180.352 166.467 180.352 166.264V164.936ZM190.91 168.664C190.985 168.771 191.022 168.851 191.022 168.904C191.022 168.968 190.963 169 190.846 169H189.726C189.566 169 189.454 168.952 189.39 168.856L187.134 165.752C187.081 165.667 187.038 165.624 187.006 165.624C186.974 165.624 186.926 165.667 186.862 165.752L184.51 168.856C184.446 168.952 184.334 169 184.174 169H183.422C183.273 169 183.198 168.952 183.198 168.856C183.198 168.803 183.235 168.723 183.31 168.616L186.222 164.904C186.275 164.829 186.302 164.771 186.302 164.728C186.302 164.685 186.275 164.627 186.222 164.552L183.438 160.776C183.406 160.744 183.39 160.707 183.39 160.664C183.39 160.621 183.406 160.589 183.438 160.568C183.47 160.536 183.513 160.52 183.566 160.52H184.638C184.713 160.52 184.771 160.531 184.814 160.552C184.857 160.573 184.899 160.611 184.942 160.664L187.102 163.592C187.155 163.656 187.198 163.688 187.23 163.688C187.273 163.688 187.31 163.656 187.342 163.592L189.438 160.664C189.481 160.611 189.523 160.573 189.566 160.552C189.609 160.531 189.673 160.52 189.758 160.52H190.59C190.697 160.52 190.75 160.552 190.75 160.616C190.75 160.637 190.729 160.68 190.686 160.744L187.982 164.36C187.929 164.435 187.902 164.488 187.902 164.52C187.902 164.573 187.929 164.637 187.982 164.712L190.91 168.664ZM194.093 158.696C194.093 158.803 194.072 158.883 194.029 158.936C193.986 158.979 193.912 159 193.805 159H192.877C192.717 159 192.637 158.909 192.637 158.728V157.384C192.637 157.213 192.712 157.128 192.861 157.128H193.869C193.933 157.128 193.986 157.149 194.029 157.192C194.072 157.235 194.093 157.293 194.093 157.368V158.696ZM194.029 168.728C194.029 168.835 194.008 168.909 193.965 168.952C193.922 168.984 193.848 169 193.741 169H192.925C192.829 169 192.765 168.984 192.733 168.952C192.701 168.92 192.685 168.861 192.685 168.776V160.744C192.685 160.595 192.749 160.52 192.877 160.52H193.853C193.97 160.52 194.029 160.589 194.029 160.728V168.728ZM196.737 169C196.588 169 196.513 168.931 196.513 168.792V160.728C196.513 160.589 196.572 160.52 196.689 160.52H197.649C197.756 160.52 197.809 160.579 197.809 160.696V161.624C197.809 161.752 197.863 161.768 197.969 161.672C198.545 161.203 199.036 160.867 199.441 160.664C199.847 160.461 200.3 160.36 200.801 160.36C201.399 160.36 201.889 160.493 202.273 160.76C202.668 161.027 202.935 161.363 203.073 161.768C203.095 161.8 203.116 161.816 203.137 161.816C203.169 161.816 203.223 161.789 203.297 161.736C203.852 161.267 204.348 160.92 204.785 160.696C205.233 160.472 205.703 160.36 206.193 160.36C206.961 160.36 207.559 160.579 207.985 161.016C208.423 161.453 208.641 162.045 208.641 162.792V168.744C208.641 168.915 208.561 169 208.401 169H207.505C207.367 169 207.297 168.931 207.297 168.792V163.08C207.297 162.547 207.169 162.136 206.913 161.848C206.657 161.56 206.273 161.416 205.761 161.416C205.335 161.416 204.935 161.523 204.561 161.736C204.188 161.939 203.825 162.195 203.473 162.504C203.388 162.589 203.329 162.664 203.297 162.728C203.265 162.792 203.249 162.872 203.249 162.968V168.744C203.249 168.915 203.169 169 203.009 169H202.113C201.975 169 201.905 168.931 201.905 168.792V163.08C201.905 161.971 201.393 161.416 200.369 161.416C199.943 161.416 199.548 161.517 199.185 161.72C198.833 161.912 198.391 162.243 197.857 162.712V168.76C197.857 168.845 197.836 168.909 197.793 168.952C197.761 168.984 197.703 169 197.617 169H196.737ZM212.421 158.696C212.421 158.803 212.4 158.883 212.357 158.936C212.315 158.979 212.24 159 212.133 159H211.205C211.045 159 210.965 158.909 210.965 158.728V157.384C210.965 157.213 211.04 157.128 211.189 157.128H212.197C212.261 157.128 212.315 157.149 212.357 157.192C212.4 157.235 212.421 157.293 212.421 157.368V158.696ZM212.357 168.728C212.357 168.835 212.336 168.909 212.293 168.952C212.251 168.984 212.176 169 212.069 169H211.253C211.157 169 211.093 168.984 211.061 168.952C211.029 168.92 211.013 168.861 211.013 168.776V160.744C211.013 160.595 211.077 160.52 211.205 160.52H212.181C212.299 160.52 212.357 160.589 212.357 160.728V168.728ZM214.297 169C214.223 169 214.169 168.989 214.137 168.968C214.116 168.936 214.105 168.883 214.105 168.808V168.344C214.105 168.259 214.116 168.189 214.137 168.136C214.169 168.072 214.223 167.987 214.297 167.88L218.953 161.624L219.001 161.528C219.001 161.485 218.959 161.464 218.873 161.464H214.633C214.569 161.464 214.521 161.453 214.489 161.432C214.468 161.411 214.457 161.363 214.457 161.288V160.696C214.457 160.579 214.511 160.52 214.617 160.52H220.537C220.633 160.52 220.681 160.573 220.681 160.68V161.192C220.681 161.331 220.628 161.469 220.521 161.608L215.849 167.88C215.807 167.933 215.791 167.976 215.801 168.008C215.812 168.04 215.844 168.056 215.897 168.056H220.601C220.719 168.056 220.777 168.104 220.777 168.2V168.808C220.777 168.936 220.708 169 220.569 169H214.297ZM223.456 165.288C223.456 165.8 223.579 166.275 223.824 166.712C224.08 167.149 224.421 167.496 224.848 167.752C225.275 168.008 225.744 168.136 226.256 168.136C227.323 168.136 228.155 167.693 228.752 166.808C228.795 166.765 228.832 166.744 228.864 166.744C228.896 166.733 228.933 166.739 228.976 166.76L229.648 167.096C229.733 167.149 229.744 167.224 229.68 167.32C229.264 167.96 228.768 168.429 228.192 168.728C227.616 169.016 226.928 169.16 226.128 169.16C225.349 169.16 224.651 168.979 224.032 168.616C223.413 168.253 222.928 167.747 222.576 167.096C222.235 166.435 222.064 165.683 222.064 164.84C222.064 163.933 222.24 163.144 222.592 162.472C222.944 161.789 223.424 161.267 224.032 160.904C224.651 160.541 225.344 160.36 226.112 160.36C226.88 160.36 227.552 160.531 228.128 160.872C228.715 161.213 229.168 161.715 229.488 162.376C229.808 163.027 229.968 163.8 229.968 164.696V164.76C229.968 164.856 229.952 164.931 229.92 164.984C229.888 165.027 229.824 165.048 229.728 165.048H223.6C223.504 165.048 223.456 165.128 223.456 165.288ZM228.352 164.168C228.469 164.168 228.544 164.157 228.576 164.136C228.608 164.104 228.624 164.04 228.624 163.944C228.624 163.475 228.523 163.043 228.32 162.648C228.128 162.243 227.84 161.923 227.456 161.688C227.083 161.443 226.645 161.32 226.144 161.32C225.6 161.32 225.125 161.459 224.72 161.736C224.315 162.003 224.005 162.355 223.792 162.792C223.579 163.219 223.477 163.677 223.488 164.168H228.352ZM235.759 171.64C235.385 171.64 235.129 171.629 234.991 171.608C234.852 171.587 234.783 171.528 234.783 171.432V170.808C234.783 170.733 234.809 170.68 234.863 170.648C234.927 170.616 235.049 170.6 235.231 170.6H236.239C236.495 170.6 236.729 170.504 236.943 170.312C237.156 170.131 237.321 169.901 237.439 169.624C237.567 169.347 237.631 169.08 237.631 168.824C237.631 168.664 237.609 168.536 237.567 168.44L234.511 160.792C234.5 160.771 234.495 160.739 234.495 160.696C234.495 160.579 234.559 160.52 234.687 160.52H235.679C235.796 160.52 235.881 160.579 235.935 160.696L238.319 166.904C238.351 167 238.393 167.048 238.447 167.048C238.511 167.048 238.564 166.984 238.607 166.856L240.959 160.696C241.012 160.579 241.087 160.52 241.183 160.52H241.935C241.999 160.52 242.047 160.547 242.079 160.6C242.111 160.643 242.116 160.691 242.095 160.744L238.575 169.752C238.287 170.477 237.929 170.973 237.503 171.24C237.076 171.507 236.495 171.64 235.759 171.64ZM247.331 169.16C246.531 169.16 245.822 168.979 245.203 168.616C244.595 168.243 244.12 167.725 243.779 167.064C243.448 166.403 243.283 165.651 243.283 164.808C243.283 163.944 243.454 163.176 243.795 162.504C244.147 161.832 244.627 161.309 245.235 160.936C245.854 160.552 246.558 160.36 247.347 160.36C248.136 160.36 248.835 160.552 249.443 160.936C250.062 161.309 250.536 161.832 250.867 162.504C251.208 163.176 251.379 163.939 251.379 164.792C251.379 165.635 251.208 166.387 250.867 167.048C250.526 167.709 250.046 168.227 249.427 168.6C248.819 168.973 248.12 169.16 247.331 169.16ZM247.363 168.152C248.195 168.152 248.84 167.853 249.299 167.256C249.768 166.648 250.003 165.816 250.003 164.76C250.003 163.715 249.763 162.888 249.283 162.28C248.814 161.661 248.168 161.352 247.347 161.352C246.515 161.352 245.859 161.661 245.379 162.28C244.899 162.888 244.659 163.715 244.659 164.76C244.659 165.805 244.899 166.632 245.379 167.24C245.859 167.848 246.52 168.152 247.363 168.152ZM256.237 168.104C256.674 168.104 257.101 167.987 257.517 167.752C257.944 167.507 258.376 167.16 258.813 166.712V160.744C258.813 160.595 258.898 160.52 259.069 160.52H259.949C260.098 160.52 260.173 160.595 260.173 160.744L260.141 168.792C260.141 168.931 260.082 169 259.965 169H259.037C258.92 169 258.861 168.941 258.861 168.824V167.88C258.861 167.752 258.813 167.736 258.717 167.832C258.141 168.323 257.629 168.669 257.181 168.872C256.733 169.064 256.274 169.16 255.805 169.16C255.058 169.16 254.445 168.936 253.965 168.488C253.485 168.04 253.245 167.448 253.245 166.712V160.76C253.245 160.6 253.325 160.52 253.485 160.52H254.381C254.52 160.52 254.589 160.595 254.589 160.744V166.36C254.589 166.893 254.733 167.32 255.021 167.64C255.32 167.949 255.725 168.104 256.237 168.104ZM262.847 169C262.697 169 262.623 168.931 262.623 168.792V160.728C262.623 160.589 262.681 160.52 262.799 160.52H263.727C263.844 160.52 263.903 160.579 263.903 160.696V161.736C263.903 161.8 263.919 161.837 263.951 161.848C263.993 161.859 264.036 161.837 264.079 161.784C264.889 160.835 265.716 160.36 266.559 160.36C266.932 160.36 267.119 160.429 267.119 160.568V161.528C267.119 161.635 267.071 161.677 266.975 161.656C266.783 161.624 266.543 161.608 266.255 161.608C265.945 161.608 265.609 161.699 265.247 161.88C264.884 162.061 264.58 162.296 264.335 162.584C264.089 162.872 263.967 163.165 263.967 163.464V168.76C263.967 168.92 263.887 169 263.727 169H262.847ZM143.325 188C143.261 188 143.213 187.979 143.181 187.936C143.149 187.883 143.149 187.813 143.181 187.728L147.325 176.352C147.357 176.267 147.395 176.208 147.437 176.176C147.48 176.144 147.549 176.128 147.645 176.128H148.893C149.096 176.128 149.219 176.208 149.261 176.368L153.357 187.728L153.373 187.808C153.373 187.936 153.315 188 153.197 188H152.061C151.933 188 151.848 187.947 151.805 187.84L150.701 184.736C150.68 184.693 150.659 184.661 150.637 184.64C150.616 184.619 150.573 184.608 150.509 184.608H145.853C145.757 184.608 145.693 184.651 145.661 184.736L144.525 187.856C144.493 187.952 144.413 188 144.285 188H143.325ZM150.093 183.392C150.211 183.392 150.253 183.323 150.221 183.184L148.301 177.92C148.269 177.824 148.232 177.776 148.189 177.776C148.147 177.776 148.109 177.824 148.077 177.92L146.125 183.216L146.093 183.312C146.093 183.365 146.136 183.392 146.221 183.392H150.093ZM155.526 188C155.377 188 155.302 187.931 155.302 187.792V179.728C155.302 179.589 155.361 179.52 155.478 179.52H156.438C156.556 179.52 156.614 179.579 156.614 179.696V180.624C156.614 180.741 156.662 180.757 156.758 180.672C157.356 180.203 157.862 179.867 158.278 179.664C158.705 179.461 159.18 179.36 159.702 179.36C160.513 179.36 161.142 179.579 161.59 180.016C162.049 180.453 162.278 181.04 162.278 181.776V187.744C162.278 187.915 162.198 188 162.038 188H161.142C161.004 188 160.934 187.931 160.934 187.792V182.08C160.934 181.547 160.796 181.136 160.518 180.848C160.252 180.56 159.836 180.416 159.27 180.416C158.822 180.416 158.406 180.517 158.022 180.72C157.649 180.912 157.19 181.243 156.646 181.712V187.76C156.646 187.845 156.625 187.909 156.582 187.952C156.55 187.984 156.492 188 156.406 188H155.526ZM164.87 188C164.721 188 164.646 187.931 164.646 187.792V179.728C164.646 179.589 164.705 179.52 164.822 179.52H165.782C165.899 179.52 165.958 179.579 165.958 179.696V180.624C165.958 180.741 166.006 180.757 166.102 180.672C166.699 180.203 167.206 179.867 167.622 179.664C168.049 179.461 168.523 179.36 169.046 179.36C169.857 179.36 170.486 179.579 170.934 180.016C171.393 180.453 171.622 181.04 171.622 181.776V187.744C171.622 187.915 171.542 188 171.382 188H170.486C170.347 188 170.278 187.931 170.278 187.792V182.08C170.278 181.547 170.139 181.136 169.862 180.848C169.595 180.56 169.179 180.416 168.614 180.416C168.166 180.416 167.75 180.517 167.366 180.72C166.993 180.912 166.534 181.243 165.99 181.712V187.76C165.99 187.845 165.969 187.909 165.926 187.952C165.894 187.984 165.835 188 165.75 188H164.87ZM176.87 187.104C177.307 187.104 177.734 186.987 178.15 186.752C178.576 186.507 179.008 186.16 179.446 185.712V179.744C179.446 179.595 179.531 179.52 179.702 179.52H180.582C180.731 179.52 180.806 179.595 180.806 179.744L180.774 187.792C180.774 187.931 180.715 188 180.598 188H179.67C179.552 188 179.494 187.941 179.494 187.824V186.88C179.494 186.752 179.446 186.736 179.35 186.832C178.774 187.323 178.262 187.669 177.814 187.872C177.366 188.064 176.907 188.16 176.438 188.16C175.691 188.16 175.078 187.936 174.598 187.488C174.118 187.04 173.878 186.448 173.878 185.712V179.76C173.878 179.6 173.958 179.52 174.118 179.52H175.014C175.152 179.52 175.222 179.595 175.222 179.744V185.36C175.222 185.893 175.366 186.32 175.654 186.64C175.952 186.949 176.358 187.104 176.87 187.104ZM188.183 186.976C187.362 187.765 186.413 188.16 185.335 188.16C184.503 188.16 183.847 187.952 183.367 187.536C182.898 187.109 182.663 186.544 182.663 185.84C182.663 184.987 183.021 184.315 183.735 183.824C184.461 183.333 185.506 183.045 186.871 182.96L188.119 182.864C188.301 182.843 188.391 182.763 188.391 182.624V182.192C188.391 181.616 188.21 181.163 187.847 180.832C187.495 180.491 187.015 180.32 186.407 180.32C185.469 180.32 184.701 180.747 184.103 181.6C184.071 181.653 184.039 181.691 184.007 181.712C183.975 181.723 183.933 181.717 183.879 181.696L183.015 181.408C182.962 181.387 182.935 181.349 182.935 181.296C182.935 181.264 182.951 181.216 182.983 181.152C183.303 180.587 183.757 180.149 184.343 179.84C184.941 179.52 185.645 179.36 186.455 179.36C187.501 179.36 188.301 179.605 188.855 180.096C189.41 180.576 189.687 181.243 189.687 182.096V187.76C189.687 187.856 189.671 187.92 189.639 187.952C189.607 187.984 189.549 188 189.463 188H188.663C188.535 188 188.461 187.915 188.439 187.744L188.407 187.008C188.397 186.933 188.37 186.896 188.327 186.896C188.285 186.896 188.237 186.923 188.183 186.976ZM188.391 183.936C188.391 183.765 188.311 183.68 188.151 183.68L187.111 183.776C186.119 183.84 185.351 184.032 184.807 184.352C184.274 184.672 184.007 185.115 184.007 185.68C184.007 186.139 184.167 186.501 184.487 186.768C184.818 187.035 185.255 187.168 185.799 187.168C186.13 187.168 186.455 187.109 186.775 186.992C187.095 186.875 187.378 186.715 187.623 186.512C187.869 186.32 188.055 186.117 188.183 185.904C188.322 185.68 188.391 185.467 188.391 185.264V183.936ZM193.381 187.728C193.381 187.835 193.36 187.909 193.317 187.952C193.274 187.984 193.2 188 193.093 188H192.261C192.165 188 192.101 187.984 192.069 187.952C192.037 187.92 192.021 187.861 192.021 187.776L192.037 176.352C192.037 176.203 192.101 176.128 192.229 176.128H193.189C193.317 176.128 193.381 176.197 193.381 176.336V187.728ZM208.231 179.584C208.231 180.725 207.847 181.589 207.079 182.176C206.321 182.752 205.297 183.04 204.007 183.04H201.287C201.191 183.04 201.143 183.088 201.143 183.184V187.76C201.143 187.92 201.063 188 200.903 188H199.815C199.676 188 199.607 187.931 199.607 187.792V176.352C199.607 176.267 199.617 176.208 199.639 176.176C199.671 176.144 199.724 176.128 199.799 176.128H203.831C205.164 176.128 206.231 176.416 207.031 176.992C207.831 177.557 208.231 178.421 208.231 179.584ZM206.663 179.536C206.663 178.747 206.412 178.176 205.911 177.824C205.409 177.472 204.689 177.296 203.751 177.296H201.351C201.212 177.296 201.143 177.36 201.143 177.488V181.648C201.143 181.733 201.153 181.792 201.175 181.824C201.196 181.856 201.233 181.872 201.287 181.872H203.863C204.737 181.872 205.42 181.68 205.911 181.296C206.412 180.901 206.663 180.315 206.663 179.536ZM210.401 184.288C210.401 184.8 210.524 185.275 210.769 185.712C211.025 186.149 211.367 186.496 211.793 186.752C212.22 187.008 212.689 187.136 213.201 187.136C214.268 187.136 215.1 186.693 215.697 185.808C215.74 185.765 215.777 185.744 215.809 185.744C215.841 185.733 215.879 185.739 215.921 185.76L216.593 186.096C216.679 186.149 216.689 186.224 216.625 186.32C216.209 186.96 215.713 187.429 215.137 187.728C214.561 188.016 213.873 188.16 213.073 188.16C212.295 188.16 211.596 187.979 210.977 187.616C210.359 187.253 209.873 186.747 209.521 186.096C209.18 185.435 209.009 184.683 209.009 183.84C209.009 182.933 209.185 182.144 209.537 181.472C209.889 180.789 210.369 180.267 210.977 179.904C211.596 179.541 212.289 179.36 213.057 179.36C213.825 179.36 214.497 179.531 215.073 179.872C215.66 180.213 216.113 180.715 216.433 181.376C216.753 182.027 216.913 182.8 216.913 183.696V183.76C216.913 183.856 216.897 183.931 216.865 183.984C216.833 184.027 216.769 184.048 216.673 184.048H210.545C210.449 184.048 210.401 184.128 210.401 184.288ZM215.297 183.168C215.415 183.168 215.489 183.157 215.521 183.136C215.553 183.104 215.569 183.04 215.569 182.944C215.569 182.475 215.468 182.043 215.265 181.648C215.073 181.243 214.785 180.923 214.401 180.688C214.028 180.443 213.591 180.32 213.089 180.32C212.545 180.32 212.071 180.459 211.665 180.736C211.26 181.003 210.951 181.355 210.737 181.792C210.524 182.219 210.423 182.677 210.433 183.168H215.297ZM219.026 188C218.877 188 218.802 187.931 218.802 187.792V179.728C218.802 179.589 218.861 179.52 218.978 179.52H219.906C220.024 179.52 220.082 179.579 220.082 179.696V180.736C220.082 180.8 220.098 180.837 220.13 180.848C220.173 180.859 220.216 180.837 220.258 180.784C221.069 179.835 221.896 179.36 222.738 179.36C223.112 179.36 223.298 179.429 223.298 179.568V180.528C223.298 180.635 223.25 180.677 223.154 180.656C222.962 180.624 222.722 180.608 222.434 180.608C222.125 180.608 221.789 180.699 221.426 180.88C221.064 181.061 220.76 181.296 220.514 181.584C220.269 181.872 220.146 182.165 220.146 182.464V187.76C220.146 187.92 220.066 188 219.906 188H219.026ZM228.244 179.36C229.023 179.36 229.684 179.541 230.228 179.904C230.783 180.267 231.226 180.747 231.556 181.344L231.588 181.472C231.588 181.536 231.551 181.573 231.476 181.584L230.596 181.792L230.548 181.808C230.495 181.808 230.442 181.765 230.388 181.68C230.047 181.221 229.716 180.885 229.396 180.672C229.087 180.459 228.73 180.352 228.324 180.352C227.492 180.352 226.831 180.661 226.34 181.28C225.85 181.888 225.604 182.715 225.604 183.76C225.604 184.816 225.85 185.648 226.34 186.256C226.842 186.864 227.514 187.168 228.356 187.168C228.858 187.168 229.295 187.045 229.668 186.8C230.052 186.555 230.399 186.176 230.708 185.664C230.74 185.611 230.772 185.584 230.804 185.584C230.836 185.573 230.874 185.579 230.916 185.6L231.604 185.856C231.679 185.888 231.7 185.957 231.668 186.064C231.338 186.683 230.884 187.189 230.308 187.584C229.732 187.968 229.044 188.16 228.244 188.16C227.466 188.16 226.772 187.979 226.164 187.616C225.556 187.243 225.082 186.725 224.74 186.064C224.399 185.403 224.228 184.645 224.228 183.792C224.228 182.939 224.399 182.176 224.74 181.504C225.082 180.821 225.556 180.293 226.164 179.92C226.783 179.547 227.476 179.36 228.244 179.36ZM234.292 184.288C234.292 184.8 234.415 185.275 234.66 185.712C234.916 186.149 235.257 186.496 235.684 186.752C236.111 187.008 236.58 187.136 237.092 187.136C238.159 187.136 238.991 186.693 239.588 185.808C239.631 185.765 239.668 185.744 239.7 185.744C239.732 185.733 239.769 185.739 239.812 185.76L240.484 186.096C240.569 186.149 240.58 186.224 240.516 186.32C240.1 186.96 239.604 187.429 239.028 187.728C238.452 188.016 237.764 188.16 236.964 188.16C236.185 188.16 235.487 187.979 234.868 187.616C234.249 187.253 233.764 186.747 233.412 186.096C233.071 185.435 232.9 184.683 232.9 183.84C232.9 182.933 233.076 182.144 233.428 181.472C233.78 180.789 234.26 180.267 234.868 179.904C235.487 179.541 236.18 179.36 236.948 179.36C237.716 179.36 238.388 179.531 238.964 179.872C239.551 180.213 240.004 180.715 240.324 181.376C240.644 182.027 240.804 182.8 240.804 183.696V183.76C240.804 183.856 240.788 183.931 240.756 183.984C240.724 184.027 240.66 184.048 240.564 184.048H234.436C234.34 184.048 234.292 184.128 234.292 184.288ZM239.188 183.168C239.305 183.168 239.38 183.157 239.412 183.136C239.444 183.104 239.46 183.04 239.46 182.944C239.46 182.475 239.359 182.043 239.156 181.648C238.964 181.243 238.676 180.923 238.292 180.688C237.919 180.443 237.481 180.32 236.98 180.32C236.436 180.32 235.961 180.459 235.556 180.736C235.151 181.003 234.841 181.355 234.628 181.792C234.415 182.219 234.313 182.677 234.324 183.168H239.188ZM242.917 188C242.768 188 242.693 187.931 242.693 187.792V179.728C242.693 179.589 242.752 179.52 242.869 179.52H243.829C243.946 179.52 244.005 179.579 244.005 179.696V180.624C244.005 180.741 244.053 180.757 244.149 180.672C244.746 180.203 245.253 179.867 245.669 179.664C246.096 179.461 246.57 179.36 247.093 179.36C247.904 179.36 248.533 179.579 248.981 180.016C249.44 180.453 249.669 181.04 249.669 181.776V187.744C249.669 187.915 249.589 188 249.429 188H248.533C248.394 188 248.325 187.931 248.325 187.792V182.08C248.325 181.547 248.186 181.136 247.909 180.848C247.642 180.56 247.226 180.416 246.661 180.416C246.213 180.416 245.797 180.517 245.413 180.72C245.04 180.912 244.581 181.243 244.037 181.712V187.76C244.037 187.845 244.016 187.909 243.973 187.952C243.941 187.984 243.882 188 243.797 188H242.917ZM254.277 180.512C254.191 180.512 254.149 180.56 254.149 180.656V185.728C254.149 186.208 254.229 186.539 254.389 186.72C254.549 186.901 254.81 186.992 255.173 186.992H256.277C256.394 186.992 256.453 187.051 256.453 187.168L256.437 187.712C256.437 187.819 256.373 187.888 256.245 187.92C255.967 187.973 255.466 188 254.741 188C254.069 188 253.578 187.845 253.269 187.536C252.959 187.216 252.805 186.715 252.805 186.032V180.688C252.805 180.571 252.751 180.512 252.645 180.512H251.365C251.247 180.512 251.189 180.459 251.189 180.352V179.68C251.189 179.573 251.242 179.52 251.349 179.52H252.709C252.783 179.52 252.821 179.477 252.821 179.392L252.997 176.848C252.997 176.709 253.055 176.64 253.173 176.64H253.973C254.101 176.64 254.165 176.715 254.165 176.864V179.392C254.165 179.477 254.207 179.52 254.293 179.52H256.309C256.426 179.52 256.485 179.568 256.485 179.664V180.352C256.485 180.459 256.426 180.512 256.309 180.512H254.277ZM263.152 186.976C262.331 187.765 261.382 188.16 260.304 188.16C259.472 188.16 258.816 187.952 258.336 187.536C257.867 187.109 257.632 186.544 257.632 185.84C257.632 184.987 257.99 184.315 258.704 183.824C259.43 183.333 260.475 183.045 261.84 182.96L263.088 182.864C263.27 182.843 263.36 182.763 263.36 182.624V182.192C263.36 181.616 263.179 181.163 262.816 180.832C262.464 180.491 261.984 180.32 261.376 180.32C260.438 180.32 259.67 180.747 259.072 181.6C259.04 181.653 259.008 181.691 258.976 181.712C258.944 181.723 258.902 181.717 258.848 181.696L257.984 181.408C257.931 181.387 257.904 181.349 257.904 181.296C257.904 181.264 257.92 181.216 257.952 181.152C258.272 180.587 258.726 180.149 259.312 179.84C259.91 179.52 260.614 179.36 261.424 179.36C262.47 179.36 263.27 179.605 263.824 180.096C264.379 180.576 264.656 181.243 264.656 182.096V187.76C264.656 187.856 264.64 187.92 264.608 187.952C264.576 187.984 264.518 188 264.432 188H263.632C263.504 188 263.43 187.915 263.408 187.744L263.376 187.008C263.366 186.933 263.339 186.896 263.296 186.896C263.254 186.896 263.206 186.923 263.152 186.976ZM263.36 183.936C263.36 183.765 263.28 183.68 263.12 183.68L262.08 183.776C261.088 183.84 260.32 184.032 259.776 184.352C259.243 184.672 258.976 185.115 258.976 185.68C258.976 186.139 259.136 186.501 259.456 186.768C259.787 187.035 260.224 187.168 260.768 187.168C261.099 187.168 261.424 187.109 261.744 186.992C262.064 186.875 262.347 186.715 262.592 186.512C262.838 186.32 263.024 186.117 263.152 185.904C263.291 185.68 263.36 185.467 263.36 185.264V183.936ZM274.654 179.376C274.856 179.376 274.958 179.461 274.958 179.632V180.192C274.958 180.299 274.931 180.379 274.878 180.432C274.835 180.475 274.755 180.491 274.638 180.48C274.286 180.48 274.008 180.528 273.806 180.624C273.55 180.731 273.443 180.853 273.486 180.992C273.496 181.035 273.528 181.115 273.582 181.232C273.635 181.349 273.678 181.483 273.71 181.632C273.742 181.771 273.758 181.92 273.758 182.08C273.758 182.837 273.459 183.456 272.862 183.936C272.275 184.416 271.416 184.656 270.286 184.656C269.528 184.656 268.984 184.72 268.654 184.848C268.323 184.976 268.158 185.141 268.158 185.344C268.158 185.504 268.27 185.627 268.494 185.712C268.718 185.787 269.091 185.84 269.614 185.872L271.678 185.984C272.595 186.037 273.278 186.256 273.726 186.64C274.174 187.024 274.398 187.547 274.398 188.208C274.398 189.019 274.04 189.653 273.326 190.112C272.622 190.571 271.614 190.8 270.302 190.8C268.947 190.8 267.912 190.603 267.198 190.208C266.494 189.824 266.142 189.269 266.142 188.544C266.142 187.829 266.643 187.227 267.646 186.736C267.763 186.683 267.763 186.624 267.646 186.56C267.155 186.347 266.91 186.032 266.91 185.616C266.91 185.381 267.016 185.157 267.23 184.944C267.454 184.731 267.768 184.555 268.174 184.416C268.227 184.405 268.254 184.379 268.254 184.336C268.254 184.283 268.227 184.245 268.174 184.224C267.704 183.979 267.358 183.685 267.134 183.344C266.91 182.992 266.798 182.571 266.798 182.08C266.798 181.248 267.112 180.592 267.742 180.112C268.371 179.632 269.262 179.392 270.414 179.392C271.427 179.392 272.227 179.632 272.814 180.112C272.888 180.165 272.942 180.192 272.974 180.192C273.016 180.192 273.075 180.165 273.15 180.112C273.352 179.909 273.587 179.739 273.854 179.6C274.131 179.451 274.398 179.376 274.654 179.376ZM270.286 183.808C271.022 183.808 271.571 183.659 271.934 183.36C272.307 183.061 272.494 182.629 272.494 182.064C272.494 181.488 272.307 181.04 271.934 180.72C271.56 180.4 271.011 180.24 270.286 180.24C269.582 180.24 269.032 180.405 268.638 180.736C268.243 181.056 268.046 181.499 268.046 182.064C268.046 182.619 268.238 183.051 268.622 183.36C269.016 183.659 269.571 183.808 270.286 183.808ZM268.878 186.96C268.686 186.949 268.467 187.008 268.222 187.136C267.976 187.253 267.768 187.424 267.598 187.648C267.427 187.872 267.342 188.117 267.342 188.384C267.342 188.896 267.603 189.285 268.126 189.552C268.648 189.829 269.422 189.968 270.446 189.968C272.248 189.968 273.15 189.435 273.15 188.368C273.15 187.995 273.022 187.701 272.766 187.488C272.52 187.275 272.115 187.152 271.55 187.12L268.878 186.96ZM277.386 184.288C277.386 184.8 277.508 185.275 277.754 185.712C278.01 186.149 278.351 186.496 278.778 186.752C279.204 187.008 279.674 187.136 280.186 187.136C281.252 187.136 282.084 186.693 282.682 185.808C282.724 185.765 282.762 185.744 282.794 185.744C282.826 185.733 282.863 185.739 282.906 185.76L283.578 186.096C283.663 186.149 283.674 186.224 283.61 186.32C283.194 186.96 282.698 187.429 282.122 187.728C281.546 188.016 280.858 188.16 280.058 188.16C279.279 188.16 278.58 187.979 277.962 187.616C277.343 187.253 276.858 186.747 276.506 186.096C276.164 185.435 275.994 184.683 275.994 183.84C275.994 182.933 276.17 182.144 276.522 181.472C276.874 180.789 277.354 180.267 277.962 179.904C278.58 179.541 279.274 179.36 280.042 179.36C280.81 179.36 281.482 179.531 282.058 179.872C282.644 180.213 283.098 180.715 283.418 181.376C283.738 182.027 283.898 182.8 283.898 183.696V183.76C283.898 183.856 283.882 183.931 283.85 183.984C283.818 184.027 283.754 184.048 283.658 184.048H277.53C277.434 184.048 277.386 184.128 277.386 184.288ZM282.282 183.168C282.399 183.168 282.474 183.157 282.506 183.136C282.538 183.104 282.554 183.04 282.554 182.944C282.554 182.475 282.452 182.043 282.25 181.648C282.058 181.243 281.77 180.923 281.386 180.688C281.012 180.443 280.575 180.32 280.074 180.32C279.53 180.32 279.055 180.459 278.65 180.736C278.244 181.003 277.935 181.355 277.722 181.792C277.508 182.219 277.407 182.677 277.418 183.168H282.282ZM197.884 206.696C197.894 206.717 197.9 206.755 197.9 206.808C197.9 206.936 197.836 207 197.708 207H196.54C196.422 207 196.337 206.936 196.284 206.808L194.22 201.768C194.188 201.704 194.145 201.656 194.092 201.624C194.038 201.592 193.953 201.576 193.836 201.576H191.132C191.004 201.576 190.94 201.635 190.94 201.752V206.744C190.94 206.84 190.918 206.909 190.876 206.952C190.844 206.984 190.774 207 190.668 207H189.628C189.542 207 189.484 206.984 189.452 206.952C189.42 206.92 189.404 206.867 189.404 206.792V195.352C189.404 195.267 189.414 195.208 189.436 195.176C189.468 195.144 189.521 195.128 189.596 195.128H194.06C195.329 195.128 196.31 195.389 197.004 195.912C197.697 196.435 198.044 197.197 198.044 198.2C198.044 199.043 197.814 199.725 197.356 200.248C196.908 200.76 196.358 201.112 195.708 201.304C195.665 201.315 195.638 201.336 195.628 201.368C195.617 201.4 195.622 201.432 195.644 201.464L197.884 206.696ZM193.612 200.472C194.561 200.472 195.27 200.301 195.74 199.96C196.209 199.619 196.444 199.08 196.444 198.344C196.444 197.651 196.236 197.128 195.82 196.776C195.404 196.424 194.79 196.248 193.98 196.248H191.164C191.014 196.248 190.94 196.307 190.94 196.424V200.264C190.94 200.403 190.988 200.472 191.084 200.472H193.612ZM201.12 203.288C201.12 203.8 201.243 204.275 201.488 204.712C201.744 205.149 202.086 205.496 202.512 205.752C202.939 206.008 203.408 206.136 203.92 206.136C204.987 206.136 205.819 205.693 206.416 204.808C206.459 204.765 206.496 204.744 206.528 204.744C206.56 204.733 206.598 204.739 206.64 204.76L207.312 205.096C207.398 205.149 207.408 205.224 207.344 205.32C206.928 205.96 206.432 206.429 205.856 206.728C205.28 207.016 204.592 207.16 203.792 207.16C203.014 207.16 202.315 206.979 201.696 206.616C201.078 206.253 200.592 205.747 200.24 205.096C199.899 204.435 199.728 203.683 199.728 202.84C199.728 201.933 199.904 201.144 200.256 200.472C200.608 199.789 201.088 199.267 201.696 198.904C202.315 198.541 203.008 198.36 203.776 198.36C204.544 198.36 205.216 198.531 205.792 198.872C206.379 199.213 206.832 199.715 207.152 200.376C207.472 201.027 207.632 201.8 207.632 202.696V202.76C207.632 202.856 207.616 202.931 207.584 202.984C207.552 203.027 207.488 203.048 207.392 203.048H201.264C201.168 203.048 201.12 203.128 201.12 203.288ZM206.016 202.168C206.134 202.168 206.208 202.157 206.24 202.136C206.272 202.104 206.288 202.04 206.288 201.944C206.288 201.475 206.187 201.043 205.984 200.648C205.792 200.243 205.504 199.923 205.12 199.688C204.747 199.443 204.31 199.32 203.808 199.32C203.264 199.32 202.79 199.459 202.384 199.736C201.979 200.003 201.67 200.355 201.456 200.792C201.243 201.219 201.142 201.677 201.152 202.168H206.016ZM211.699 199.512C211.613 199.512 211.571 199.56 211.571 199.656V204.728C211.571 205.208 211.651 205.539 211.811 205.72C211.971 205.901 212.232 205.992 212.595 205.992H213.699C213.816 205.992 213.875 206.051 213.875 206.168L213.859 206.712C213.859 206.819 213.795 206.888 213.667 206.92C213.389 206.973 212.888 207 212.163 207C211.491 207 211 206.845 210.691 206.536C210.381 206.216 210.227 205.715 210.227 205.032V199.688C210.227 199.571 210.173 199.512 210.067 199.512H208.787C208.669 199.512 208.611 199.459 208.611 199.352V198.68C208.611 198.573 208.664 198.52 208.771 198.52H210.131C210.205 198.52 210.243 198.477 210.243 198.392L210.419 195.848C210.419 195.709 210.477 195.64 210.595 195.64H211.395C211.523 195.64 211.587 195.715 211.587 195.864V198.392C211.587 198.477 211.629 198.52 211.715 198.52H213.731C213.848 198.52 213.907 198.568 213.907 198.664V199.352C213.907 199.459 213.848 199.512 213.731 199.512H211.699ZM218.526 206.104C218.963 206.104 219.39 205.987 219.806 205.752C220.233 205.507 220.665 205.16 221.102 204.712V198.744C221.102 198.595 221.187 198.52 221.358 198.52H222.238C222.387 198.52 222.462 198.595 222.462 198.744L222.43 206.792C222.43 206.931 222.371 207 222.254 207H221.326C221.209 207 221.15 206.941 221.15 206.824V205.88C221.15 205.752 221.102 205.736 221.006 205.832C220.43 206.323 219.918 206.669 219.47 206.872C219.022 207.064 218.563 207.16 218.094 207.16C217.347 207.16 216.734 206.936 216.254 206.488C215.774 206.04 215.534 205.448 215.534 204.712V198.76C215.534 198.6 215.614 198.52 215.774 198.52H216.67C216.809 198.52 216.878 198.595 216.878 198.744V204.36C216.878 204.893 217.022 205.32 217.31 205.64C217.609 205.949 218.014 206.104 218.526 206.104ZM225.136 207C224.986 207 224.912 206.931 224.912 206.792V198.728C224.912 198.589 224.97 198.52 225.088 198.52H226.016C226.133 198.52 226.192 198.579 226.192 198.696V199.736C226.192 199.8 226.208 199.837 226.24 199.848C226.282 199.859 226.325 199.837 226.368 199.784C227.178 198.835 228.005 198.36 228.848 198.36C229.221 198.36 229.408 198.429 229.408 198.568V199.528C229.408 199.635 229.36 199.677 229.264 199.656C229.072 199.624 228.832 199.608 228.544 199.608C228.234 199.608 227.898 199.699 227.536 199.88C227.173 200.061 226.869 200.296 226.624 200.584C226.378 200.872 226.256 201.165 226.256 201.464V206.76C226.256 206.92 226.176 207 226.016 207H225.136ZM231.261 207C231.111 207 231.037 206.931 231.037 206.792V198.728C231.037 198.589 231.095 198.52 231.213 198.52H232.173C232.29 198.52 232.349 198.579 232.349 198.696V199.624C232.349 199.741 232.397 199.757 232.493 199.672C233.09 199.203 233.597 198.867 234.013 198.664C234.439 198.461 234.914 198.36 235.437 198.36C236.247 198.36 236.877 198.579 237.325 199.016C237.783 199.453 238.013 200.04 238.013 200.776V206.744C238.013 206.915 237.933 207 237.773 207H236.877C236.738 207 236.669 206.931 236.669 206.792V201.08C236.669 200.547 236.53 200.136 236.253 199.848C235.986 199.56 235.57 199.416 235.005 199.416C234.557 199.416 234.141 199.517 233.757 199.72C233.383 199.912 232.925 200.243 232.381 200.712V206.76C232.381 206.845 232.359 206.909 232.317 206.952C232.285 206.984 232.226 207 232.141 207H231.261Z" fill="white"/>
<circle cx="356" cy="177" r="14.5" fill="#21272D" stroke="#12B2FF"/>
<path d="M355.624 178.024C356.541 177.16 357.176 176.461 357.528 175.928C357.88 175.384 358.056 174.824 358.056 174.248C358.056 173.597 357.821 173.091 357.352 172.728C356.883 172.355 356.328 172.168 355.688 172.168C355.187 172.168 354.691 172.296 354.2 172.552C353.709 172.808 353.293 173.208 352.952 173.752C352.92 173.805 352.867 173.832 352.792 173.832C352.749 173.832 352.696 173.816 352.632 173.784L351.928 173.368C351.843 173.315 351.8 173.251 351.8 173.176C351.8 173.123 351.821 173.069 351.864 173.016C352.333 172.333 352.909 171.821 353.592 171.48C354.285 171.139 355.027 170.968 355.816 170.968C356.499 170.968 357.123 171.096 357.688 171.352C358.253 171.597 358.701 171.971 359.032 172.472C359.373 172.973 359.544 173.581 359.544 174.296C359.544 174.989 359.352 175.635 358.968 176.232C358.595 176.829 357.928 177.581 356.968 178.488L353.752 181.512C353.699 181.544 353.672 181.581 353.672 181.624C353.672 181.677 353.731 181.704 353.848 181.704H359.464C359.539 181.704 359.592 181.72 359.624 181.752C359.656 181.773 359.672 181.816 359.672 181.88V182.808C359.672 182.936 359.603 183 359.464 183H352.04C351.944 183 351.875 182.984 351.832 182.952C351.8 182.909 351.784 182.84 351.784 182.744V182.088C351.784 181.971 351.811 181.869 351.864 181.784C351.917 181.699 352.035 181.576 352.216 181.416L355.624 178.024Z" fill="#12B2FF"/>
<circle cx="236" cy="275" r="1" fill="#12B2FF"/>
<circle cx="235" cy="282" r="1" fill="#12B2FF"/>
<circle cx="233" cy="289" r="1" fill="#12B2FF"/>
<circle cx="230" cy="296" r="1" fill="#12B2FF"/>
<circle cx="226" cy="302" r="1" fill="#12B2FF"/>
<circle cx="232" cy="262" r="1" fill="#12B2FF"/>
<circle cx="235" cy="268" r="1" fill="#12B2FF"/>
<circle cx="221" cy="308" r="1" fill="#12B2FF"/>
<circle cx="187" cy="80" r="1" transform="rotate(-180 187 80)" fill="#12B2FF"/>
<circle cx="188" cy="73" r="1" transform="rotate(-180 188 73)" fill="#12B2FF"/>
<circle cx="190" cy="66" r="1" transform="rotate(-180 190 66)" fill="#12B2FF"/>
<circle cx="193" cy="59" r="1" transform="rotate(-180 193 59)" fill="#12B2FF"/>
<circle cx="197" cy="53" r="1" transform="rotate(-180 197 53)" fill="#12B2FF"/>
<circle cx="191" cy="93" r="1" transform="rotate(-180 191 93)" fill="#12B2FF"/>
<circle cx="188" cy="87" r="1" transform="rotate(-180 188 87)" fill="#12B2FF"/>
<circle cx="201" cy="48" r="1" transform="rotate(-180 201 48)" fill="#12B2FF"/>
<circle cx="310.523" cy="157.745" r="1" transform="rotate(-105 310.523 157.745)" fill="#12B2FF"/>
<circle cx="317.544" cy="156.899" r="1" transform="rotate(-105 317.544 156.899)" fill="#12B2FF"/>
<circle cx="324.822" cy="157.019" r="1" transform="rotate(-105 324.822 157.019)" fill="#12B2FF"/>
<circle cx="332.36" cy="158.105" r="1" transform="rotate(-105 332.36 158.105)" fill="#12B2FF"/>
<circle cx="339.191" cy="160.416" r="1" transform="rotate(-105 339.191 160.416)" fill="#12B2FF"/>
<circle cx="299.001" cy="164.973" r="1" transform="rotate(-105 299.001 164.973)" fill="#12B2FF"/>
<circle cx="304.02" cy="160.522" r="1" transform="rotate(-105 304.02 160.522)" fill="#12B2FF"/>
<circle cx="344.225" cy="163.225" r="1" transform="rotate(-105 344.225 163.225)" fill="#12B2FF"/>
<circle cx="116.625" cy="198.014" r="1" transform="rotate(81.8468 116.625 198.014)" fill="#12B2FF"/>
<circle cx="109.554" cy="198.017" r="1" transform="rotate(81.8468 109.554 198.017)" fill="#12B2FF"/>
<circle cx="102.341" cy="197.031" r="1" transform="rotate(81.8468 102.341 197.031)" fill="#12B2FF"/>
<circle cx="94.9864" cy="195.053" r="1" transform="rotate(81.8468 94.9864 195.053)" fill="#12B2FF"/>
<circle cx="88.4801" cy="191.945" r="1" transform="rotate(81.8468 88.4801 191.945)" fill="#12B2FF"/>
<circle cx="128.926" cy="192.211" r="1" transform="rotate(81.8468 128.926 192.211)" fill="#12B2FF"/>
<circle cx="123.412" cy="196.032" r="1" transform="rotate(81.8468 123.412 196.032)" fill="#12B2FF"/>
<circle cx="83.1319" cy="189.132" r="1" transform="rotate(81.8468 83.1319 189.132)" fill="#12B2FF"/>
<circle cx="213" cy="34" r="14.5" fill="#21272D" stroke="#12B2FF"/>
<path d="M215.592 38.784C215.709 38.784 215.768 38.8373 215.768 38.944V39.84C215.768 39.8827 215.752 39.92 215.72 39.952C215.688 39.984 215.645 40 215.592 40H209.976C209.859 40 209.8 39.9467 209.8 39.84V38.944C209.8 38.8373 209.859 38.784 209.976 38.784H211.992C212.077 38.784 212.12 38.7573 212.12 38.704V29.904C212.12 29.7867 212.072 29.744 211.976 29.776L209.992 30.512C209.981 30.512 209.971 30.5173 209.96 30.528C209.949 30.528 209.939 30.5227 209.928 30.512C209.832 30.512 209.784 30.448 209.784 30.32V29.68C209.784 29.6053 209.795 29.5573 209.816 29.536C209.837 29.504 209.88 29.472 209.944 29.44L212.312 28.256C212.493 28.1707 212.653 28.128 212.792 28.128H213.48C213.597 28.128 213.656 28.192 213.656 28.32V38.672C213.656 38.7467 213.688 38.784 213.752 38.784H215.592Z" fill="#12B2FF"/>
<circle cx="213" cy="324" r="14.5" fill="#21272D" stroke="#12B2FF"/>
<path d="M208.232 319.792C208.2 319.76 208.184 319.723 208.184 319.68C208.184 319.637 208.2 319.595 208.232 319.552C209.213 318.496 210.445 317.968 211.928 317.968C212.728 317.968 213.432 318.101 214.04 318.368C214.648 318.624 215.112 318.981 215.432 319.44C215.763 319.888 215.928 320.4 215.928 320.976C215.928 321.552 215.747 322.075 215.384 322.544C215.032 323.003 214.536 323.344 213.896 323.568C213.779 323.6 213.72 323.637 213.72 323.68C213.72 323.701 213.779 323.739 213.896 323.792C214.589 323.984 215.16 324.341 215.608 324.864C216.067 325.376 216.296 325.995 216.296 326.72C216.296 327.392 216.12 327.989 215.768 328.512C215.427 329.024 214.915 329.429 214.232 329.728C213.549 330.016 212.712 330.16 211.72 330.16C210.088 330.16 208.755 329.595 207.72 328.464C207.688 328.411 207.672 328.368 207.672 328.336C207.672 328.283 207.704 328.235 207.768 328.192L208.456 327.648C208.531 327.595 208.579 327.568 208.6 327.568C208.643 327.568 208.68 327.595 208.712 327.648C209.181 328.139 209.656 328.485 210.136 328.688C210.627 328.891 211.192 328.992 211.832 328.992C212.749 328.992 213.469 328.789 213.992 328.384C214.515 327.979 214.776 327.44 214.776 326.768C214.776 326.277 214.632 325.851 214.344 325.488C214.067 325.125 213.699 324.853 213.24 324.672C212.781 324.491 212.291 324.4 211.768 324.4L210.344 324.384C210.216 324.384 210.152 324.331 210.152 324.224V323.392C210.152 323.307 210.216 323.253 210.344 323.232L211.496 323.216C212.04 323.216 212.536 323.12 212.984 322.928C213.432 322.736 213.784 322.475 214.04 322.144C214.296 321.813 214.424 321.445 214.424 321.04C214.424 320.688 214.317 320.368 214.104 320.08C213.891 319.781 213.592 319.547 213.208 319.376C212.835 319.205 212.413 319.12 211.944 319.12C210.888 319.12 209.933 319.531 209.08 320.352C209.027 320.405 208.979 320.432 208.936 320.432C208.915 320.432 208.867 320.405 208.792 320.352L208.232 319.792Z" fill="#12B2FF"/>
<circle cx="69" cy="177" r="14.5" fill="#21272D" stroke="#12B2FF"/>
<path d="M70.176 170.288C70.24 170.224 70.2987 170.181 70.352 170.16C70.4053 170.139 70.48 170.128 70.576 170.128H71.648C71.776 170.128 71.84 170.192 71.84 170.32V177.52C71.84 177.616 71.8827 177.664 71.968 177.664H73.472C73.6213 177.664 73.696 177.717 73.696 177.824V178.608C73.696 178.747 73.6213 178.816 73.472 178.816H71.984C71.888 178.816 71.84 178.869 71.84 178.976V181.76C71.84 181.92 71.7547 182 71.584 182H70.496C70.3573 182 70.288 181.931 70.288 181.792V178.928C70.288 178.853 70.24 178.816 70.144 178.816H64.96C64.8 178.816 64.72 178.747 64.72 178.608V177.792C64.72 177.728 64.7413 177.653 64.784 177.568C64.8373 177.472 64.9013 177.371 64.976 177.264L70.176 170.288ZM70.112 177.664C70.1547 177.664 70.1867 177.653 70.208 177.632C70.24 177.611 70.256 177.584 70.256 177.552V172.208C70.256 172.08 70.2347 172.016 70.192 172.016C70.1707 172.016 70.1173 172.059 70.032 172.144L66.128 177.456C66.096 177.499 66.08 177.536 66.08 177.568C66.08 177.632 66.1333 177.664 66.24 177.664H70.112Z" fill="#12B2FF"/>
</svg>
