<?xml version="1.0" standalone="no"?>
<!DOCTYPE svg PUBLIC "-//W3C//DTD SVG 20010904//EN"
 "http://www.w3.org/TR/2001/REC-SVG-20010904/DTD/svg10.dtd">
<svg version="1.0" xmlns="http://www.w3.org/2000/svg"
 width="200" height="75" viewBox="0 0 2048.000000 562.000000"
 preserveAspectRatio="xMidYMid meet">

<g transform="translate(0.000000,562.000000) scale(0.100000,-0.100000)"
fill="#fff" stroke="none">
<path d="M2410 4183 c-201 -117 -483 -281 -882 -511 -125 -72 -172 -105 -183
-127 -14 -26 -16 -99 -13 -610 l3 -580 70 108 c97 149 121 186 370 572 120
187 235 354 253 372 86 79 249 120 441 109 63 -3 116 -8 118 -10 3 -3 -271
-450 -381 -621 -112 -174 -737 -1182 -738 -1190 -1 -5 25 -25 56 -44 49 -29
59 -32 70 -20 7 8 47 70 88 139 41 69 126 208 188 310 62 102 172 284 245 405
73 121 181 299 239 395 59 96 168 277 244 402 l137 228 253 0 c144 0 252 -4
252 -9 0 -9 -37 -73 -305 -526 -120 -203 -138 -233 -375 -635 -73 -124 -168
-286 -212 -360 -191 -322 -240 -412 -232 -420 26 -24 540 -310 558 -310 12 0
104 48 206 107 102 58 206 118 232 132 26 14 48 31 48 37 0 6 -55 96 -121 200
-67 104 -127 198 -133 208 -6 11 -15 25 -19 30 -8 11 -72 110 -151 234 -25 40
-46 75 -46 79 0 3 20 38 43 77 24 39 88 147 142 239 54 92 101 164 105 160 11
-12 192 -295 310 -483 14 -22 57 -90 96 -152 40 -62 100 -158 134 -213 87
-140 77 -133 149 -94 33 19 61 39 61 45 0 6 -61 109 -135 229 -74 120 -135
221 -135 226 0 4 -4 9 -8 11 -4 2 -17 19 -28 38 -12 19 -96 156 -188 304
l-166 268 19 27 c15 22 47 76 152 259 11 17 28 49 40 70 41 73 41 73 108 -34
34 -55 107 -169 162 -254 55 -85 127 -198 160 -250 33 -52 82 -129 109 -170
27 -41 76 -119 110 -173 34 -53 66 -100 71 -103 5 -3 9 256 9 615 l0 620 -22
25 c-13 14 -142 94 -288 177 -146 83 -323 185 -395 227 -71 41 -164 94 -205
117 -41 23 -146 83 -233 133 -132 78 -164 92 -200 92 -35 -1 -75 -21 -257
-127z" fill="#375BD2"/>
<path d="M5445 3305 c-55 -19 -76 -47 -190 -257 -54 -101 -133 -244 -173 -318
-186 -339 -233 -432 -228 -445 7 -20 204 -21 228 -2 9 6 38 53 64 102 26 50
53 93 58 97 14 10 678 10 692 0 6 -4 35 -50 64 -102 30 -52 58 -98 64 -103 6
-4 58 -6 116 -5 99 3 105 4 104 24 0 11 -45 101 -99 200 -315 572 -406 733
-434 766 -24 28 -42 39 -81 47 -68 15 -136 13 -185 -4z m195 -335 c109 -200
160 -297 160 -304 0 -3 -112 -6 -250 -6 -137 0 -250 2 -250 5 0 14 224 422
238 433 22 17 27 10 102 -128z"/>
<path d="M6993 3305 l-23 -16 0 -499 c0 -483 1 -500 19 -510 28 -14 184 -13
199 2 8 8 12 59 12 165 l0 153 243 0 243 0 113 -149 c62 -82 121 -157 131
-166 26 -23 233 -18 238 6 2 9 -53 86 -123 174 -70 86 -125 158 -123 159 2 1
26 11 53 21 66 24 127 87 146 151 9 31 14 95 14 174 0 150 -18 213 -76 271
-70 70 -85 72 -594 76 -401 4 -452 2 -472 -12z m860 -206 c42 -19 57 -59 57
-151 0 -102 -19 -141 -77 -157 -23 -7 -158 -11 -335 -11 l-298 0 0 165 0 165
315 0 c204 0 322 -4 338 -11z"/>
<path d="M8928 3309 c-17 -9 -18 -45 -18 -514 0 -497 0 -504 20 -515 14 -8
171 -10 508 -8 l487 3 55 27 c90 45 119 109 120 264 0 103 -20 170 -63 212
l-34 33 33 35 c45 47 57 99 52 219 -7 162 -54 221 -198 244 -86 14 -939 14
-962 0z m916 -220 c24 -19 26 -27 26 -90 0 -79 -16 -104 -72 -114 -18 -3 -175
-4 -348 -3 l-315 3 -3 113 -3 112 344 0 c333 0 345 -1 371 -21z m6 -395 c26
-25 37 -108 21 -157 -8 -22 -21 -39 -39 -46 -19 -8 -132 -10 -362 -9 l-335 3
-3 118 -3 118 350 -3 c338 -3 351 -4 371 -24z"/>
<path d="M10868 3309 c-17 -9 -18 -45 -18 -514 0 -488 1 -505 19 -515 28 -14
184 -13 199 2 17 17 17 1009 0 1026 -15 15 -175 16 -200 1z"/>
<path d="M11818 3309 c-15 -8 -18 -24 -18 -92 0 -45 5 -89 10 -97 8 -13 50
-15 255 -18 l245 -3 2 -412 3 -412 85 -3 c47 -2 95 0 107 3 l23 5 2 411 3 410
243 2 c203 2 244 4 252 17 5 8 10 52 10 97 0 71 -3 84 -19 93 -27 14 -1179 13
-1203 -1z"/>
<path d="M13778 3309 c-17 -9 -18 -45 -18 -518 0 -455 2 -510 16 -515 9 -3 53
-6 99 -6 117 0 115 -3 115 181 l0 149 243 0 242 -1 120 -160 c66 -88 129 -162
140 -165 11 -3 65 -4 120 -2 79 2 100 6 103 18 1 8 -54 85 -123 170 -68 85
-125 157 -125 160 0 3 23 13 50 23 71 25 115 68 140 135 19 51 21 73 18 207
-3 122 -7 157 -22 185 -44 83 -106 124 -213 140 -92 13 -883 13 -905 -1z m862
-212 c38 -19 60 -72 60 -148 0 -81 -13 -122 -48 -146 -24 -16 -57 -18 -344
-21 l-318 -3 0 165 0 166 313 0 c229 0 319 -4 337 -13z"/>
<path d="M15686 3307 c-16 -12 -17 -39 -14 -392 4 -419 7 -439 68 -522 43 -59
130 -99 240 -113 108 -13 528 -13 642 0 173 20 257 84 294 225 10 37 14 145
14 426 0 335 -2 378 -16 383 -22 9 -177 7 -191 -2 -9 -5 -13 -103 -15 -367 -3
-337 -4 -362 -23 -392 -39 -65 -56 -68 -385 -68 -431 0 -400 -35 -400 462 0
338 -1 353 -19 363 -28 15 -173 13 -195 -3z"/>
<path d="M17805 3313 c-11 -2 -30 -6 -42 -9 -13 -2 -31 -19 -40 -37 -16 -29
-18 -74 -21 -487 -2 -298 0 -465 7 -483 10 -27 12 -27 98 -27 49 0 94 4 100 8
10 6 13 104 15 413 3 395 3 404 23 404 20 0 38 -37 285 -586 82 -182 118 -224
203 -234 74 -9 161 1 199 23 50 29 56 41 321 632 59 133 78 166 95 168 l22 3
0 -403 c0 -301 3 -407 12 -416 17 -17 169 -16 192 1 16 12 17 46 14 488 -3
434 -5 477 -21 502 -24 36 -51 42 -204 42 -187 0 -165 23 -324 -345 -219 -510
-212 -495 -239 -495 -28 0 -21 -16 -291 609 -40 93 -82 180 -93 193 -12 13
-39 28 -61 33 -40 9 -211 12 -250 3z"/>
</g>
</svg>
