<svg width="1044" height="276" xmlns="http://www.w3.org/2000/svg">

 <title>coingecko_full vector (white font)</title>
 <g>
  <title>Layer 1</title>
  <g data-name="Coin Gecko Vector Text" id="Coin_Gecko_Vector_Text">
   <path id="svg_1" fill="#fff" d="m431.65865,108.39131c-2.84,-11.07 -10,-19.17 -24,-19.17c-20.66,0 -29.3,18.22 -29.3,36.71s8.64,36.72 29.3,36.72c15,0 23.22,-11.2 24.56,-25.24l16.47,0c-1.35,23.08 -17.68,39 -41,39c-28.89,0 -46.17,-22.95 -46.17,-50.49s17.22,-50.53 46.11,-50.53c21.73,0.13 38.87,12.15 40.9,32.94l-16.87,0.06z" class="cls-1"/>
   <path id="svg_2" fill="#fff" d="m458.65865,139.11131c0,-21.33 12.82,-36.71 35.23,-36.71s35.23,15.38 35.23,36.71s-12.82,36.86 -35.23,36.86s-35.23,-15.39 -35.23,-36.86zm55.07,0c0,-12 -6.07,-24.56 -19.84,-24.56s-19.84,12.55 -19.84,24.56s6.07,24.71 19.84,24.71s19.84,-12.56 19.84,-24.71z" class="cls-1"/>
   <path id="svg_3" fill="#fff" d="m542.34865,77.69131l15.39,0l0,14.58l-15.39,0l0,-14.58zm0,26.6l15.39,0l0,69.79l-15.39,0l0,-69.79z" class="cls-1"/>
   <path id="svg_4" fill="#fff" d="m574.47865,104.29131l14.58,0l0,10.26l0.27,0.27a25,25 0 0 1 21.74,-12.43c15.12,0 24.7,8.1 24.7,23.75l0,47.93l-15.39,0l0,-43.87c-0.27,-10.93 -4.59,-15.65 -13.63,-15.65c-10.26,0 -16.88,8.09 -16.88,18.35l0,41.18l-15.39,0l0,-69.79z" class="cls-1"/>
   <path id="svg_5" fill="#fff" d="m738.22865,174.08131l-10.8,0l-2.56,-11.34c-9,10.26 -17.28,13.63 -29,13.63c-28.87,0.02 -46.19,-22.98 -46.19,-50.49s17.32,-50.49 46.17,-50.49c21,0 38.74,11.2 41.3,32.94l-16.47,0c-1.62,-12.69 -12.68,-19.17 -24.83,-19.17c-20.66,0 -29.3,18.22 -29.3,36.71s8.64,36.72 29.3,36.72c17.27,0.27 26.72,-10.12 27,-26.46l-25.65,0l0,-12.81l41,0l0.03,50.76z" class="cls-1"/>
   <path id="svg_6" fill="#fff" d="m766.44865,143.16131c0,10.94 5.94,20.66 18.76,20.66c8.91,0 14.31,-3.92 17,-11.61l14.59,0c-3.37,15.25 -16.33,23.76 -31.59,23.76c-21.86,0 -34.15,-15.26 -34.15,-36.72c0,-19.85 13,-36.85 33.75,-36.85c22,0 35.5,19.84 32.94,40.76l-51.3,0zm35.91,-10.12c-0.54,-9.72 -7.16,-18.49 -17.55,-18.49c-10.67,0 -17.95,8.09 -18.36,18.49l35.91,0z" class="cls-1"/>
   <path id="svg_7" fill="#fff" d="m876.60865,127.64131c-1.22,-8.51 -7.43,-13.09 -15.93,-13.09c-8,0 -19.17,4.18 -19.17,25.37c0,11.61 5.13,23.9 18.49,23.9c8.91,0 15.12,-5.94 16.61,-15.93l15.39,0c-2.84,18.09 -14,28.08 -32,28.08c-21.87,0 -33.88,-15.53 -33.88,-36.05c0,-21.06 11.48,-37.52 34.42,-37.52c16.2,0 30,8.1 31.46,25.24l-15.39,0z" class="cls-1"/>
   <path id="svg_8" fill="#fff" d="m904.99865,77.69131l15.39,0l0,54.81l27.81,-28.21l18.9,0l-26.73,25.64l29.29,44.15l-18.8,0l-21.33,-33.89l-9.18,8.91l0,25l-15.35,0l0,-96.41z" class="cls-1"/>
   <path id="svg_9" fill="#fff" d="m973.80865,139.11131c0,-21.33 12.82,-36.71 35.23,-36.71s35.24,15.38 35.24,36.71s-12.83,36.86 -35.24,36.86s-35.23,-15.39 -35.23,-36.86zm55.08,0c0,-12 -6.08,-24.56 -19.85,-24.56s-19.84,12.55 -19.84,24.56s6.07,24.71 19.84,24.71s19.85,-12.56 19.85,-24.71z" class="cls-1"/>
  </g>
  <g stroke="null" data-name="Coin Gecko AI" id="Coin_Gecko_AI">
   <path stroke="null" id="svg_10" fill="#8dc63f" d="m272.99893,127.25309a107.5,106.72383 0 1 1 -107.96739,-106.25208a107.5,106.72383 0 0 1 107.96739,106.25208z" class="cls-2"/>
   <path stroke="null" id="svg_11" fill="#f9e988" d="m264.93643,127.29176a99.42192,98.70407 0 1 1 -99.86594,-98.25552a99.42971,98.71181 0 0 1 99.86594,98.25552z" class="cls-3"/>
   <path stroke="null" id="svg_12" fill="#fff" d="m167.32955,35.43193a54.6692,54.27448 0 0 1 19.10851,0a58.15906,57.73914 0 0 1 18.25163,6.07088c5.67101,3.09344 10.57083,7.29279 15.44728,11.2292s9.72953,7.96562 14.34891,12.37378a72.74167,72.21646 0 0 1 12.23786,14.69386a84.18496,83.57713 0 0 1 8.56884,17.14541c4.15199,12.11083 5.59312,25.15744 3.52101,37.60082l-0.6154,0c-2.07989,-12.33511 -4.89982,-24.0902 -9.34783,-35.273a138.65942,137.65827 0 0 0 -7.35362,-16.43392a162.65217,161.47779 0 0 0 -9.675,-15.41309a56.32065,55.91401 0 0 0 -12.96232,-12.99247c-5.04783,-3.57293 -10.85127,-5.88528 -16.46775,-8.08162s-11.18623,-4.47003 -17.0442,-6.14049s-11.80942,-2.9233 -18.02572,-4.13748l0.00779,-0.64189z" class="cls-1"/>
   <path stroke="null" id="svg_13" fill="#8bc53f" d="m215.93045,92.45184c-7.21341,-2.07261 -14.69167,-5.01138 -22.26341,-7.98109c-0.43623,-1.887 -2.11884,-4.23802 -5.52301,-7.10719c-4.94656,-4.26122 -14.23986,-4.15295 -22.2712,-2.26595c-8.86486,-2.07261 -17.62065,-2.8073 -26.02591,-0.77336c-68.74547,18.80041 -29.76504,64.66845 -55.00417,110.77624c3.59112,7.56347 42.29891,51.69145 98.30797,39.8513c0,0 -19.15525,-45.69791 24.07065,-67.63043c35.06214,-17.85691 60.39475,-50.89489 8.70906,-64.86953z" class="cls-4"/>
   <path stroke="null" id="svg_14" fill="#fff" d="m224.42139,122.46599a4.16757,4.13748 0 1 1 -4.19094,-4.11428a4.17536,4.14522 0 0 1 4.19094,4.11428z" class="cls-1"/>
   <path stroke="null" id="svg_15" fill="#009345" d="m165.87284,75.06669c5.00888,0.35575 23.12029,6.18689 27.7942,9.37314c-3.89493,-11.21374 -17.00525,-12.70632 -27.7942,-9.37314z" class="cls-5"/>
   <path stroke="null" id="svg_16" fill="#fff" d="m170.64023,103.42584a19.22536,19.08655 0 1 1 -19.22536,-19.07882a19.21757,19.07882 0 0 1 19.22536,19.07882z" class="cls-1"/>
   <path stroke="null" id="svg_17" fill="#58595b" d="m164.93806,103.59598a13.52319,13.42555 0 1 1 -13.52319,-13.42555a13.52319,13.42555 0 0 1 13.52319,13.42555z" class="cls-6"/>
   <path stroke="null" id="svg_18" fill="#8bc53f" d="m239.99331,130.88015c-15.57971,10.89666 -33.29384,19.16389 -58.42391,19.16389c-11.76268,0 -14.14638,-12.37378 -21.92065,-6.32609c-4.01178,3.13985 -18.15815,10.16196 -29.38333,9.62835s-29.42228,-7.06852 -34.49348,-30.85711c-2.00978,23.78859 -3.03804,41.31295 -12.03533,61.39714c17.91667,28.48289 60.63623,50.45408 99.41413,40.98814c-4.16757,-28.88504 21.25851,-57.17458 35.58406,-71.6519c5.4529,-5.48313 15.81341,-14.43092 21.25851,-22.35787l0,0.01547z" class="cls-4"/>
   <path stroke="null" id="svg_19" fill="#58595b" d="m239.38571,131.59165c-4.8375,4.37722 -10.5942,7.61761 -16.45217,10.47904a104.57102,103.81599 0 0 1 -18.46196,6.67411c-6.35652,1.63179 -12.98569,2.86144 -19.70054,2.25821s-13.57772,-2.86917 -18.02572,-7.86508l0.21033,-0.23974c5.4529,3.51106 11.7471,4.74844 18.01015,4.92631a84.57446,83.96381 0 0 0 18.92935,-1.54672a103.09094,102.3466 0 0 0 18.39185,-5.64554c5.94366,-2.43609 11.825,-5.25886 16.88841,-9.28033l0.21033,0.23974z" class="cls-6"/>
  </g>
 </g>
</svg>