<svg xmlns="http://www.w3.org/2000/svg" width="1000" height="155.5" viewBox="0 0 1000 155.48"><g fill="#002358"><g transform="translate(0-.26)"><path d="M232.45,114.2A43.27,43.27,0,0,1,215.52,98,44.94,44.94,0,0,1,209.4,74.6a44.76,44.76,0,0,1,6.18-23.38,43.77,43.77,0,0,1,17-16.22,49.64,49.64,0,0,1,24.19-5.89,50.48,50.48,0,0,1,19.84,3.8,40.3,40.3,0,0,1,15.15,11l-10.61,10a30.92,30.92,0,0,0-23.62-10.36,33.15,33.15,0,0,0-16.3,4,28.64,28.64,0,0,0-11.24,11,31.74,31.74,0,0,0-4.05,16A31.77,31.77,0,0,0,230,90.65a28.71,28.71,0,0,0,11.24,11,33.15,33.15,0,0,0,16.3,4,30.74,30.74,0,0,0,23.62-10.49l10.61,10.1a40.15,40.15,0,0,1-15.22,11,50.85,50.85,0,0,1-19.9,3.79A49.66,49.66,0,0,1,232.45,114.2Z"/><path d="M316,115.28A32.22,32.22,0,0,1,303.2,103a34.83,34.83,0,0,1-4.61-17.87,34.49,34.49,0,0,1,4.61-17.82A32.38,32.38,0,0,1,316,55a41,41,0,0,1,37,0,32.38,32.38,0,0,1,12.82,12.25,34.39,34.39,0,0,1,4.61,17.82A34.73,34.73,0,0,1,365.86,103,32.22,32.22,0,0,1,353,115.28a41,41,0,0,1-37,0Zm32.85-14.91q5.69-5.81,5.68-15.28T348.87,69.8A19.27,19.27,0,0,0,334.47,64a19.07,19.07,0,0,0-14.34,5.81q-5.62,5.81-5.62,15.29t5.62,15.28a19.07,19.07,0,0,0,14.34,5.81A19.27,19.27,0,0,0,348.87,100.37Z"/><path d="M387,37.52a8.85,8.85,0,0,1-2.9-6.76A8.87,8.87,0,0,1,387,24a10.16,10.16,0,0,1,7.2-2.72,10.43,10.43,0,0,1,7.2,2.6,8.32,8.32,0,0,1,2.91,6.5,9.53,9.53,0,0,1-2.84,7,9.83,9.83,0,0,1-7.27,2.84A10.15,10.15,0,0,1,387,37.52Zm-.76,13.84h15.79v67.46H386.26Z"/></g><path d="m482.1 57.79q7.71 7.46 7.71 22.1v38.92h-15.79v-36.64q0-9.1-4.17-13.59t-11.9-4.48q-8.72 0-13.77 5.24t-5.1 15.1v34.4h-15.77v-67.5h15v8.71c2.66-3.4 6.1-5.83 9.88-7.33 4.27-1.65 8.82-2.46 13.4-2.39q12.75-.01 20.46 7.44"/><path d="m549.6 50.3v15.26c-1.21-.5-2.43-.62-3.66-.64q-9.23 0-14.4 5.37t-5.18 15.51v32.98h-15.8v-67.5h15v9.85q6.86-10.86 24-10.87"/><path d="M611.84,57.73q7.89,7.14,7.89,21.54v39.55h-14.9v-8.21a18.38,18.38,0,0,1-8.28,6.75,32.33,32.33,0,0,1-12.95,2.34,31.9,31.9,0,0,1-13.27-2.59,20.5,20.5,0,0,1-8.78-7.2,18.31,18.31,0,0,1-3.09-10.42,17.85,17.85,0,0,1,6.76-14.59q6.75-5.5,21.29-5.5h17.43v-1q0-7.08-4.23-10.86c-2.83-2.53-7-3.8-12.57-3.8A36.54,36.54,0,0,0,576,65.5a27.67,27.67,0,0,0-9.29,4.93l-6.19-11.5a38.4,38.4,0,0,1,12.76-6.18A56.46,56.46,0,0,1,589,50.6Q603.94,50.6,611.84,57.73Zm-14.41,47.76a14.78,14.78,0,0,0,6.51-7.77V89.89h-16.3q-13.64,0-13.64,9a8.06,8.06,0,0,0,3.41,6.83c2.28,1.69,5.43,2.53,9.48,2.53A20.38,20.38,0,0,0,597.43,105.49Z" transform="translate(0-.26)"/><path d="m699.3 57.79q7.68 7.46 7.68 22.1v38.92h-15.76v-36.64q0-9.1-4.17-13.59t-11.88-4.48q-8.72 0-13.77 5.24t-5 15.1v34.4h-15.84v-67.5h15v8.71c2.66-3.4 6.1-5.83 9.88-7.33 4.27-1.65 8.81-2.46 13.39-2.39q12.77-.01 20.47 7.44"/><g transform="translate(0-.26)"><path d="m755.3 89.9l-11.75 11.1v17.82h-15.79v-93.7h15.79v56.6l32.72-30.3h19l-28.3 28.3 30.83 39.2h-19.2"/><path d="M808.85,37.52a8.89,8.89,0,0,1-2.9-6.76,8.9,8.9,0,0,1,2.9-6.76,10.17,10.17,0,0,1,7.21-2.72,10.43,10.43,0,0,1,7.2,2.6,8.34,8.34,0,0,1,2.9,6.5,9.49,9.49,0,0,1-2.84,7,9.81,9.81,0,0,1-7.26,2.84A10.16,10.16,0,0,1,808.85,37.52Zm-.75,13.84h15.79v67.46H808.1Z"/></g><path d="m904 57.79q7.69 7.46 7.7 22.1v38.92h-15.8v-36.64q0-9.1-4.17-13.59t-11.88-4.48q-8.72 0-13.77 5.24t-5.08 15.1v34.4h-15.76v-67.5h15v8.71c2.66-3.4 6.1-5.83 9.89-7.33 4.27-1.65 8.81-2.46 13.39-2.39q12.77-.01 20.48 7.44"/><path d="M1000,51.36v57.22q0,35.64-36.39,35.63a67.55,67.55,0,0,1-18.44-2.46,39.19,39.19,0,0,1-14.4-7.14l7.07-11.88A33.75,33.75,0,0,0,949,128.6a43.61,43.61,0,0,0,13.7,2.22q11.12,0,16.31-5t5.18-15.42v-3.53a26.06,26.06,0,0,1-9.86,6.69,34.88,34.88,0,0,1-12.76,2.27,36.56,36.56,0,0,1-17.37-4.1A30.78,30.78,0,0,1,932,100.12a32.45,32.45,0,0,1-4.49-17.06,32.1,32.1,0,0,1,4.49-17,30.46,30.46,0,0,1,12.25-11.43,37.12,37.12,0,0,1,17.37-4A35.82,35.82,0,0,1,974.92,53a24.68,24.68,0,0,1,10,7.33v-9ZM978.71,97a18.21,18.21,0,0,0,5.74-14,17.89,17.89,0,0,0-5.74-13.77Q973,64,964,64t-14.84,5.3a17.9,17.9,0,0,0-5.75,13.77,18.22,18.22,0,0,0,5.75,14q5.75,5.39,14.84,5.37T978.71,97Z" transform="translate(0-.26)"/></g><g fill="#32ef8f" transform="translate(0-.26)"><path d="M119.43,155.74a36,36,0,0,1-25.5-10.56L10.56,61.8A36.05,36.05,0,0,1,36.05.26h83.38a36,36,0,0,1,36,36.05v83.38a36,36,0,0,1-36,36.05Z" opacity=".35"/><path d="M36.05 155.74A36 36 0 0 1 10.56 94.2L93.9 10.82a36.05 36.05 0 1 1 51 51L61.5 145.2A36 36 0 0 1 36.05 155.74"/></g></svg>