<?xml version="1.0" encoding="utf-8"?>
<!-- Generator: Adobe Illustrator 23.0.0, SVG Export Plug-In . SVG Version: 6.00 Build 0)  -->
<svg version="1.1" id="Layer_1" xmlns="http://www.w3.org/2000/svg" xmlns:xlink="http://www.w3.org/1999/xlink" x="0px" y="0px"
	 viewBox="0 0 200 45.1" style="enable-background:new 0 0 200 45.1;" xml:space="preserve">
<style type="text/css">
	.st0{enable-background:new    ;}
	.st1{fill:#FFFFFF;}
	.st2{fill:#1BABA1;enable-background:new    ;}
</style>
<g>
	<g class="st0">
		<path class="st1" d="M55,33.1h-1.1v-5.6H52v-0.9h4.9v0.9H55V33.1z"/>
		<path class="st1" d="M62.2,33.1h-1.1v-3c0-0.4-0.1-0.7-0.2-0.8c-0.2-0.2-0.4-0.3-0.7-0.3c-0.4,0-0.8,0.1-1,0.4
			c-0.2,0.3-0.3,0.7-0.3,1.3v2.4h-1v-6.9h1v1.8c0,0.3,0,0.6-0.1,0.9h0.1c0.1-0.2,0.3-0.4,0.6-0.6c0.3-0.1,0.5-0.2,0.9-0.2
			c1.2,0,1.8,0.6,1.8,1.8V33.1z"/>
		<path class="st1" d="M65.7,33.2c-0.8,0-1.4-0.2-1.8-0.7c-0.4-0.4-0.6-1.1-0.6-1.8c0-0.8,0.2-1.4,0.6-1.9c0.4-0.5,1-0.7,1.7-0.7
			c0.6,0,1.2,0.2,1.5,0.6c0.4,0.4,0.6,0.9,0.6,1.6v0.6h-3.3c0,0.5,0.1,0.8,0.4,1.1c0.2,0.3,0.6,0.4,1,0.4c0.3,0,0.6,0,0.8-0.1
			c0.3-0.1,0.5-0.1,0.8-0.3v0.8c-0.3,0.1-0.5,0.2-0.8,0.3C66.4,33.2,66.1,33.2,65.7,33.2z M65.6,28.9c-0.3,0-0.6,0.1-0.8,0.3
			c-0.2,0.2-0.3,0.5-0.4,0.9h2.2c0-0.4-0.1-0.7-0.3-0.9C66.1,29,65.9,28.9,65.6,28.9z"/>
		<path class="st1" d="M74.1,27.4c-0.6,0-1.1,0.2-1.4,0.6c-0.3,0.4-0.5,1-0.5,1.8c0,0.8,0.2,1.4,0.5,1.8c0.3,0.4,0.8,0.6,1.5,0.6
			c0.3,0,0.5,0,0.8-0.1c0.3-0.1,0.5-0.1,0.8-0.2v0.9c-0.5,0.2-1.1,0.3-1.7,0.3c-1,0-1.7-0.3-2.2-0.9c-0.5-0.6-0.8-1.4-0.8-2.5
			c0-0.7,0.1-1.3,0.4-1.8s0.6-0.9,1.1-1.2c0.5-0.3,1-0.4,1.7-0.4c0.7,0,1.3,0.1,1.8,0.4l-0.4,0.9c-0.2-0.1-0.5-0.2-0.7-0.3
			C74.6,27.4,74.4,27.4,74.1,27.4z"/>
		<path class="st1" d="M79.3,28.1c0.2,0,0.4,0,0.5,0l-0.1,1c-0.1,0-0.3-0.1-0.5-0.1c-0.4,0-0.8,0.1-1,0.4c-0.3,0.3-0.4,0.6-0.4,1.1
			v2.6h-1v-4.9h0.8l0.1,0.9h0.1c0.2-0.3,0.4-0.5,0.6-0.7C78.7,28.2,79,28.1,79.3,28.1z"/>
		<path class="st1" d="M80.4,28.2h1.1l1,2.8c0.2,0.4,0.3,0.8,0.3,1.1h0c0-0.2,0.1-0.4,0.1-0.6c0.1-0.2,0.4-1.3,1.1-3.3h1.1l-2.1,5.6
			c-0.4,1-1,1.5-1.9,1.5c-0.2,0-0.5,0-0.7-0.1v-0.8c0.2,0,0.3,0.1,0.5,0.1c0.5,0,0.9-0.3,1.1-0.9l0.2-0.5L80.4,28.2z"/>
		<path class="st1" d="M88.6,33.2c-0.6,0-1.1-0.2-1.5-0.7h-0.1c0,0.4,0.1,0.7,0.1,0.8v2h-1v-7.1h0.8c0,0.1,0.1,0.3,0.1,0.7h0.1
			c0.3-0.5,0.8-0.7,1.5-0.7c0.6,0,1.1,0.2,1.4,0.7c0.3,0.4,0.5,1.1,0.5,1.9s-0.2,1.4-0.5,1.9C89.7,33,89.2,33.2,88.6,33.2z
			 M88.3,28.9c-0.4,0-0.7,0.1-0.9,0.4c-0.2,0.2-0.3,0.6-0.3,1.2v0.2c0,0.6,0.1,1,0.3,1.3c0.2,0.3,0.5,0.4,0.9,0.4
			c0.4,0,0.6-0.1,0.8-0.4s0.3-0.7,0.3-1.3c0-0.6-0.1-1-0.3-1.3C89,29.1,88.7,28.9,88.3,28.9z"/>
		<path class="st1" d="M93.6,32.3c0.3,0,0.5,0,0.8-0.1V33c-0.1,0.1-0.3,0.1-0.4,0.1c-0.2,0-0.4,0.1-0.6,0.1c-1,0-1.5-0.5-1.5-1.6V29
			h-0.7v-0.5l0.7-0.4l0.4-1h0.6v1.1h1.4V29h-1.4v2.6c0,0.3,0.1,0.4,0.2,0.6C93.2,32.3,93.3,32.3,93.6,32.3z"/>
		<path class="st1" d="M99.6,30.6c0,0.8-0.2,1.4-0.6,1.9c-0.4,0.5-1,0.7-1.7,0.7c-0.5,0-0.9-0.1-1.2-0.3s-0.6-0.5-0.8-0.9
			s-0.3-0.8-0.3-1.4c0-0.8,0.2-1.4,0.6-1.9c0.4-0.4,1-0.7,1.7-0.7c0.7,0,1.3,0.2,1.7,0.7C99.4,29.2,99.6,29.8,99.6,30.6z M96,30.6
			c0,1.1,0.4,1.7,1.3,1.7c0.8,0,1.2-0.6,1.2-1.7c0-1.1-0.4-1.7-1.3-1.7c-0.4,0-0.8,0.1-1,0.4C96.1,29.7,96,30.1,96,30.6z"/>
		<path class="st1" d="M104.3,30.5v2.6h-1.1v-6.5h1.8c0.8,0,1.5,0.2,1.9,0.5c0.4,0.3,0.6,0.8,0.6,1.4c0,0.8-0.4,1.4-1.3,1.7l1.8,2.9
			h-1.2l-1.6-2.6H104.3z M104.3,29.6h0.7c0.5,0,0.9-0.1,1.1-0.3s0.3-0.5,0.3-0.8c0-0.4-0.1-0.6-0.4-0.8c-0.2-0.2-0.6-0.2-1.1-0.2
			h-0.7V29.6z"/>
		<path class="st1" d="M111.1,33.2c-0.8,0-1.4-0.2-1.8-0.7c-0.4-0.4-0.6-1.1-0.6-1.8c0-0.8,0.2-1.4,0.6-1.9c0.4-0.5,1-0.7,1.7-0.7
			c0.6,0,1.2,0.2,1.5,0.6c0.4,0.4,0.6,0.9,0.6,1.6v0.6h-3.3c0,0.5,0.1,0.8,0.4,1.1c0.2,0.3,0.6,0.4,1,0.4c0.3,0,0.6,0,0.8-0.1
			c0.3-0.1,0.5-0.1,0.8-0.3v0.8c-0.3,0.1-0.5,0.2-0.8,0.3C111.7,33.2,111.4,33.2,111.1,33.2z M110.9,28.9c-0.3,0-0.6,0.1-0.8,0.3
			c-0.2,0.2-0.3,0.5-0.4,0.9h2.2c0-0.4-0.1-0.7-0.3-0.9C111.5,29,111.2,28.9,110.9,28.9z"/>
		<path class="st1" d="M117.5,31.7c0,0.5-0.2,0.8-0.5,1.1c-0.4,0.3-0.9,0.4-1.5,0.4c-0.7,0-1.2-0.1-1.6-0.3V32
			c0.6,0.3,1.1,0.4,1.6,0.4c0.6,0,1-0.2,1-0.6c0-0.1,0-0.2-0.1-0.3c-0.1-0.1-0.2-0.2-0.4-0.3c-0.2-0.1-0.4-0.2-0.7-0.3
			c-0.6-0.2-0.9-0.4-1.1-0.7c-0.2-0.2-0.3-0.5-0.3-0.9c0-0.4,0.2-0.7,0.5-1c0.3-0.2,0.8-0.3,1.4-0.3c0.6,0,1.1,0.1,1.6,0.4l-0.3,0.8
			c-0.5-0.2-1-0.3-1.3-0.3c-0.6,0-0.8,0.2-0.8,0.5c0,0.2,0.1,0.3,0.2,0.4c0.1,0.1,0.5,0.3,0.9,0.4c0.4,0.2,0.7,0.3,0.9,0.4
			c0.2,0.1,0.3,0.3,0.4,0.5C117.4,31.3,117.5,31.5,117.5,31.7z"/>
		<path class="st1" d="M120.8,33.2c-0.8,0-1.4-0.2-1.8-0.7c-0.4-0.4-0.6-1.1-0.6-1.8c0-0.8,0.2-1.4,0.6-1.9c0.4-0.5,1-0.7,1.7-0.7
			c0.6,0,1.2,0.2,1.5,0.6c0.4,0.4,0.6,0.9,0.6,1.6v0.6h-3.3c0,0.5,0.1,0.8,0.4,1.1c0.2,0.3,0.6,0.4,1,0.4c0.3,0,0.6,0,0.8-0.1
			c0.3-0.1,0.5-0.1,0.8-0.3v0.8c-0.3,0.1-0.5,0.2-0.8,0.3C121.4,33.2,121.1,33.2,120.8,33.2z M120.6,28.9c-0.3,0-0.6,0.1-0.8,0.3
			c-0.2,0.2-0.3,0.5-0.4,0.9h2.2c0-0.4-0.1-0.7-0.3-0.9C121.2,29,120.9,28.9,120.6,28.9z"/>
		<path class="st1" d="M126.9,33.1l-0.2-0.7h0c-0.2,0.3-0.5,0.5-0.7,0.6c-0.2,0.1-0.5,0.2-0.9,0.2c-0.5,0-0.9-0.1-1.1-0.4
			c-0.3-0.3-0.4-0.6-0.4-1.1c0-0.5,0.2-0.9,0.6-1.1c0.4-0.3,1-0.4,1.7-0.4l0.9,0v-0.3c0-0.3-0.1-0.5-0.2-0.7
			c-0.1-0.2-0.4-0.2-0.7-0.2c-0.3,0-0.5,0-0.7,0.1c-0.2,0.1-0.5,0.2-0.7,0.3l-0.3-0.7c0.3-0.1,0.6-0.2,0.9-0.3
			c0.3-0.1,0.6-0.1,0.9-0.1c0.6,0,1.1,0.1,1.4,0.4c0.3,0.3,0.5,0.7,0.5,1.3v3.3H126.9z M125.3,32.4c0.4,0,0.7-0.1,0.9-0.3
			c0.2-0.2,0.3-0.5,0.3-0.9v-0.4l-0.6,0c-0.5,0-0.9,0.1-1.1,0.2c-0.2,0.1-0.3,0.4-0.3,0.7c0,0.2,0.1,0.4,0.2,0.5
			C124.9,32.3,125.1,32.4,125.3,32.4z"/>
		<path class="st1" d="M131.5,28.1c0.2,0,0.4,0,0.5,0l-0.1,1c-0.1,0-0.3-0.1-0.5-0.1c-0.4,0-0.8,0.1-1,0.4c-0.3,0.3-0.4,0.6-0.4,1.1
			v2.6h-1v-4.9h0.8L130,29h0.1c0.2-0.3,0.4-0.5,0.6-0.7C131,28.2,131.2,28.1,131.5,28.1z"/>
		<path class="st1" d="M134.9,33.2c-0.7,0-1.3-0.2-1.7-0.7c-0.4-0.4-0.6-1.1-0.6-1.9c0-0.8,0.2-1.5,0.6-1.9s1-0.7,1.8-0.7
			c0.5,0,1,0.1,1.4,0.3l-0.3,0.8c-0.4-0.2-0.8-0.3-1.1-0.3c-0.9,0-1.3,0.6-1.3,1.7c0,0.6,0.1,1,0.3,1.2c0.2,0.3,0.5,0.4,0.9,0.4
			c0.5,0,0.9-0.1,1.3-0.3v0.9c-0.2,0.1-0.4,0.2-0.6,0.2C135.5,33.2,135.2,33.2,134.9,33.2z"/>
		<path class="st1" d="M141.7,33.1h-1.1v-3c0-0.4-0.1-0.7-0.2-0.8s-0.4-0.3-0.7-0.3c-0.4,0-0.8,0.1-1,0.4c-0.2,0.3-0.3,0.7-0.3,1.3
			v2.4h-1v-6.9h1v1.8c0,0.3,0,0.6-0.1,0.9h0.1c0.1-0.2,0.3-0.4,0.6-0.6s0.5-0.2,0.9-0.2c1.2,0,1.8,0.6,1.8,1.8V33.1z"/>
		<path class="st1" d="M149.9,28.6c0,0.7-0.2,1.2-0.7,1.6c-0.4,0.4-1.1,0.5-1.9,0.5h-0.7v2.4h-1.1v-6.5h1.9c0.8,0,1.4,0.2,1.8,0.5
			C149.7,27.4,149.9,27.9,149.9,28.6z M146.7,29.8h0.6c0.5,0,0.9-0.1,1.2-0.3c0.3-0.2,0.4-0.5,0.4-0.9c0-0.4-0.1-0.7-0.3-0.8
			c-0.2-0.2-0.6-0.3-1.1-0.3h-0.7V29.8z"/>
		<path class="st1" d="M152.1,33.1h-1v-6.9h1V33.1z"/>
		<path class="st1" d="M156.6,33.1l-0.2-0.7h0c-0.2,0.3-0.5,0.5-0.7,0.6c-0.2,0.1-0.5,0.2-0.9,0.2c-0.5,0-0.9-0.1-1.1-0.4
			c-0.3-0.3-0.4-0.6-0.4-1.1c0-0.5,0.2-0.9,0.6-1.1s1-0.4,1.7-0.4l0.8,0v-0.3c0-0.3-0.1-0.5-0.2-0.7c-0.1-0.2-0.4-0.2-0.7-0.2
			c-0.3,0-0.5,0-0.7,0.1c-0.2,0.1-0.5,0.2-0.7,0.3l-0.3-0.7c0.3-0.1,0.6-0.2,0.9-0.3c0.3-0.1,0.6-0.1,0.9-0.1c0.6,0,1.1,0.1,1.4,0.4
			c0.3,0.3,0.5,0.7,0.5,1.3v3.3H156.6z M155,32.4c0.4,0,0.7-0.1,0.9-0.3c0.2-0.2,0.3-0.5,0.3-0.9v-0.4l-0.6,0
			c-0.5,0-0.9,0.1-1.1,0.2c-0.2,0.1-0.3,0.4-0.3,0.7c0,0.2,0.1,0.4,0.2,0.5C154.6,32.3,154.8,32.4,155,32.4z"/>
		<path class="st1" d="M160.6,32.3c0.3,0,0.5,0,0.8-0.1V33c-0.1,0.1-0.3,0.1-0.4,0.1c-0.2,0-0.4,0.1-0.6,0.1c-1,0-1.5-0.5-1.5-1.6
			V29h-0.7v-0.5l0.7-0.4l0.4-1h0.6v1.1h1.4V29h-1.4v2.6c0,0.3,0.1,0.4,0.2,0.6C160.2,32.3,160.4,32.3,160.6,32.3z"/>
		<path class="st1" d="M165,29h-1.2v4.1h-1.1V29h-0.8v-0.5l0.8-0.3v-0.3c0-0.6,0.1-1,0.4-1.3c0.3-0.3,0.7-0.4,1.2-0.4
			c0.4,0,0.7,0.1,1.1,0.2l-0.3,0.8c-0.3-0.1-0.5-0.1-0.7-0.1c-0.2,0-0.4,0.1-0.5,0.2c-0.1,0.1-0.2,0.4-0.2,0.7v0.3h1.2V29z"/>
		<path class="st1" d="M170.2,30.6c0,0.8-0.2,1.4-0.6,1.9c-0.4,0.5-1,0.7-1.7,0.7c-0.5,0-0.9-0.1-1.2-0.3s-0.6-0.5-0.8-0.9
			s-0.3-0.8-0.3-1.4c0-0.8,0.2-1.4,0.6-1.9c0.4-0.4,1-0.7,1.7-0.7c0.7,0,1.3,0.2,1.7,0.7C170,29.2,170.2,29.8,170.2,30.6z
			 M166.6,30.6c0,1.1,0.4,1.7,1.3,1.7c0.8,0,1.2-0.6,1.2-1.7c0-1.1-0.4-1.7-1.3-1.7c-0.4,0-0.8,0.1-1,0.4
			C166.7,29.7,166.6,30.1,166.6,30.6z"/>
		<path class="st1" d="M173.9,28.1c0.2,0,0.4,0,0.5,0l-0.1,1c-0.1,0-0.3-0.1-0.5-0.1c-0.4,0-0.8,0.1-1,0.4c-0.3,0.3-0.4,0.6-0.4,1.1
			v2.6h-1v-4.9h0.8l0.1,0.9h0.1c0.2-0.3,0.4-0.5,0.6-0.7C173.3,28.2,173.6,28.1,173.9,28.1z"/>
		<path class="st1" d="M179.4,33.1h-1.1v-3c0-0.4-0.1-0.7-0.2-0.8c-0.1-0.2-0.4-0.3-0.7-0.3c-0.4,0-0.7,0.1-0.9,0.4
			c-0.2,0.3-0.3,0.7-0.3,1.3v2.5h-1v-4.9h0.8l0.1,0.6h0.1c0.1-0.2,0.3-0.4,0.6-0.5c0.3-0.1,0.5-0.2,0.9-0.2c0.8,0,1.3,0.3,1.5,0.8
			h0.1c0.1-0.2,0.3-0.4,0.6-0.6c0.3-0.1,0.6-0.2,0.9-0.2c0.6,0,1,0.1,1.3,0.4c0.3,0.3,0.4,0.7,0.4,1.4v3.2h-1v-3
			c0-0.4-0.1-0.7-0.2-0.8c-0.1-0.2-0.4-0.3-0.7-0.3c-0.4,0-0.7,0.1-0.9,0.4c-0.2,0.3-0.3,0.6-0.3,1.2V33.1z"/>
	</g>
	<path class="st2" d="M16.7,0C7.5,0,0,7.5,0,16.7c0,9.2,7.4,16.6,16.6,16.7l9-9l0,0c0,0,0,0,0,0l2.6,2.6c0,0,0,0,0,0l0,0l0.9,0.9
		c2.7-3,4.3-6.9,4.3-11.1C33.4,7.5,25.9,0,16.7,0z"/>
	<g class="st0">
		<path class="st1" d="M22.4,9c1.5,1.2,2.4,2.8,2.8,4.9h-4.6c-0.2-0.9-0.6-1.6-1.3-2.2c-0.7-0.5-1.5-0.8-2.5-0.8
			c-1.2,0-2.1,0.4-2.9,1.3s-1.2,2.1-1.2,3.8c0,1.7,0.4,2.9,1.2,3.8c0.8,0.9,1.7,1.3,2.9,1.3c1,0,1.9-0.3,2.5-0.8
			c0.7-0.5,1.1-1.2,1.3-2.2h4.6c-0.4,2.1-1.3,3.7-2.8,4.9c-1.5,1.2-3.3,1.8-5.6,1.8c-1.7,0-3.2-0.4-4.5-1.1c-1.3-0.7-2.3-1.7-3-3.1
			c-0.7-1.3-1.1-2.9-1.1-4.7c0-1.8,0.4-3.4,1.1-4.7c0.7-1.3,1.7-2.4,3-3.1s2.8-1.1,4.5-1.1C19.1,7.2,20.9,7.8,22.4,9z"/>
	</g>
	<path class="st2" d="M41.3,24.5L41.3,24.5l-7.9,0v3.7h5.3l-7.2,7.2L27,30.9c-0.8-0.8-2-0.8-2.8,0L12.7,42.5l2.6,2.6l10.3-10.3
		l4.5,4.5c0.8,0.8,2,0.8,2.8,0l8.4-8.4v5.2h3.7v-7.9v-3.7v0H41.3z"/>
	<g class="st0">
		<path class="st1" d="M60.4,6.4c-1.4,0-2.5,0.5-3.3,1.6c-0.8,1.1-1.2,2.6-1.2,4.5c0,4,1.5,6,4.5,6c1.3,0,2.8-0.3,4.5-0.9v3.2
			c-1.5,0.6-3.1,0.9-4.9,0.9c-2.6,0-4.6-0.8-5.9-2.4c-1.4-1.6-2.1-3.8-2.1-6.8c0-1.9,0.3-3.5,1-4.9c0.7-1.4,1.6-2.5,2.9-3.2
			c1.3-0.7,2.7-1.1,4.4-1.1c1.7,0,3.5,0.4,5.2,1.3l-1.2,3.1c-0.7-0.3-1.3-0.6-2-0.8C61.7,6.5,61,6.4,60.4,6.4z"/>
		<path class="st1" d="M79.4,14.5c0,2.2-0.6,4-1.8,5.2s-2.8,1.9-4.9,1.9c-1.3,0-2.5-0.3-3.5-0.9c-1-0.6-1.8-1.4-2.3-2.5
			c-0.5-1.1-0.8-2.3-0.8-3.8c0-2.2,0.6-4,1.7-5.2s2.8-1.9,4.9-1.9c1.3,0,2.5,0.3,3.5,0.9s1.8,1.4,2.3,2.5
			C79.2,11.8,79.4,13,79.4,14.5z M70,14.5c0,1.3,0.2,2.4,0.7,3.1c0.4,0.7,1.2,1,2.2,1c1,0,1.7-0.3,2.1-1c0.4-0.7,0.7-1.7,0.7-3.1
			c0-1.3-0.2-2.4-0.7-3s-1.2-1-2.2-1c-1,0-1.7,0.3-2.1,1C70.2,12.1,70,13.1,70,14.5z"/>
		<path class="st1" d="M81.1,4.1c0-1.2,0.7-1.8,2-1.8c1.3,0,2,0.6,2,1.8c0,0.6-0.2,1-0.5,1.3C84.3,5.8,83.8,6,83.1,6
			C81.7,6,81.1,5.4,81.1,4.1z M84.9,21.3h-3.7V7.7h3.7V21.3z"/>
		<path class="st1" d="M100.1,21.3h-3.7v-8c0-1-0.2-1.7-0.5-2.2c-0.3-0.5-0.9-0.7-1.7-0.7c-1,0-1.8,0.3-2.3,1
			c-0.5,0.7-0.7,1.8-0.7,3.5v6.4h-3.7V7.7h2.8l0.5,1.7h0.2c0.4-0.7,1-1.2,1.7-1.5s1.6-0.5,2.5-0.5c1.6,0,2.8,0.4,3.6,1.3
			s1.2,2.1,1.2,3.7V21.3z"/>
		<path class="st1" d="M110.6,6.4c-1.4,0-2.5,0.5-3.3,1.6c-0.8,1.1-1.2,2.6-1.2,4.5c0,4,1.5,6,4.5,6c1.3,0,2.8-0.3,4.5-0.9v3.2
			c-1.5,0.6-3.1,0.9-4.9,0.9c-2.6,0-4.6-0.8-5.9-2.4c-1.4-1.6-2.1-3.8-2.1-6.8c0-1.9,0.3-3.5,1-4.9c0.7-1.4,1.6-2.5,2.9-3.2
			c1.3-0.7,2.7-1.1,4.4-1.1c1.7,0,3.5,0.4,5.2,1.3l-1.2,3.1c-0.7-0.3-1.3-0.6-2-0.8C111.9,6.5,111.3,6.4,110.6,6.4z"/>
		<path class="st1" d="M130,21.3h-3.7v-8c0-2-0.7-2.9-2.2-2.9c-1,0-1.8,0.4-2.3,1.1c-0.5,0.7-0.7,1.9-0.7,3.4v6.4h-3.7v-19h3.7v3.9
			c0,0.3,0,1-0.1,2.1l-0.1,1.1h0.2c0.8-1.3,2.1-2,3.9-2c1.6,0,2.8,0.4,3.6,1.3c0.8,0.9,1.2,2.1,1.2,3.7V21.3z"/>
		<path class="st1" d="M138.7,21.5c-2.2,0-3.9-0.6-5.1-1.8c-1.2-1.2-1.9-2.9-1.9-5.1c0-2.3,0.6-4,1.7-5.3c1.1-1.2,2.7-1.9,4.7-1.9
			c1.9,0,3.4,0.5,4.5,1.6c1.1,1.1,1.6,2.6,1.6,4.5v1.8h-8.8c0,1.1,0.4,1.9,0.9,2.5c0.6,0.6,1.4,0.9,2.5,0.9c0.8,0,1.6-0.1,2.3-0.3
			c0.7-0.2,1.5-0.4,2.3-0.8v2.9c-0.7,0.3-1.3,0.6-2.1,0.7C140.7,21.5,139.8,21.5,138.7,21.5z M138.2,10.1c-0.8,0-1.4,0.3-1.9,0.7
			c-0.4,0.5-0.7,1.2-0.8,2.1h5.2c0-0.9-0.3-1.6-0.7-2.1C139.6,10.3,139,10.1,138.2,10.1z"/>
		<path class="st1" d="M151.8,21.5c-4.2,0-6.4-2.3-6.4-7c0-2.3,0.6-4.1,1.7-5.3c1.2-1.2,2.8-1.8,5-1.8c1.6,0,3,0.3,4.2,0.9l-1.1,2.9
			c-0.6-0.2-1.1-0.4-1.6-0.6c-0.5-0.1-1-0.2-1.5-0.2c-1.9,0-2.9,1.4-2.9,4.1c0,2.7,1,4,2.9,4c0.7,0,1.4-0.1,2-0.3
			c0.6-0.2,1.2-0.5,1.8-0.9v3.2c-0.6,0.4-1.2,0.6-1.8,0.8C153.5,21.5,152.8,21.5,151.8,21.5z"/>
		<path class="st1" d="M161.4,13.9l1.6-2.1l3.8-4.1h4.2l-5.4,5.9l5.7,7.7h-4.3l-3.9-5.5l-1.6,1.3v4.2h-3.7v-19h3.7v8.5L161.4,13.9
			L161.4,13.9z"/>
		<path class="st1" d="M181.9,21.3l-0.5-1.7h-0.2c-0.4,0.6-1,1.1-1.7,1.5c-0.7,0.3-1.6,0.5-2.5,0.5c-1.6,0-2.8-0.4-3.6-1.3
			c-0.8-0.9-1.2-2.1-1.2-3.7V7.7h3.7v8c0,1,0.2,1.7,0.5,2.2c0.3,0.5,0.9,0.7,1.7,0.7c1,0,1.8-0.3,2.3-1c0.5-0.7,0.7-1.8,0.7-3.5V7.7
			h3.7v13.6H181.9z"/>
		<path class="st1" d="M194.8,21.5c-1.6,0-2.9-0.6-3.8-1.7h-0.2c0.1,1.1,0.2,1.8,0.2,2v5.5h-3.7V7.7h3l0.5,1.8h0.2
			c0.9-1.3,2.2-2,3.9-2c1.6,0,2.9,0.6,3.8,1.9c0.9,1.2,1.4,3,1.4,5.2c0,1.5-0.2,2.7-0.6,3.8c-0.4,1.1-1,1.9-1.8,2.5
			C196.7,21.3,195.8,21.5,194.8,21.5z M193.7,10.4c-0.9,0-1.6,0.3-2,0.8c-0.4,0.6-0.6,1.5-0.7,2.8v0.4c0,1.5,0.2,2.5,0.7,3.1
			c0.4,0.6,1.1,1,2.1,1c1.7,0,2.5-1.4,2.5-4.1c0-1.3-0.2-2.3-0.6-3C195.2,10.7,194.5,10.4,193.7,10.4z"/>
	</g>
</g>
</svg>
