<?xml version="1.0" standalone="no"?>
<!DOCTYPE svg PUBLIC "-//W3C//DTD SVG 20010904//EN"
 "http://www.w3.org/TR/2001/REC-SVG-20010904/DTD/svg10.dtd">
<svg version="1.0" xmlns="http://www.w3.org/2000/svg"
 width="445.000000pt" height="89.000000pt" viewBox="0 0 445.000000 89.000000"
 preserveAspectRatio="xMidYMid meet">

<g transform="translate(0.000000,89.000000) scale(0.100000,-0.100000)"
fill="#000000" stroke="none">
<path d="M1046 690 c-24 -4 -49 -18 -63 -34 -22 -26 -23 -34 -23 -187 l0 -161
29 -29 c17 -17 41 -30 58 -30 51 -3 187 1 246 7 l57 6 0 119 0 119 -100 0
-100 0 0 -35 c0 -35 0 -35 46 -35 l45 0 -3 -47 -3 -48 -60 -3 c-109 -6 -105
-10 -105 131 0 82 4 127 12 135 8 8 49 12 120 12 l108 0 0 45 0 45 -112 -1
c-62 -1 -131 -5 -152 -9z"/>
<path d="M2390 475 l0 -225 55 0 55 0 0 80 0 80 95 0 95 0 0 45 0 45 -95 0
-95 0 0 55 0 55 120 0 120 0 0 45 0 45 -175 0 -175 0 0 -225z"/>
<path d="M2810 655 l0 -45 55 0 55 0 0 45 0 45 -55 0 -55 0 0 -45z"/>
<path d="M3620 646 l0 -54 -91 -4 c-85 -4 -94 -6 -115 -32 -22 -25 -24 -36
-24 -139 0 -129 9 -151 69 -167 36 -9 96 0 154 25 12 5 17 3 17 -9 0 -13 11
-16 50 -16 l50 0 0 225 0 225 -55 0 -55 0 0 -54z m-2 -223 l-3 -78 -45 -7
c-68 -12 -70 -9 -70 82 l0 80 60 0 61 0 -3 -77z"/>
<path d="M1435 565 c-24 -23 -25 -30 -25 -145 0 -115 1 -122 25 -145 26 -27
29 -28 160 -25 119 2 125 4 125 46 l0 34 -100 0 -100 0 0 25 0 25 110 0 110 0
0 60 c0 69 -19 123 -48 139 -12 6 -68 11 -127 11 -99 0 -107 -2 -130 -25z
m188 -66 c20 -32 1 -49 -53 -49 -48 0 -50 1 -50 28 0 16 3 32 7 36 13 13 86 2
96 -15z"/>
<path d="M1797 583 c-4 -3 -7 -80 -7 -170 l0 -163 55 0 55 0 0 119 c0 131 0
131 66 131 l34 0 0 -125 0 -125 55 0 55 0 0 119 c0 131 0 131 66 131 l34 0 0
-125 0 -125 55 0 55 0 0 145 c0 142 -1 147 -25 170 -29 30 -93 34 -154 9 -37
-14 -42 -14 -63 0 -28 20 -95 21 -141 1 -20 -8 -39 -15 -42 -15 -3 0 -5 7 -5
15 0 11 -11 15 -43 15 -24 0 -47 -3 -50 -7z"/>
<path d="M2997 583 c-4 -3 -7 -80 -7 -170 l0 -163 55 0 55 0 0 120 c0 117 0
120 23 126 13 3 41 4 63 2 l39 -3 3 -122 3 -123 49 0 50 0 0 145 c0 142 -1
147 -25 170 -20 20 -34 25 -78 25 -30 0 -71 -7 -90 -15 -20 -8 -39 -15 -42
-15 -3 0 -5 7 -5 15 0 11 -11 15 -43 15 -24 0 -47 -3 -50 -7z"/>
<path d="M3815 565 c-24 -23 -25 -30 -25 -145 0 -115 1 -122 25 -145 26 -27
29 -28 160 -25 119 2 125 4 125 46 l0 34 -100 0 -100 0 0 25 0 25 110 0 110 0
0 60 c0 69 -19 123 -48 139 -12 6 -68 11 -127 11 -99 0 -107 -2 -130 -25z
m188 -66 c20 -32 1 -49 -53 -49 -48 0 -50 1 -50 28 0 16 3 32 7 36 13 13 86 2
96 -15z"/>
<path d="M4177 583 c-4 -3 -7 -80 -7 -170 l0 -163 55 0 55 0 0 115 0 114 38
10 c20 6 52 11 70 11 31 0 32 1 32 45 l0 45 -37 0 c-21 0 -53 -9 -71 -20 -40
-25 -42 -25 -42 0 0 17 -7 20 -43 20 -24 0 -47 -3 -50 -7z"/>
<path d="M2760 530 c0 -36 3 -40 25 -40 l25 0 0 -120 0 -120 55 0 55 0 0 160
0 160 -80 0 -80 0 0 -40z"/>
<path d="M735 50 c21 -22 44 -40 50 -40 6 0 29 18 50 40 l39 40 -89 0 -89 0
39 -40z"/>
</g>
</svg>
