<svg width="437" height="358" viewBox="0 0 437 358" fill="none" xmlns="http://www.w3.org/2000/svg">
<path d="M356 176.5C356 255.753 291.753 320 212.5 320C133.247 320 69 255.753 69 176.5C69 97.2471 133.247 33 212.5 33C291.753 33 356 97.2471 356 176.5ZM70.435 176.5C70.435 254.96 134.04 318.565 212.5 318.565C290.96 318.565 354.565 254.96 354.565 176.5C354.565 98.0397 290.96 34.435 212.5 34.435C134.04 34.435 70.435 98.0397 70.435 176.5Z" fill="#21272D"/>
<path d="M169.124 5.868C169.124 6.732 168.824 7.404 168.224 7.884C167.632 8.356 166.848 8.592 165.872 8.592H164.072C163.984 8.592 163.94 8.636 163.94 8.724V11.724C163.94 11.908 163.836 12 163.628 12H162.092C161.996 12 161.928 11.98 161.888 11.94C161.856 11.9 161.84 11.84 161.84 11.76V3.324C161.84 3.172 161.904 3.096 162.032 3.096H165.632C166.296 3.096 166.888 3.2 167.408 3.408C167.936 3.608 168.352 3.916 168.656 4.332C168.968 4.748 169.124 5.26 169.124 5.868ZM166.964 5.832C166.964 5.424 166.832 5.116 166.568 4.908C166.304 4.7 165.948 4.596 165.5 4.596H164.168C164.088 4.596 164.028 4.612 163.988 4.644C163.956 4.676 163.94 4.732 163.94 4.812V6.864C163.94 6.944 163.952 7.004 163.976 7.044C164 7.076 164.044 7.092 164.108 7.092H165.584C166.008 7.092 166.344 6.98 166.592 6.756C166.84 6.532 166.964 6.224 166.964 5.832ZM172.098 11.712C172.098 11.816 172.074 11.892 172.026 11.94C171.978 11.98 171.894 12 171.774 12H170.502C170.406 12 170.338 11.98 170.298 11.94C170.258 11.9 170.238 11.836 170.238 11.748L170.274 3.324C170.274 3.172 170.338 3.096 170.466 3.096H171.918C172.038 3.096 172.098 3.168 172.098 3.312V11.712ZM176.93 11.388C176.402 11.876 175.774 12.12 175.046 12.12C174.446 12.12 173.97 11.96 173.618 11.64C173.266 11.312 173.09 10.888 173.09 10.368C173.09 9.696 173.398 9.156 174.014 8.748C174.63 8.34 175.478 8.124 176.558 8.1L176.99 8.064C177.038 8.064 177.078 8.052 177.11 8.028C177.15 7.996 177.17 7.952 177.17 7.896V7.644C177.17 7.332 177.082 7.092 176.906 6.924C176.73 6.756 176.478 6.672 176.15 6.672C175.59 6.672 175.174 6.912 174.902 7.392C174.87 7.472 174.818 7.512 174.746 7.512C174.706 7.512 174.67 7.508 174.638 7.5L173.438 7.224C173.366 7.208 173.33 7.164 173.33 7.092C173.33 7.044 173.346 6.984 173.378 6.912C173.57 6.448 173.91 6.1 174.398 5.868C174.894 5.636 175.506 5.52 176.234 5.52C177.186 5.52 177.874 5.696 178.298 6.048C178.722 6.392 178.934 6.884 178.934 7.524V11.736C178.934 11.832 178.918 11.9 178.886 11.94C178.854 11.98 178.794 12 178.706 12H177.47C177.39 12 177.33 11.972 177.29 11.916C177.258 11.86 177.234 11.776 177.218 11.664L177.206 11.4C177.198 11.328 177.166 11.292 177.11 11.292C177.078 11.292 177.018 11.324 176.93 11.388ZM177.17 9.168C177.17 9.096 177.158 9.044 177.134 9.012C177.11 8.98 177.062 8.964 176.99 8.964L176.654 8.988C176.19 9.012 175.778 9.124 175.418 9.324C175.066 9.516 174.89 9.784 174.89 10.128C174.89 10.368 174.974 10.56 175.142 10.704C175.31 10.84 175.542 10.908 175.838 10.908C176.206 10.908 176.518 10.8 176.774 10.584C177.038 10.376 177.17 10.164 177.17 9.948V9.168ZM183.091 5.52C183.803 5.52 184.391 5.7 184.855 6.06C185.327 6.412 185.643 6.84 185.803 7.344C185.819 7.408 185.827 7.448 185.827 7.464C185.827 7.536 185.771 7.58 185.659 7.596L184.399 7.716H184.363C184.291 7.716 184.243 7.672 184.219 7.584C184.075 7.296 183.927 7.084 183.775 6.948C183.631 6.804 183.423 6.732 183.151 6.732C182.719 6.732 182.379 6.908 182.131 7.26C181.891 7.612 181.771 8.132 181.771 8.82C181.771 9.524 181.899 10.052 182.155 10.404C182.419 10.756 182.783 10.932 183.247 10.932C183.575 10.932 183.843 10.848 184.051 10.68C184.259 10.512 184.463 10.256 184.663 9.912C184.687 9.872 184.711 9.852 184.735 9.852C184.767 9.844 184.811 9.844 184.867 9.852L185.755 10.056C185.827 10.064 185.863 10.104 185.863 10.176L185.839 10.284C185.679 10.748 185.367 11.172 184.903 11.556C184.447 11.932 183.843 12.12 183.091 12.12C182.475 12.12 181.923 11.984 181.435 11.712C180.955 11.432 180.579 11.044 180.307 10.548C180.035 10.052 179.899 9.484 179.899 8.844C179.899 8.196 180.035 7.62 180.307 7.116C180.587 6.612 180.967 6.22 181.447 5.94C181.935 5.66 182.483 5.52 183.091 5.52ZM188.417 9.36C188.417 9.808 188.565 10.172 188.861 10.452C189.165 10.724 189.541 10.86 189.989 10.86C190.277 10.86 190.541 10.8 190.781 10.68C191.029 10.552 191.277 10.344 191.525 10.056C191.557 10.024 191.589 10.008 191.621 10.008C191.645 10.008 191.685 10.02 191.741 10.044L192.605 10.404C192.661 10.428 192.689 10.468 192.689 10.524C192.689 10.564 192.673 10.604 192.641 10.644C192.257 11.188 191.845 11.572 191.405 11.796C190.965 12.012 190.417 12.12 189.761 12.12C189.145 12.12 188.589 11.984 188.093 11.712C187.597 11.44 187.209 11.064 186.929 10.584C186.649 10.096 186.509 9.54 186.509 8.916C186.509 8.244 186.653 7.652 186.941 7.14C187.229 6.62 187.617 6.22 188.105 5.94C188.601 5.66 189.141 5.52 189.725 5.52C190.333 5.52 190.873 5.656 191.345 5.928C191.817 6.192 192.185 6.576 192.449 7.08C192.713 7.584 192.845 8.184 192.845 8.88C192.845 8.984 192.833 9.056 192.809 9.096C192.793 9.136 192.737 9.16 192.641 9.168H188.561C188.465 9.168 188.417 9.232 188.417 9.36ZM190.829 8.16C190.917 8.16 190.973 8.152 190.997 8.136C191.021 8.112 191.033 8.064 191.033 7.992C191.033 7.784 190.985 7.576 190.889 7.368C190.793 7.16 190.653 6.988 190.469 6.852C190.285 6.716 190.061 6.648 189.797 6.648C189.397 6.648 189.069 6.788 188.813 7.068C188.557 7.348 188.433 7.708 188.441 8.148L190.829 8.16ZM199.805 11.388C199.277 11.876 198.649 12.12 197.921 12.12C197.321 12.12 196.845 11.96 196.493 11.64C196.141 11.312 195.965 10.888 195.965 10.368C195.965 9.696 196.273 9.156 196.889 8.748C197.505 8.34 198.353 8.124 199.433 8.1L199.865 8.064C199.913 8.064 199.953 8.052 199.985 8.028C200.025 7.996 200.045 7.952 200.045 7.896V7.644C200.045 7.332 199.957 7.092 199.781 6.924C199.605 6.756 199.353 6.672 199.025 6.672C198.465 6.672 198.049 6.912 197.777 7.392C197.745 7.472 197.693 7.512 197.621 7.512C197.581 7.512 197.545 7.508 197.513 7.5L196.313 7.224C196.241 7.208 196.205 7.164 196.205 7.092C196.205 7.044 196.221 6.984 196.253 6.912C196.445 6.448 196.785 6.1 197.273 5.868C197.769 5.636 198.381 5.52 199.109 5.52C200.061 5.52 200.749 5.696 201.173 6.048C201.597 6.392 201.809 6.884 201.809 7.524V11.736C201.809 11.832 201.793 11.9 201.761 11.94C201.729 11.98 201.669 12 201.581 12H200.345C200.265 12 200.205 11.972 200.165 11.916C200.133 11.86 200.109 11.776 200.093 11.664L200.081 11.4C200.073 11.328 200.041 11.292 199.985 11.292C199.953 11.292 199.893 11.324 199.805 11.388ZM200.045 9.168C200.045 9.096 200.033 9.044 200.009 9.012C199.985 8.98 199.937 8.964 199.865 8.964L199.529 8.988C199.065 9.012 198.653 9.124 198.293 9.324C197.941 9.516 197.765 9.784 197.765 10.128C197.765 10.368 197.849 10.56 198.017 10.704C198.185 10.84 198.417 10.908 198.713 10.908C199.081 10.908 199.393 10.8 199.649 10.584C199.913 10.376 200.045 10.164 200.045 9.948V9.168ZM207.395 11.712C207.395 11.816 207.371 11.892 207.323 11.94C207.275 11.98 207.191 12 207.071 12H205.799C205.703 12 205.635 11.98 205.595 11.94C205.555 11.9 205.535 11.836 205.535 11.748L205.571 3.324C205.571 3.172 205.635 3.096 205.763 3.096H207.215C207.335 3.096 207.395 3.168 207.395 3.312V11.712ZM210.595 4.572C210.595 4.772 210.487 4.872 210.271 4.872H208.975C208.879 4.872 208.811 4.852 208.771 4.812C208.731 4.764 208.711 4.692 208.711 4.596V3.336C208.711 3.176 208.779 3.096 208.915 3.096H210.403C210.459 3.096 210.503 3.116 210.535 3.156C210.575 3.196 210.595 3.252 210.595 3.324V4.572ZM210.571 11.712C210.571 11.816 210.547 11.892 210.499 11.94C210.451 11.98 210.367 12 210.247 12H208.987C208.891 12 208.823 11.98 208.783 11.94C208.743 11.9 208.723 11.836 208.723 11.748V5.868C208.723 5.716 208.791 5.64 208.927 5.64H210.391C210.511 5.64 210.571 5.708 210.571 5.844V11.712ZM212.15 12C212.062 12 211.998 11.984 211.958 11.952C211.918 11.912 211.898 11.848 211.898 11.76V5.868C211.898 5.796 211.914 5.74 211.946 5.7C211.986 5.66 212.034 5.64 212.09 5.64H213.53C213.65 5.64 213.71 5.708 213.71 5.844V6.432C213.71 6.496 213.73 6.528 213.77 6.528C213.794 6.528 213.822 6.512 213.854 6.48C214.19 6.168 214.518 5.928 214.838 5.76C215.158 5.592 215.498 5.508 215.858 5.508C216.282 5.508 216.642 5.608 216.938 5.808C217.234 6.008 217.442 6.28 217.562 6.624C217.57 6.656 217.586 6.672 217.61 6.672C217.642 6.672 217.678 6.652 217.718 6.612C218.014 6.284 218.346 6.02 218.714 5.82C219.09 5.62 219.462 5.52 219.83 5.52C220.39 5.52 220.834 5.692 221.162 6.036C221.498 6.38 221.666 6.852 221.666 7.452V11.712C221.666 11.904 221.57 12 221.378 12H220.046C219.958 12 219.898 11.984 219.866 11.952C219.834 11.912 219.818 11.848 219.818 11.76V7.704C219.818 7.44 219.746 7.232 219.602 7.08C219.458 6.928 219.254 6.852 218.99 6.852C218.774 6.852 218.562 6.912 218.354 7.032C218.154 7.152 217.982 7.296 217.838 7.464C217.79 7.52 217.754 7.572 217.73 7.62C217.714 7.668 217.706 7.728 217.706 7.8V11.712C217.706 11.904 217.61 12 217.418 12H216.098C216.018 12 215.958 11.984 215.918 11.952C215.886 11.912 215.87 11.848 215.87 11.76V7.704C215.87 7.44 215.798 7.232 215.654 7.08C215.51 6.928 215.302 6.852 215.03 6.852C214.798 6.852 214.582 6.912 214.382 7.032C214.182 7.152 213.97 7.34 213.746 7.596V11.724C213.746 11.82 213.722 11.892 213.674 11.94C213.626 11.98 213.546 12 213.434 12H212.15ZM224.798 4.572C224.798 4.772 224.69 4.872 224.474 4.872H223.178C223.082 4.872 223.014 4.852 222.974 4.812C222.934 4.764 222.914 4.692 222.914 4.596V3.336C222.914 3.176 222.982 3.096 223.118 3.096H224.606C224.662 3.096 224.706 3.116 224.738 3.156C224.778 3.196 224.798 3.252 224.798 3.324V4.572ZM224.774 11.712C224.774 11.816 224.75 11.892 224.702 11.94C224.654 11.98 224.57 12 224.45 12H223.19C223.094 12 223.026 11.98 222.986 11.94C222.946 11.9 222.926 11.836 222.926 11.748V5.868C222.926 5.716 222.994 5.64 223.13 5.64H224.594C224.714 5.64 224.774 5.708 224.774 5.844V11.712ZM228.777 6.912C228.689 6.912 228.645 6.96 228.645 7.056V9.948C228.645 10.22 228.709 10.416 228.837 10.536C228.965 10.648 229.169 10.704 229.449 10.704H230.097C230.153 10.704 230.197 10.724 230.229 10.764C230.261 10.796 230.277 10.844 230.277 10.908L230.265 11.64C230.265 11.8 230.177 11.896 230.001 11.928C229.665 11.976 229.189 12 228.573 12C228.013 12 227.577 11.868 227.265 11.604C226.953 11.34 226.797 10.956 226.797 10.452V7.092C226.797 6.972 226.745 6.912 226.641 6.912H225.909C225.757 6.912 225.681 6.844 225.681 6.708V5.82C225.681 5.7 225.753 5.64 225.897 5.64H226.725C226.789 5.64 226.829 5.596 226.845 5.508L227.013 3.684C227.029 3.548 227.089 3.48 227.193 3.48H228.501C228.557 3.48 228.601 3.5 228.633 3.54C228.673 3.58 228.693 3.636 228.693 3.708V5.508C228.693 5.588 228.733 5.628 228.813 5.628H230.073C230.217 5.628 230.289 5.692 230.289 5.82V6.708C230.289 6.844 230.209 6.912 230.049 6.912H228.777ZM236.682 12.12C236.05 12.12 235.49 11.984 235.002 11.712C234.522 11.432 234.146 11.044 233.874 10.548C233.602 10.052 233.466 9.488 233.466 8.856C233.466 8.2 233.602 7.62 233.874 7.116C234.154 6.612 234.538 6.22 235.026 5.94C235.522 5.66 236.078 5.52 236.694 5.52C237.326 5.52 237.886 5.664 238.374 5.952C238.862 6.232 239.238 6.624 239.502 7.128C239.774 7.632 239.91 8.204 239.91 8.844C239.91 9.476 239.774 10.04 239.502 10.536C239.23 11.032 238.85 11.42 238.362 11.7C237.874 11.98 237.314 12.12 236.682 12.12ZM236.694 10.896C237.134 10.896 237.466 10.724 237.69 10.38C237.922 10.028 238.038 9.508 238.038 8.82C238.038 8.124 237.922 7.6 237.69 7.248C237.466 6.888 237.134 6.708 236.694 6.708C236.254 6.708 235.918 6.888 235.686 7.248C235.454 7.6 235.338 8.124 235.338 8.82C235.338 9.5 235.454 10.016 235.686 10.368C235.918 10.72 236.254 10.896 236.694 10.896ZM241.189 12C241.021 12 240.937 11.92 240.937 11.76V5.868C240.937 5.716 241.001 5.64 241.129 5.64H242.533C242.661 5.64 242.725 5.708 242.725 5.844V6.552C242.725 6.584 242.733 6.608 242.749 6.624C242.765 6.64 242.781 6.648 242.797 6.648C242.821 6.648 242.853 6.628 242.893 6.588C243.133 6.268 243.417 6.012 243.745 5.82C244.073 5.62 244.385 5.52 244.681 5.52C244.969 5.52 245.113 5.588 245.113 5.724V7.116C245.113 7.172 245.097 7.216 245.065 7.248C245.033 7.28 244.989 7.288 244.933 7.272C244.677 7.208 244.397 7.176 244.093 7.176C243.893 7.176 243.689 7.228 243.481 7.332C243.281 7.428 243.113 7.56 242.977 7.728C242.849 7.888 242.785 8.052 242.785 8.22V11.724C242.785 11.908 242.681 12 242.473 12H241.189ZM250.264 12C250.096 12 250.012 11.92 250.012 11.76V11.424C250.012 11.36 249.992 11.328 249.952 11.328C249.928 11.328 249.892 11.344 249.844 11.376C249.612 11.6 249.356 11.78 249.076 11.916C248.804 12.052 248.476 12.12 248.092 12.12C247.34 12.12 246.732 11.84 246.268 11.28C245.812 10.72 245.583 9.916 245.583 8.868C245.583 8.212 245.7 7.632 245.932 7.128C246.172 6.616 246.492 6.22 246.892 5.94C247.292 5.66 247.732 5.52 248.212 5.52C248.524 5.52 248.804 5.572 249.052 5.676C249.308 5.78 249.552 5.94 249.784 6.156C249.84 6.196 249.88 6.216 249.904 6.216C249.96 6.216 249.988 6.164 249.988 6.06V3.312C249.988 3.168 250.052 3.096 250.18 3.096H251.644C251.7 3.096 251.744 3.116 251.776 3.156C251.816 3.196 251.836 3.252 251.836 3.324V11.748C251.836 11.836 251.816 11.9 251.776 11.94C251.736 11.98 251.664 12 251.56 12H250.264ZM249.988 7.296C249.804 7.096 249.62 6.948 249.436 6.852C249.26 6.756 249.06 6.708 248.836 6.708C248.412 6.708 248.076 6.884 247.828 7.236C247.58 7.58 247.456 8.116 247.456 8.844C247.456 9.58 247.576 10.12 247.816 10.464C248.056 10.8 248.388 10.968 248.812 10.968C249.132 10.968 249.408 10.864 249.64 10.656C249.872 10.44 249.988 10.192 249.988 9.912V7.296ZM254.78 9.36C254.78 9.808 254.928 10.172 255.224 10.452C255.528 10.724 255.904 10.86 256.352 10.86C256.64 10.86 256.904 10.8 257.144 10.68C257.392 10.552 257.64 10.344 257.888 10.056C257.92 10.024 257.952 10.008 257.984 10.008C258.008 10.008 258.048 10.02 258.104 10.044L258.968 10.404C259.024 10.428 259.052 10.468 259.052 10.524C259.052 10.564 259.036 10.604 259.004 10.644C258.62 11.188 258.208 11.572 257.768 11.796C257.328 12.012 256.78 12.12 256.124 12.12C255.508 12.12 254.952 11.984 254.456 11.712C253.96 11.44 253.572 11.064 253.292 10.584C253.012 10.096 252.872 9.54 252.872 8.916C252.872 8.244 253.016 7.652 253.304 7.14C253.592 6.62 253.98 6.22 254.468 5.94C254.964 5.66 255.504 5.52 256.088 5.52C256.696 5.52 257.236 5.656 257.708 5.928C258.18 6.192 258.548 6.576 258.812 7.08C259.076 7.584 259.208 8.184 259.208 8.88C259.208 8.984 259.196 9.056 259.172 9.096C259.156 9.136 259.1 9.16 259.004 9.168H254.924C254.828 9.168 254.78 9.232 254.78 9.36ZM257.192 8.16C257.28 8.16 257.336 8.152 257.36 8.136C257.384 8.112 257.396 8.064 257.396 7.992C257.396 7.784 257.348 7.576 257.252 7.368C257.156 7.16 257.016 6.988 256.832 6.852C256.648 6.716 256.424 6.648 256.16 6.648C255.76 6.648 255.432 6.788 255.176 7.068C254.92 7.348 254.796 7.708 254.804 8.148L257.192 8.16ZM260.443 12C260.275 12 260.191 11.92 260.191 11.76V5.868C260.191 5.716 260.255 5.64 260.383 5.64H261.787C261.915 5.64 261.979 5.708 261.979 5.844V6.552C261.979 6.584 261.987 6.608 262.003 6.624C262.019 6.64 262.035 6.648 262.051 6.648C262.075 6.648 262.107 6.628 262.147 6.588C262.387 6.268 262.671 6.012 262.999 5.82C263.327 5.62 263.639 5.52 263.935 5.52C264.223 5.52 264.367 5.588 264.367 5.724V7.116C264.367 7.172 264.351 7.216 264.319 7.248C264.287 7.28 264.243 7.288 264.187 7.272C263.931 7.208 263.651 7.176 263.347 7.176C263.147 7.176 262.943 7.228 262.735 7.332C262.535 7.428 262.367 7.56 262.231 7.728C262.103 7.888 262.039 8.052 262.039 8.22V11.724C262.039 11.908 261.935 12 261.727 12H260.443Z" fill="#12B2FF"/>
<path d="M376.84 165.324C376.84 165.172 376.904 165.096 377.032 165.096H382.984C383.104 165.096 383.164 165.164 383.164 165.3L383.152 166.38C383.152 166.548 383.072 166.632 382.912 166.632H379.168C379.088 166.632 379.028 166.648 378.988 166.68C378.956 166.712 378.94 166.76 378.94 166.824V168.684C378.94 168.812 379 168.876 379.12 168.876H381.724C381.852 168.876 381.916 168.94 381.916 169.068V170.208C381.916 170.32 381.856 170.376 381.736 170.376H379.108C378.996 170.376 378.94 170.428 378.94 170.532V173.724C378.94 173.828 378.916 173.9 378.868 173.94C378.82 173.98 378.74 174 378.628 174H377.104C377.008 174 376.94 173.98 376.9 173.94C376.86 173.9 376.84 173.836 376.84 173.748V165.324ZM386.319 172.788C386.759 172.788 387.195 172.552 387.627 172.08V167.916C387.627 167.732 387.731 167.64 387.939 167.64H389.235C389.331 167.64 389.395 167.66 389.427 167.7C389.467 167.74 389.487 167.804 389.487 167.892L389.463 173.784C389.463 173.848 389.443 173.9 389.403 173.94C389.371 173.98 389.327 174 389.271 174H387.843C387.723 174 387.663 173.932 387.663 173.796V173.208C387.663 173.16 387.651 173.132 387.627 173.124C387.603 173.116 387.571 173.128 387.531 173.16C387.195 173.504 386.863 173.752 386.535 173.904C386.207 174.048 385.851 174.12 385.467 174.12C384.931 174.12 384.491 173.948 384.147 173.604C383.803 173.252 383.631 172.78 383.631 172.188V167.928C383.631 167.736 383.727 167.64 383.919 167.64H385.251C385.403 167.64 385.479 167.724 385.479 167.892V171.924C385.479 172.188 385.555 172.4 385.707 172.56C385.859 172.712 386.063 172.788 386.319 172.788ZM391.045 174C390.957 174 390.893 173.984 390.853 173.952C390.813 173.912 390.793 173.848 390.793 173.76V167.868C390.793 167.716 390.857 167.64 390.985 167.64H392.437C392.557 167.64 392.617 167.708 392.617 167.844V168.432C392.617 168.496 392.637 168.528 392.677 168.528C392.701 168.528 392.729 168.512 392.761 168.48C393.089 168.168 393.417 167.932 393.745 167.772C394.073 167.604 394.421 167.52 394.789 167.52C395.373 167.52 395.833 167.692 396.169 168.036C396.513 168.38 396.685 168.84 396.685 169.416V173.712C396.685 173.904 396.589 174 396.397 174H395.065C394.977 174 394.917 173.984 394.885 173.952C394.853 173.912 394.837 173.848 394.837 173.76V169.704C394.837 169.432 394.761 169.224 394.609 169.08C394.465 168.928 394.249 168.852 393.961 168.852C393.721 168.852 393.497 168.912 393.289 169.032C393.089 169.152 392.873 169.34 392.641 169.596V173.724C392.641 173.82 392.617 173.892 392.569 173.94C392.521 173.98 392.441 174 392.329 174H391.045ZM402.357 174C402.189 174 402.105 173.92 402.105 173.76V173.424C402.105 173.36 402.085 173.328 402.045 173.328C402.021 173.328 401.985 173.344 401.937 173.376C401.705 173.6 401.449 173.78 401.169 173.916C400.897 174.052 400.569 174.12 400.185 174.12C399.433 174.12 398.825 173.84 398.361 173.28C397.905 172.72 397.677 171.916 397.677 170.868C397.677 170.212 397.793 169.632 398.025 169.128C398.265 168.616 398.585 168.22 398.985 167.94C399.385 167.66 399.825 167.52 400.305 167.52C400.617 167.52 400.897 167.572 401.145 167.676C401.401 167.78 401.645 167.94 401.877 168.156C401.933 168.196 401.973 168.216 401.997 168.216C402.053 168.216 402.081 168.164 402.081 168.06V165.312C402.081 165.168 402.145 165.096 402.273 165.096H403.737C403.793 165.096 403.837 165.116 403.869 165.156C403.909 165.196 403.929 165.252 403.929 165.324V173.748C403.929 173.836 403.909 173.9 403.869 173.94C403.829 173.98 403.757 174 403.653 174H402.357ZM402.081 169.296C401.897 169.096 401.713 168.948 401.529 168.852C401.353 168.756 401.153 168.708 400.929 168.708C400.505 168.708 400.169 168.884 399.921 169.236C399.673 169.58 399.549 170.116 399.549 170.844C399.549 171.58 399.669 172.12 399.909 172.464C400.149 172.8 400.481 172.968 400.905 172.968C401.225 172.968 401.501 172.864 401.733 172.656C401.965 172.44 402.081 172.192 402.081 171.912V169.296ZM408.314 175.98C408.05 175.98 407.866 175.964 407.762 175.932C407.658 175.908 407.606 175.848 407.606 175.752V174.828C407.606 174.7 407.722 174.636 407.954 174.636H408.77C409.01 174.636 409.218 174.544 409.394 174.36C409.57 174.184 409.658 173.996 409.658 173.796C409.658 173.724 409.646 173.66 409.622 173.604L407.318 167.928C407.302 167.88 407.294 167.848 407.294 167.832C407.294 167.776 407.314 167.732 407.354 167.7C407.394 167.66 407.446 167.64 407.51 167.64H409.022C409.078 167.64 409.13 167.66 409.178 167.7C409.234 167.732 409.27 167.78 409.286 167.844L410.618 171.42C410.642 171.5 410.674 171.54 410.714 171.54C410.746 171.54 410.782 171.496 410.822 171.408L412.142 167.832C412.198 167.704 412.286 167.64 412.406 167.64H413.438C413.494 167.64 413.538 167.66 413.57 167.7C413.61 167.732 413.63 167.772 413.63 167.82C413.63 167.836 413.622 167.868 413.606 167.916L411.146 174C410.922 174.552 410.686 174.968 410.438 175.248C410.19 175.528 409.902 175.72 409.574 175.824C409.254 175.928 408.834 175.98 408.314 175.98ZM417.451 174.12C416.819 174.12 416.259 173.984 415.771 173.712C415.291 173.432 414.915 173.044 414.643 172.548C414.371 172.052 414.235 171.488 414.235 170.856C414.235 170.2 414.371 169.62 414.643 169.116C414.923 168.612 415.307 168.22 415.795 167.94C416.291 167.66 416.847 167.52 417.463 167.52C418.095 167.52 418.655 167.664 419.143 167.952C419.631 168.232 420.007 168.624 420.271 169.128C420.543 169.632 420.679 170.204 420.679 170.844C420.679 171.476 420.543 172.04 420.271 172.536C419.999 173.032 419.619 173.42 419.131 173.7C418.643 173.98 418.083 174.12 417.451 174.12ZM417.463 172.896C417.903 172.896 418.235 172.724 418.459 172.38C418.691 172.028 418.807 171.508 418.807 170.82C418.807 170.124 418.691 169.6 418.459 169.248C418.235 168.888 417.903 168.708 417.463 168.708C417.023 168.708 416.687 168.888 416.455 169.248C416.223 169.6 416.107 170.124 416.107 170.82C416.107 171.5 416.223 172.016 416.455 172.368C416.687 172.72 417.023 172.896 417.463 172.896ZM424.335 172.788C424.775 172.788 425.211 172.552 425.643 172.08V167.916C425.643 167.732 425.747 167.64 425.955 167.64H427.251C427.347 167.64 427.411 167.66 427.443 167.7C427.483 167.74 427.503 167.804 427.503 167.892L427.479 173.784C427.479 173.848 427.459 173.9 427.419 173.94C427.387 173.98 427.343 174 427.287 174H425.859C425.739 174 425.679 173.932 425.679 173.796V173.208C425.679 173.16 425.667 173.132 425.643 173.124C425.619 173.116 425.587 173.128 425.547 173.16C425.211 173.504 424.879 173.752 424.551 173.904C424.223 174.048 423.867 174.12 423.483 174.12C422.947 174.12 422.507 173.948 422.163 173.604C421.819 173.252 421.647 172.78 421.647 172.188V167.928C421.647 167.736 421.743 167.64 421.935 167.64H423.267C423.419 167.64 423.495 167.724 423.495 167.892V171.924C423.495 172.188 423.571 172.4 423.723 172.56C423.875 172.712 424.079 172.788 424.335 172.788ZM429.06 174C428.892 174 428.808 173.92 428.808 173.76V167.868C428.808 167.716 428.872 167.64 429 167.64H430.404C430.532 167.64 430.596 167.708 430.596 167.844V168.552C430.596 168.584 430.604 168.608 430.62 168.624C430.636 168.64 430.652 168.648 430.668 168.648C430.692 168.648 430.724 168.628 430.764 168.588C431.004 168.268 431.288 168.012 431.616 167.82C431.944 167.62 432.256 167.52 432.552 167.52C432.84 167.52 432.984 167.588 432.984 167.724V169.116C432.984 169.172 432.968 169.216 432.936 169.248C432.904 169.28 432.86 169.288 432.804 169.272C432.548 169.208 432.268 169.176 431.964 169.176C431.764 169.176 431.56 169.228 431.352 169.332C431.152 169.428 430.984 169.56 430.848 169.728C430.72 169.888 430.656 170.052 430.656 170.22V173.724C430.656 173.908 430.552 174 430.344 174H429.06ZM380.164 188.388C379.636 188.876 379.008 189.12 378.28 189.12C377.68 189.12 377.204 188.96 376.852 188.64C376.5 188.312 376.324 187.888 376.324 187.368C376.324 186.696 376.632 186.156 377.248 185.748C377.864 185.34 378.712 185.124 379.792 185.1L380.224 185.064C380.272 185.064 380.312 185.052 380.344 185.028C380.384 184.996 380.404 184.952 380.404 184.896V184.644C380.404 184.332 380.316 184.092 380.14 183.924C379.964 183.756 379.712 183.672 379.384 183.672C378.824 183.672 378.408 183.912 378.136 184.392C378.104 184.472 378.052 184.512 377.98 184.512C377.94 184.512 377.904 184.508 377.872 184.5L376.672 184.224C376.6 184.208 376.564 184.164 376.564 184.092C376.564 184.044 376.58 183.984 376.612 183.912C376.804 183.448 377.144 183.1 377.632 182.868C378.128 182.636 378.74 182.52 379.468 182.52C380.42 182.52 381.108 182.696 381.532 183.048C381.956 183.392 382.168 183.884 382.168 184.524V188.736C382.168 188.832 382.152 188.9 382.12 188.94C382.088 188.98 382.028 189 381.94 189H380.704C380.624 189 380.564 188.972 380.524 188.916C380.492 188.86 380.468 188.776 380.452 188.664L380.44 188.4C380.432 188.328 380.4 188.292 380.344 188.292C380.312 188.292 380.252 188.324 380.164 188.388ZM380.404 186.168C380.404 186.096 380.392 186.044 380.368 186.012C380.344 185.98 380.296 185.964 380.224 185.964L379.888 185.988C379.424 186.012 379.012 186.124 378.652 186.324C378.3 186.516 378.124 186.784 378.124 187.128C378.124 187.368 378.208 187.56 378.376 187.704C378.544 187.84 378.776 187.908 379.072 187.908C379.44 187.908 379.752 187.8 380.008 187.584C380.272 187.376 380.404 187.164 380.404 186.948V186.168ZM386.326 182.52C387.038 182.52 387.626 182.7 388.09 183.06C388.562 183.412 388.878 183.84 389.038 184.344C389.054 184.408 389.062 184.448 389.062 184.464C389.062 184.536 389.006 184.58 388.894 184.596L387.634 184.716H387.598C387.526 184.716 387.478 184.672 387.454 184.584C387.31 184.296 387.162 184.084 387.01 183.948C386.866 183.804 386.658 183.732 386.386 183.732C385.954 183.732 385.614 183.908 385.366 184.26C385.126 184.612 385.006 185.132 385.006 185.82C385.006 186.524 385.134 187.052 385.39 187.404C385.654 187.756 386.018 187.932 386.482 187.932C386.81 187.932 387.078 187.848 387.286 187.68C387.494 187.512 387.698 187.256 387.898 186.912C387.922 186.872 387.946 186.852 387.97 186.852C388.002 186.844 388.046 186.844 388.102 186.852L388.99 187.056C389.062 187.064 389.098 187.104 389.098 187.176L389.074 187.284C388.914 187.748 388.602 188.172 388.138 188.556C387.682 188.932 387.078 189.12 386.326 189.12C385.71 189.12 385.158 188.984 384.67 188.712C384.19 188.432 383.814 188.044 383.542 187.548C383.27 187.052 383.134 186.484 383.134 185.844C383.134 185.196 383.27 184.62 383.542 184.116C383.822 183.612 384.202 183.22 384.682 182.94C385.17 182.66 385.718 182.52 386.326 182.52ZM392.935 182.52C393.647 182.52 394.235 182.7 394.699 183.06C395.171 183.412 395.487 183.84 395.647 184.344C395.663 184.408 395.671 184.448 395.671 184.464C395.671 184.536 395.615 184.58 395.503 184.596L394.243 184.716H394.207C394.135 184.716 394.087 184.672 394.063 184.584C393.919 184.296 393.771 184.084 393.619 183.948C393.475 183.804 393.267 183.732 392.995 183.732C392.563 183.732 392.223 183.908 391.975 184.26C391.735 184.612 391.615 185.132 391.615 185.82C391.615 186.524 391.743 187.052 391.999 187.404C392.263 187.756 392.627 187.932 393.091 187.932C393.419 187.932 393.687 187.848 393.895 187.68C394.103 187.512 394.307 187.256 394.507 186.912C394.531 186.872 394.555 186.852 394.579 186.852C394.611 186.844 394.655 186.844 394.711 186.852L395.599 187.056C395.671 187.064 395.707 187.104 395.707 187.176L395.683 187.284C395.523 187.748 395.211 188.172 394.747 188.556C394.291 188.932 393.687 189.12 392.935 189.12C392.319 189.12 391.767 188.984 391.279 188.712C390.799 188.432 390.423 188.044 390.151 187.548C389.879 187.052 389.743 186.484 389.743 185.844C389.743 185.196 389.879 184.62 390.151 184.116C390.431 183.612 390.811 183.22 391.291 182.94C391.779 182.66 392.327 182.52 392.935 182.52ZM399.568 189.12C398.936 189.12 398.376 188.984 397.888 188.712C397.408 188.432 397.032 188.044 396.76 187.548C396.488 187.052 396.352 186.488 396.352 185.856C396.352 185.2 396.488 184.62 396.76 184.116C397.04 183.612 397.424 183.22 397.912 182.94C398.408 182.66 398.964 182.52 399.58 182.52C400.212 182.52 400.772 182.664 401.26 182.952C401.748 183.232 402.124 183.624 402.388 184.128C402.66 184.632 402.796 185.204 402.796 185.844C402.796 186.476 402.66 187.04 402.388 187.536C402.116 188.032 401.736 188.42 401.248 188.7C400.76 188.98 400.2 189.12 399.568 189.12ZM399.58 187.896C400.02 187.896 400.352 187.724 400.576 187.38C400.808 187.028 400.924 186.508 400.924 185.82C400.924 185.124 400.808 184.6 400.576 184.248C400.352 183.888 400.02 183.708 399.58 183.708C399.14 183.708 398.804 183.888 398.572 184.248C398.34 184.6 398.224 185.124 398.224 185.82C398.224 186.5 398.34 187.016 398.572 187.368C398.804 187.72 399.14 187.896 399.58 187.896ZM406.452 187.788C406.892 187.788 407.328 187.552 407.76 187.08V182.916C407.76 182.732 407.864 182.64 408.072 182.64H409.368C409.464 182.64 409.528 182.66 409.56 182.7C409.6 182.74 409.62 182.804 409.62 182.892L409.596 188.784C409.596 188.848 409.576 188.9 409.536 188.94C409.504 188.98 409.46 189 409.404 189H407.976C407.856 189 407.796 188.932 407.796 188.796V188.208C407.796 188.16 407.784 188.132 407.76 188.124C407.736 188.116 407.704 188.128 407.664 188.16C407.328 188.504 406.996 188.752 406.668 188.904C406.34 189.048 405.984 189.12 405.6 189.12C405.064 189.12 404.624 188.948 404.28 188.604C403.936 188.252 403.764 187.78 403.764 187.188V182.928C403.764 182.736 403.86 182.64 404.052 182.64H405.384C405.536 182.64 405.612 182.724 405.612 182.892V186.924C405.612 187.188 405.688 187.4 405.84 187.56C405.992 187.712 406.196 187.788 406.452 187.788ZM411.178 189C411.09 189 411.026 188.984 410.986 188.952C410.946 188.912 410.926 188.848 410.926 188.76V182.868C410.926 182.716 410.99 182.64 411.118 182.64H412.57C412.69 182.64 412.75 182.708 412.75 182.844V183.432C412.75 183.496 412.77 183.528 412.81 183.528C412.834 183.528 412.862 183.512 412.894 183.48C413.222 183.168 413.55 182.932 413.878 182.772C414.206 182.604 414.554 182.52 414.922 182.52C415.506 182.52 415.966 182.692 416.302 183.036C416.646 183.38 416.818 183.84 416.818 184.416V188.712C416.818 188.904 416.722 189 416.53 189H415.198C415.11 189 415.05 188.984 415.018 188.952C414.986 188.912 414.97 188.848 414.97 188.76V184.704C414.97 184.432 414.894 184.224 414.742 184.08C414.598 183.928 414.382 183.852 414.094 183.852C413.854 183.852 413.63 183.912 413.422 184.032C413.222 184.152 413.006 184.34 412.774 184.596V188.724C412.774 188.82 412.75 188.892 412.702 188.94C412.654 188.98 412.574 189 412.462 189H411.178ZM420.75 183.912C420.662 183.912 420.618 183.96 420.618 184.056V186.948C420.618 187.22 420.682 187.416 420.81 187.536C420.938 187.648 421.142 187.704 421.422 187.704H422.07C422.126 187.704 422.17 187.724 422.202 187.764C422.234 187.796 422.25 187.844 422.25 187.908L422.238 188.64C422.238 188.8 422.15 188.896 421.974 188.928C421.638 188.976 421.162 189 420.546 189C419.986 189 419.55 188.868 419.238 188.604C418.926 188.34 418.77 187.956 418.77 187.452V184.092C418.77 183.972 418.718 183.912 418.614 183.912H417.882C417.73 183.912 417.654 183.844 417.654 183.708V182.82C417.654 182.7 417.726 182.64 417.87 182.64H418.698C418.762 182.64 418.802 182.596 418.818 182.508L418.986 180.684C419.002 180.548 419.062 180.48 419.166 180.48H420.474C420.53 180.48 420.574 180.5 420.606 180.54C420.646 180.58 420.666 180.636 420.666 180.708V182.508C420.666 182.588 420.706 182.628 420.786 182.628H422.046C422.19 182.628 422.262 182.692 422.262 182.82V183.708C422.262 183.844 422.182 183.912 422.022 183.912H420.75Z" fill="#12B2FF"/>
<path d="M11.584 172.976C12.192 172.976 12.752 173.092 13.264 173.324C13.776 173.556 14.196 173.872 14.524 174.272C14.86 174.672 15.072 175.12 15.16 175.616C15.176 175.672 15.184 175.736 15.184 175.808C15.184 175.856 15.172 175.888 15.148 175.904C15.124 175.92 15.088 175.932 15.04 175.94L13.42 176.048C13.348 176.048 13.3 176.036 13.276 176.012C13.26 175.988 13.244 175.94 13.228 175.868C13.14 175.428 12.964 175.08 12.7 174.824C12.436 174.568 12.084 174.44 11.644 174.44C10.364 174.44 9.724 175.464 9.724 177.512C9.724 178.576 9.884 179.352 10.204 179.84C10.524 180.328 11.012 180.572 11.668 180.572C12.148 180.572 12.552 180.452 12.88 180.212C13.216 179.972 13.488 179.58 13.696 179.036C13.72 178.98 13.772 178.952 13.852 178.952C13.9 178.952 13.936 178.956 13.96 178.964L15.136 179.216C15.248 179.256 15.292 179.356 15.268 179.516C15.188 179.86 15 180.232 14.704 180.632C14.416 181.032 14.008 181.38 13.48 181.676C12.952 181.972 12.32 182.12 11.584 182.12C10.76 182.12 10.04 181.928 9.424 181.544C8.816 181.152 8.348 180.608 8.02 179.912C7.692 179.208 7.528 178.396 7.528 177.476C7.528 176.564 7.692 175.768 8.02 175.088C8.348 174.408 8.816 173.888 9.424 173.528C10.04 173.16 10.76 172.976 11.584 172.976ZM19.2833 182.12C18.6513 182.12 18.0913 181.984 17.6033 181.712C17.1233 181.432 16.7473 181.044 16.4753 180.548C16.2033 180.052 16.0673 179.488 16.0673 178.856C16.0673 178.2 16.2033 177.62 16.4753 177.116C16.7553 176.612 17.1393 176.22 17.6273 175.94C18.1233 175.66 18.6793 175.52 19.2953 175.52C19.9273 175.52 20.4873 175.664 20.9753 175.952C21.4633 176.232 21.8393 176.624 22.1033 177.128C22.3753 177.632 22.5113 178.204 22.5113 178.844C22.5113 179.476 22.3753 180.04 22.1033 180.536C21.8313 181.032 21.4513 181.42 20.9633 181.7C20.4753 181.98 19.9153 182.12 19.2833 182.12ZM19.2953 180.896C19.7353 180.896 20.0673 180.724 20.2913 180.38C20.5233 180.028 20.6393 179.508 20.6393 178.82C20.6393 178.124 20.5233 177.6 20.2913 177.248C20.0673 176.888 19.7353 176.708 19.2953 176.708C18.8553 176.708 18.5193 176.888 18.2873 177.248C18.0553 177.6 17.9393 178.124 17.9393 178.82C17.9393 179.5 18.0553 180.016 18.2873 180.368C18.5193 180.72 18.8553 180.896 19.2953 180.896ZM25.3989 181.712C25.3989 181.816 25.3749 181.892 25.3269 181.94C25.2789 181.98 25.1949 182 25.0749 182H23.8029C23.7069 182 23.6389 181.98 23.5989 181.94C23.5589 181.9 23.5389 181.836 23.5389 181.748L23.5749 173.324C23.5749 173.172 23.6389 173.096 23.7669 173.096H25.2189C25.3389 173.096 25.3989 173.168 25.3989 173.312V181.712ZM28.5864 181.712C28.5864 181.816 28.5624 181.892 28.5144 181.94C28.4664 181.98 28.3824 182 28.2624 182H26.9904C26.8944 182 26.8264 181.98 26.7864 181.94C26.7464 181.9 26.7264 181.836 26.7264 181.748L26.7624 173.324C26.7624 173.172 26.8264 173.096 26.9544 173.096H28.4064C28.5264 173.096 28.5864 173.168 28.5864 173.312V181.712ZM31.5339 179.36C31.5339 179.808 31.6819 180.172 31.9779 180.452C32.2819 180.724 32.6579 180.86 33.1059 180.86C33.3939 180.86 33.6579 180.8 33.8979 180.68C34.1459 180.552 34.3939 180.344 34.6419 180.056C34.6739 180.024 34.7059 180.008 34.7379 180.008C34.7619 180.008 34.8019 180.02 34.8579 180.044L35.7219 180.404C35.7779 180.428 35.8059 180.468 35.8059 180.524C35.8059 180.564 35.7899 180.604 35.7579 180.644C35.3739 181.188 34.9619 181.572 34.5219 181.796C34.0819 182.012 33.5339 182.12 32.8779 182.12C32.2619 182.12 31.7059 181.984 31.2099 181.712C30.7139 181.44 30.3259 181.064 30.0459 180.584C29.7659 180.096 29.6259 179.54 29.6259 178.916C29.6259 178.244 29.7699 177.652 30.0579 177.14C30.3459 176.62 30.7339 176.22 31.2219 175.94C31.7179 175.66 32.2579 175.52 32.8419 175.52C33.4499 175.52 33.9899 175.656 34.4619 175.928C34.9339 176.192 35.3019 176.576 35.5659 177.08C35.8299 177.584 35.9619 178.184 35.9619 178.88C35.9619 178.984 35.9499 179.056 35.9259 179.096C35.9099 179.136 35.8539 179.16 35.7579 179.168H31.6779C31.5819 179.168 31.5339 179.232 31.5339 179.36ZM33.9459 178.16C34.0339 178.16 34.0899 178.152 34.1139 178.136C34.1379 178.112 34.1499 178.064 34.1499 177.992C34.1499 177.784 34.1019 177.576 34.0059 177.368C33.9099 177.16 33.7699 176.988 33.5859 176.852C33.4019 176.716 33.1779 176.648 32.9139 176.648C32.5139 176.648 32.1859 176.788 31.9299 177.068C31.6739 177.348 31.5499 177.708 31.5579 178.148L33.9459 178.16ZM39.8492 175.52C40.5612 175.52 41.1492 175.7 41.6132 176.06C42.0852 176.412 42.4012 176.84 42.5612 177.344C42.5772 177.408 42.5852 177.448 42.5852 177.464C42.5852 177.536 42.5292 177.58 42.4172 177.596L41.1572 177.716H41.1212C41.0492 177.716 41.0012 177.672 40.9772 177.584C40.8332 177.296 40.6852 177.084 40.5332 176.948C40.3892 176.804 40.1812 176.732 39.9092 176.732C39.4772 176.732 39.1372 176.908 38.8892 177.26C38.6492 177.612 38.5292 178.132 38.5292 178.82C38.5292 179.524 38.6572 180.052 38.9132 180.404C39.1772 180.756 39.5412 180.932 40.0052 180.932C40.3332 180.932 40.6012 180.848 40.8092 180.68C41.0172 180.512 41.2212 180.256 41.4212 179.912C41.4452 179.872 41.4692 179.852 41.4932 179.852C41.5252 179.844 41.5692 179.844 41.6252 179.852L42.5132 180.056C42.5852 180.064 42.6212 180.104 42.6212 180.176L42.5972 180.284C42.4372 180.748 42.1252 181.172 41.6612 181.556C41.2052 181.932 40.6012 182.12 39.8492 182.12C39.2332 182.12 38.6812 181.984 38.1932 181.712C37.7132 181.432 37.3372 181.044 37.0652 180.548C36.7932 180.052 36.6572 179.484 36.6572 178.844C36.6572 178.196 36.7932 177.62 37.0652 177.116C37.3452 176.612 37.7252 176.22 38.2052 175.94C38.6932 175.66 39.2412 175.52 39.8492 175.52ZM46.2305 176.912C46.1425 176.912 46.0985 176.96 46.0985 177.056V179.948C46.0985 180.22 46.1625 180.416 46.2905 180.536C46.4185 180.648 46.6225 180.704 46.9025 180.704H47.5505C47.6065 180.704 47.6505 180.724 47.6825 180.764C47.7145 180.796 47.7305 180.844 47.7305 180.908L47.7185 181.64C47.7185 181.8 47.6305 181.896 47.4545 181.928C47.1185 181.976 46.6425 182 46.0265 182C45.4665 182 45.0305 181.868 44.7185 181.604C44.4065 181.34 44.2505 180.956 44.2505 180.452V177.092C44.2505 176.972 44.1985 176.912 44.0945 176.912H43.3625C43.2105 176.912 43.1345 176.844 43.1345 176.708V175.82C43.1345 175.7 43.2065 175.64 43.3505 175.64H44.1785C44.2425 175.64 44.2825 175.596 44.2985 175.508L44.4665 173.684C44.4825 173.548 44.5425 173.48 44.6465 173.48H45.9545C46.0105 173.48 46.0545 173.5 46.0865 173.54C46.1265 173.58 46.1465 173.636 46.1465 173.708V175.508C46.1465 175.588 46.1865 175.628 46.2665 175.628H47.5265C47.6705 175.628 47.7425 175.692 47.7425 175.82V176.708C47.7425 176.844 47.6625 176.912 47.5025 176.912H46.2305Z" fill="#12B2FF"/>
<path d="M165.124 349.868C165.124 350.732 164.824 351.404 164.224 351.884C163.632 352.356 162.848 352.592 161.872 352.592H160.072C159.984 352.592 159.94 352.636 159.94 352.724V355.724C159.94 355.908 159.836 356 159.628 356H158.092C157.996 356 157.928 355.98 157.888 355.94C157.856 355.9 157.84 355.84 157.84 355.76V347.324C157.84 347.172 157.904 347.096 158.032 347.096H161.632C162.296 347.096 162.888 347.2 163.408 347.408C163.936 347.608 164.352 347.916 164.656 348.332C164.968 348.748 165.124 349.26 165.124 349.868ZM162.964 349.832C162.964 349.424 162.832 349.116 162.568 348.908C162.304 348.7 161.948 348.596 161.5 348.596H160.168C160.088 348.596 160.028 348.612 159.988 348.644C159.956 348.676 159.94 348.732 159.94 348.812V350.864C159.94 350.944 159.952 351.004 159.976 351.044C160 351.076 160.044 351.092 160.108 351.092H161.584C162.008 351.092 162.344 350.98 162.592 350.756C162.84 350.532 162.964 350.224 162.964 349.832ZM166.49 356C166.322 356 166.238 355.92 166.238 355.76V349.868C166.238 349.716 166.302 349.64 166.43 349.64H167.834C167.962 349.64 168.026 349.708 168.026 349.844V350.552C168.026 350.584 168.034 350.608 168.05 350.624C168.066 350.64 168.082 350.648 168.098 350.648C168.122 350.648 168.154 350.628 168.194 350.588C168.434 350.268 168.718 350.012 169.046 349.82C169.374 349.62 169.686 349.52 169.982 349.52C170.27 349.52 170.414 349.588 170.414 349.724V351.116C170.414 351.172 170.398 351.216 170.366 351.248C170.334 351.28 170.29 351.288 170.234 351.272C169.978 351.208 169.698 351.176 169.394 351.176C169.194 351.176 168.99 351.228 168.782 351.332C168.582 351.428 168.414 351.56 168.278 351.728C168.15 351.888 168.086 352.052 168.086 352.22V355.724C168.086 355.908 167.982 356 167.774 356H166.49ZM174.076 356.12C173.444 356.12 172.884 355.984 172.396 355.712C171.916 355.432 171.54 355.044 171.268 354.548C170.996 354.052 170.86 353.488 170.86 352.856C170.86 352.2 170.996 351.62 171.268 351.116C171.548 350.612 171.932 350.22 172.42 349.94C172.916 349.66 173.472 349.52 174.088 349.52C174.72 349.52 175.28 349.664 175.768 349.952C176.256 350.232 176.632 350.624 176.896 351.128C177.168 351.632 177.304 352.204 177.304 352.844C177.304 353.476 177.168 354.04 176.896 354.536C176.624 355.032 176.244 355.42 175.756 355.7C175.268 355.98 174.708 356.12 174.076 356.12ZM174.088 354.896C174.528 354.896 174.86 354.724 175.084 354.38C175.316 354.028 175.432 353.508 175.432 352.82C175.432 352.124 175.316 351.6 175.084 351.248C174.86 350.888 174.528 350.708 174.088 350.708C173.648 350.708 173.312 350.888 173.08 351.248C172.848 351.6 172.732 352.124 172.732 352.82C172.732 353.5 172.848 354.016 173.08 354.368C173.312 354.72 173.648 354.896 174.088 354.896ZM181.236 349.52C181.948 349.52 182.536 349.7 183 350.06C183.472 350.412 183.788 350.84 183.948 351.344C183.964 351.408 183.972 351.448 183.972 351.464C183.972 351.536 183.916 351.58 183.804 351.596L182.544 351.716H182.508C182.436 351.716 182.388 351.672 182.364 351.584C182.22 351.296 182.072 351.084 181.92 350.948C181.776 350.804 181.568 350.732 181.296 350.732C180.864 350.732 180.524 350.908 180.276 351.26C180.036 351.612 179.916 352.132 179.916 352.82C179.916 353.524 180.044 354.052 180.3 354.404C180.564 354.756 180.928 354.932 181.392 354.932C181.72 354.932 181.988 354.848 182.196 354.68C182.404 354.512 182.608 354.256 182.808 353.912C182.832 353.872 182.856 353.852 182.88 353.852C182.912 353.844 182.956 353.844 183.012 353.852L183.9 354.056C183.972 354.064 184.008 354.104 184.008 354.176L183.984 354.284C183.824 354.748 183.512 355.172 183.048 355.556C182.592 355.932 181.988 356.12 181.236 356.12C180.62 356.12 180.068 355.984 179.58 355.712C179.1 355.432 178.724 355.044 178.452 354.548C178.18 354.052 178.044 353.484 178.044 352.844C178.044 352.196 178.18 351.62 178.452 351.116C178.732 350.612 179.112 350.22 179.592 349.94C180.08 349.66 180.628 349.52 181.236 349.52ZM186.561 353.36C186.561 353.808 186.709 354.172 187.005 354.452C187.309 354.724 187.685 354.86 188.133 354.86C188.421 354.86 188.685 354.8 188.925 354.68C189.173 354.552 189.421 354.344 189.669 354.056C189.701 354.024 189.733 354.008 189.765 354.008C189.789 354.008 189.829 354.02 189.885 354.044L190.749 354.404C190.805 354.428 190.833 354.468 190.833 354.524C190.833 354.564 190.817 354.604 190.785 354.644C190.401 355.188 189.989 355.572 189.549 355.796C189.109 356.012 188.561 356.12 187.905 356.12C187.289 356.12 186.733 355.984 186.237 355.712C185.741 355.44 185.353 355.064 185.073 354.584C184.793 354.096 184.653 353.54 184.653 352.916C184.653 352.244 184.797 351.652 185.085 351.14C185.373 350.62 185.761 350.22 186.249 349.94C186.745 349.66 187.285 349.52 187.869 349.52C188.477 349.52 189.017 349.656 189.489 349.928C189.961 350.192 190.329 350.576 190.593 351.08C190.857 351.584 190.989 352.184 190.989 352.88C190.989 352.984 190.977 353.056 190.953 353.096C190.937 353.136 190.881 353.16 190.785 353.168H186.705C186.609 353.168 186.561 353.232 186.561 353.36ZM188.973 352.16C189.061 352.16 189.117 352.152 189.141 352.136C189.165 352.112 189.177 352.064 189.177 351.992C189.177 351.784 189.129 351.576 189.033 351.368C188.937 351.16 188.797 350.988 188.613 350.852C188.429 350.716 188.205 350.648 187.941 350.648C187.541 350.648 187.213 350.788 186.957 351.068C186.701 351.348 186.577 351.708 186.585 352.148L188.973 352.16ZM195.897 351.296C195.569 350.864 195.101 350.648 194.493 350.648C194.189 350.648 193.937 350.708 193.737 350.828C193.537 350.94 193.437 351.096 193.437 351.296C193.437 351.408 193.481 351.512 193.569 351.608C193.665 351.696 193.845 351.772 194.109 351.836L195.489 352.172C196.121 352.324 196.585 352.568 196.881 352.904C197.177 353.232 197.325 353.62 197.325 354.068C197.325 354.7 197.061 355.2 196.533 355.568C196.005 355.936 195.313 356.12 194.457 356.12C193.769 356.12 193.173 356 192.669 355.76C192.165 355.512 191.809 355.192 191.601 354.8C191.561 354.744 191.541 354.692 191.541 354.644C191.541 354.588 191.569 354.548 191.625 354.524L192.441 354.104C192.505 354.072 192.561 354.056 192.609 354.056C192.657 354.056 192.701 354.076 192.741 354.116C192.917 354.364 193.129 354.564 193.377 354.716C193.633 354.86 193.969 354.932 194.385 354.932C194.761 354.932 195.065 354.876 195.297 354.764C195.537 354.652 195.657 354.488 195.657 354.272C195.657 354.128 195.597 354.008 195.477 353.912C195.357 353.816 195.153 353.732 194.865 353.66L193.629 353.396C192.413 353.132 191.805 352.528 191.805 351.584C191.805 351.184 191.913 350.828 192.129 350.516C192.353 350.204 192.669 349.96 193.076 349.784C193.485 349.608 193.965 349.52 194.517 349.52C195.101 349.52 195.617 349.628 196.065 349.844C196.521 350.06 196.849 350.332 197.049 350.66C197.097 350.724 197.121 350.78 197.121 350.828C197.121 350.876 197.093 350.916 197.037 350.948L196.173 351.368C196.149 351.384 196.117 351.392 196.077 351.392C196.005 351.392 195.945 351.36 195.897 351.296ZM202.26 351.296C201.932 350.864 201.464 350.648 200.856 350.648C200.552 350.648 200.3 350.708 200.1 350.828C199.9 350.94 199.8 351.096 199.8 351.296C199.8 351.408 199.844 351.512 199.932 351.608C200.028 351.696 200.208 351.772 200.472 351.836L201.852 352.172C202.484 352.324 202.948 352.568 203.244 352.904C203.54 353.232 203.688 353.62 203.688 354.068C203.688 354.7 203.424 355.2 202.896 355.568C202.368 355.936 201.676 356.12 200.82 356.12C200.132 356.12 199.536 356 199.032 355.76C198.528 355.512 198.172 355.192 197.964 354.8C197.924 354.744 197.904 354.692 197.904 354.644C197.904 354.588 197.932 354.548 197.988 354.524L198.804 354.104C198.868 354.072 198.924 354.056 198.972 354.056C199.02 354.056 199.064 354.076 199.104 354.116C199.28 354.364 199.492 354.564 199.74 354.716C199.996 354.86 200.332 354.932 200.748 354.932C201.124 354.932 201.428 354.876 201.66 354.764C201.9 354.652 202.02 354.488 202.02 354.272C202.02 354.128 201.96 354.008 201.84 353.912C201.72 353.816 201.516 353.732 201.228 353.66L199.992 353.396C198.776 353.132 198.168 352.528 198.168 351.584C198.168 351.184 198.276 350.828 198.492 350.516C198.716 350.204 199.032 349.96 199.44 349.784C199.848 349.608 200.328 349.52 200.88 349.52C201.464 349.52 201.98 349.628 202.428 349.844C202.884 350.06 203.212 350.332 203.412 350.66C203.46 350.724 203.484 350.78 203.484 350.828C203.484 350.876 203.456 350.916 203.4 350.948L202.536 351.368C202.512 351.384 202.48 351.392 202.44 351.392C202.368 351.392 202.308 351.36 202.26 351.296ZM209.032 355.712C209.032 355.816 209.008 355.892 208.96 355.94C208.912 355.98 208.828 356 208.708 356H207.436C207.34 356 207.272 355.98 207.232 355.94C207.192 355.9 207.172 355.836 207.172 355.748L207.208 347.324C207.208 347.172 207.272 347.096 207.4 347.096H208.852C208.972 347.096 209.032 347.168 209.032 347.312V355.712ZM212.231 348.572C212.231 348.772 212.123 348.872 211.907 348.872H210.611C210.515 348.872 210.447 348.852 210.407 348.812C210.367 348.764 210.347 348.692 210.347 348.596V347.336C210.347 347.176 210.415 347.096 210.551 347.096H212.039C212.095 347.096 212.139 347.116 212.171 347.156C212.211 347.196 212.231 347.252 212.231 347.324V348.572ZM212.207 355.712C212.207 355.816 212.183 355.892 212.135 355.94C212.087 355.98 212.003 356 211.883 356H210.623C210.527 356 210.459 355.98 210.419 355.94C210.379 355.9 210.359 355.836 210.359 355.748V349.868C210.359 349.716 210.427 349.64 210.563 349.64H212.027C212.147 349.64 212.207 349.708 212.207 349.844V355.712ZM213.787 356C213.699 356 213.635 355.984 213.595 355.952C213.555 355.912 213.535 355.848 213.535 355.76V349.868C213.535 349.796 213.551 349.74 213.583 349.7C213.623 349.66 213.671 349.64 213.727 349.64H215.167C215.287 349.64 215.347 349.708 215.347 349.844V350.432C215.347 350.496 215.367 350.528 215.407 350.528C215.431 350.528 215.459 350.512 215.491 350.48C215.827 350.168 216.155 349.928 216.475 349.76C216.795 349.592 217.135 349.508 217.495 349.508C217.919 349.508 218.279 349.608 218.575 349.808C218.871 350.008 219.079 350.28 219.199 350.624C219.207 350.656 219.223 350.672 219.247 350.672C219.279 350.672 219.315 350.652 219.355 350.612C219.651 350.284 219.983 350.02 220.351 349.82C220.727 349.62 221.099 349.52 221.467 349.52C222.027 349.52 222.471 349.692 222.799 350.036C223.135 350.38 223.303 350.852 223.303 351.452V355.712C223.303 355.904 223.207 356 223.015 356H221.683C221.595 356 221.535 355.984 221.503 355.952C221.471 355.912 221.455 355.848 221.455 355.76V351.704C221.455 351.44 221.383 351.232 221.239 351.08C221.095 350.928 220.891 350.852 220.627 350.852C220.411 350.852 220.199 350.912 219.991 351.032C219.791 351.152 219.619 351.296 219.475 351.464C219.427 351.52 219.391 351.572 219.367 351.62C219.351 351.668 219.343 351.728 219.343 351.8V355.712C219.343 355.904 219.247 356 219.055 356H217.735C217.655 356 217.595 355.984 217.555 355.952C217.523 355.912 217.507 355.848 217.507 355.76V351.704C217.507 351.44 217.435 351.232 217.291 351.08C217.147 350.928 216.939 350.852 216.667 350.852C216.435 350.852 216.219 350.912 216.019 351.032C215.819 351.152 215.607 351.34 215.383 351.596V355.724C215.383 355.82 215.359 355.892 215.311 355.94C215.263 355.98 215.183 356 215.071 356H213.787ZM226.434 348.572C226.434 348.772 226.326 348.872 226.11 348.872H224.814C224.718 348.872 224.65 348.852 224.61 348.812C224.57 348.764 224.55 348.692 224.55 348.596V347.336C224.55 347.176 224.618 347.096 224.754 347.096H226.242C226.298 347.096 226.342 347.116 226.374 347.156C226.414 347.196 226.434 347.252 226.434 347.324V348.572ZM226.41 355.712C226.41 355.816 226.386 355.892 226.338 355.94C226.29 355.98 226.206 356 226.086 356H224.826C224.73 356 224.662 355.98 224.622 355.94C224.582 355.9 224.562 355.836 224.562 355.748V349.868C224.562 349.716 224.63 349.64 224.766 349.64H226.23C226.35 349.64 226.41 349.708 226.41 349.844V355.712ZM230.414 350.912C230.326 350.912 230.282 350.96 230.282 351.056V353.948C230.282 354.22 230.346 354.416 230.474 354.536C230.602 354.648 230.806 354.704 231.086 354.704H231.734C231.79 354.704 231.834 354.724 231.866 354.764C231.898 354.796 231.914 354.844 231.914 354.908L231.902 355.64C231.902 355.8 231.814 355.896 231.638 355.928C231.302 355.976 230.826 356 230.21 356C229.65 356 229.214 355.868 228.902 355.604C228.59 355.34 228.434 354.956 228.434 354.452V351.092C228.434 350.972 228.382 350.912 228.278 350.912H227.546C227.394 350.912 227.318 350.844 227.318 350.708V349.82C227.318 349.7 227.39 349.64 227.534 349.64H228.362C228.426 349.64 228.466 349.596 228.482 349.508L228.65 347.684C228.666 347.548 228.726 347.48 228.83 347.48H230.138C230.194 347.48 230.238 347.5 230.27 347.54C230.31 347.58 230.33 347.636 230.33 347.708V349.508C230.33 349.588 230.37 349.628 230.45 349.628H231.71C231.854 349.628 231.926 349.692 231.926 349.82V350.708C231.926 350.844 231.846 350.912 231.686 350.912H230.414ZM238.318 356.12C237.686 356.12 237.126 355.984 236.638 355.712C236.158 355.432 235.782 355.044 235.51 354.548C235.238 354.052 235.102 353.488 235.102 352.856C235.102 352.2 235.238 351.62 235.51 351.116C235.79 350.612 236.174 350.22 236.662 349.94C237.158 349.66 237.714 349.52 238.33 349.52C238.962 349.52 239.522 349.664 240.01 349.952C240.498 350.232 240.874 350.624 241.138 351.128C241.41 351.632 241.546 352.204 241.546 352.844C241.546 353.476 241.41 354.04 241.138 354.536C240.866 355.032 240.486 355.42 239.998 355.7C239.51 355.98 238.95 356.12 238.318 356.12ZM238.33 354.896C238.77 354.896 239.102 354.724 239.326 354.38C239.558 354.028 239.674 353.508 239.674 352.82C239.674 352.124 239.558 351.6 239.326 351.248C239.102 350.888 238.77 350.708 238.33 350.708C237.89 350.708 237.554 350.888 237.322 351.248C237.09 351.6 236.974 352.124 236.974 352.82C236.974 353.5 237.09 354.016 237.322 354.368C237.554 354.72 237.89 354.896 238.33 354.896ZM242.826 356C242.658 356 242.574 355.92 242.574 355.76V349.868C242.574 349.716 242.638 349.64 242.766 349.64H244.17C244.298 349.64 244.362 349.708 244.362 349.844V350.552C244.362 350.584 244.37 350.608 244.386 350.624C244.402 350.64 244.418 350.648 244.434 350.648C244.458 350.648 244.49 350.628 244.53 350.588C244.77 350.268 245.054 350.012 245.382 349.82C245.71 349.62 246.022 349.52 246.318 349.52C246.606 349.52 246.75 349.588 246.75 349.724V351.116C246.75 351.172 246.734 351.216 246.702 351.248C246.67 351.28 246.626 351.288 246.57 351.272C246.314 351.208 246.034 351.176 245.73 351.176C245.53 351.176 245.326 351.228 245.118 351.332C244.918 351.428 244.75 351.56 244.614 351.728C244.486 351.888 244.422 352.052 244.422 352.22V355.724C244.422 355.908 244.318 356 244.11 356H242.826ZM251.9 356C251.732 356 251.648 355.92 251.648 355.76V355.424C251.648 355.36 251.628 355.328 251.588 355.328C251.564 355.328 251.528 355.344 251.48 355.376C251.248 355.6 250.992 355.78 250.712 355.916C250.44 356.052 250.112 356.12 249.728 356.12C248.976 356.12 248.368 355.84 247.904 355.28C247.448 354.72 247.22 353.916 247.22 352.868C247.22 352.212 247.336 351.632 247.568 351.128C247.808 350.616 248.128 350.22 248.528 349.94C248.928 349.66 249.368 349.52 249.848 349.52C250.16 349.52 250.44 349.572 250.688 349.676C250.944 349.78 251.188 349.94 251.42 350.156C251.476 350.196 251.516 350.216 251.54 350.216C251.596 350.216 251.624 350.164 251.624 350.06V347.312C251.624 347.168 251.688 347.096 251.816 347.096H253.28C253.336 347.096 253.38 347.116 253.412 347.156C253.452 347.196 253.472 347.252 253.472 347.324V355.748C253.472 355.836 253.452 355.9 253.412 355.94C253.372 355.98 253.3 356 253.196 356H251.9ZM251.624 351.296C251.44 351.096 251.256 350.948 251.072 350.852C250.896 350.756 250.696 350.708 250.472 350.708C250.048 350.708 249.712 350.884 249.464 351.236C249.216 351.58 249.092 352.116 249.092 352.844C249.092 353.58 249.212 354.12 249.452 354.464C249.692 354.8 250.024 354.968 250.448 354.968C250.768 354.968 251.044 354.864 251.276 354.656C251.508 354.44 251.624 354.192 251.624 353.912V351.296ZM256.417 353.36C256.417 353.808 256.565 354.172 256.861 354.452C257.165 354.724 257.541 354.86 257.989 354.86C258.277 354.86 258.541 354.8 258.781 354.68C259.029 354.552 259.277 354.344 259.525 354.056C259.557 354.024 259.589 354.008 259.621 354.008C259.645 354.008 259.685 354.02 259.741 354.044L260.605 354.404C260.661 354.428 260.689 354.468 260.689 354.524C260.689 354.564 260.673 354.604 260.641 354.644C260.257 355.188 259.845 355.572 259.405 355.796C258.965 356.012 258.417 356.12 257.761 356.12C257.145 356.12 256.589 355.984 256.093 355.712C255.597 355.44 255.209 355.064 254.929 354.584C254.649 354.096 254.509 353.54 254.509 352.916C254.509 352.244 254.653 351.652 254.941 351.14C255.229 350.62 255.617 350.22 256.105 349.94C256.601 349.66 257.141 349.52 257.725 349.52C258.333 349.52 258.873 349.656 259.345 349.928C259.817 350.192 260.185 350.576 260.449 351.08C260.713 351.584 260.845 352.184 260.845 352.88C260.845 352.984 260.833 353.056 260.809 353.096C260.793 353.136 260.737 353.16 260.641 353.168H256.561C256.465 353.168 256.417 353.232 256.417 353.36ZM258.829 352.16C258.917 352.16 258.973 352.152 258.997 352.136C259.021 352.112 259.033 352.064 259.033 351.992C259.033 351.784 258.985 351.576 258.889 351.368C258.793 351.16 258.653 350.988 258.469 350.852C258.285 350.716 258.061 350.648 257.797 350.648C257.397 350.648 257.069 350.788 256.813 351.068C256.557 351.348 256.433 351.708 256.441 352.148L258.829 352.16ZM262.08 356C261.912 356 261.828 355.92 261.828 355.76V349.868C261.828 349.716 261.892 349.64 262.02 349.64H263.424C263.552 349.64 263.616 349.708 263.616 349.844V350.552C263.616 350.584 263.624 350.608 263.64 350.624C263.656 350.64 263.672 350.648 263.688 350.648C263.712 350.648 263.744 350.628 263.784 350.588C264.024 350.268 264.308 350.012 264.636 349.82C264.964 349.62 265.276 349.52 265.572 349.52C265.86 349.52 266.004 349.588 266.004 349.724V351.116C266.004 351.172 265.988 351.216 265.956 351.248C265.924 351.28 265.88 351.288 265.824 351.272C265.568 351.208 265.288 351.176 264.984 351.176C264.784 351.176 264.58 351.228 264.372 351.332C264.172 351.428 264.004 351.56 263.868 351.728C263.74 351.888 263.676 352.052 263.676 352.22V355.724C263.676 355.908 263.572 356 263.364 356H262.08Z" fill="#12B2FF"/>
<circle cx="213" cy="177" r="83" fill="#21272D"/>
<path d="M142.354 162.128C143.41 162.128 144.247 162.133 144.866 162.144C147.021 162.176 148.594 162.677 149.586 163.648C150.589 164.619 151.09 166.069 151.09 168C151.09 172 148.962 174 144.706 174H142.354C142.205 174 142.13 173.915 142.13 173.744V162.336C142.13 162.261 142.146 162.208 142.178 162.176C142.21 162.144 142.269 162.128 142.354 162.128ZM143.794 163.296C143.709 163.296 143.666 163.371 143.666 163.52V172.672C143.666 172.736 143.677 172.784 143.698 172.816C143.73 172.837 143.783 172.848 143.858 172.848H144.466C145.661 172.848 146.621 172.693 147.346 172.384C148.082 172.064 148.621 171.552 148.962 170.848C149.314 170.144 149.49 169.205 149.49 168.032C149.49 166.859 149.325 165.936 148.994 165.264C148.663 164.581 148.157 164.096 147.474 163.808C146.802 163.509 145.906 163.344 144.786 163.312C144.573 163.301 144.242 163.296 143.794 163.296ZM154.253 170.288C154.253 170.8 154.376 171.275 154.621 171.712C154.877 172.149 155.218 172.496 155.645 172.752C156.072 173.008 156.541 173.136 157.053 173.136C158.12 173.136 158.952 172.693 159.549 171.808C159.592 171.765 159.629 171.744 159.661 171.744C159.693 171.733 159.73 171.739 159.773 171.76L160.445 172.096C160.53 172.149 160.541 172.224 160.477 172.32C160.061 172.96 159.565 173.429 158.989 173.728C158.413 174.016 157.725 174.16 156.925 174.16C156.146 174.16 155.448 173.979 154.829 173.616C154.21 173.253 153.725 172.747 153.373 172.096C153.032 171.435 152.861 170.683 152.861 169.84C152.861 168.933 153.037 168.144 153.389 167.472C153.741 166.789 154.221 166.267 154.829 165.904C155.448 165.541 156.141 165.36 156.909 165.36C157.677 165.36 158.349 165.531 158.925 165.872C159.512 166.213 159.965 166.715 160.285 167.376C160.605 168.027 160.765 168.8 160.765 169.696V169.76C160.765 169.856 160.749 169.931 160.717 169.984C160.685 170.027 160.621 170.048 160.525 170.048H154.397C154.301 170.048 154.253 170.128 154.253 170.288ZM159.149 169.168C159.266 169.168 159.341 169.157 159.373 169.136C159.405 169.104 159.421 169.04 159.421 168.944C159.421 168.475 159.32 168.043 159.117 167.648C158.925 167.243 158.637 166.923 158.253 166.688C157.88 166.443 157.442 166.32 156.941 166.32C156.397 166.32 155.922 166.459 155.517 166.736C155.112 167.003 154.802 167.355 154.589 167.792C154.376 168.219 154.274 168.677 154.285 169.168H159.149ZM166.174 165.36C166.953 165.36 167.614 165.541 168.158 165.904C168.713 166.267 169.155 166.747 169.486 167.344L169.518 167.472C169.518 167.536 169.481 167.573 169.406 167.584L168.526 167.792L168.478 167.808C168.425 167.808 168.371 167.765 168.318 167.68C167.977 167.221 167.646 166.885 167.326 166.672C167.017 166.459 166.659 166.352 166.254 166.352C165.422 166.352 164.761 166.661 164.27 167.28C163.779 167.888 163.534 168.715 163.534 169.76C163.534 170.816 163.779 171.648 164.27 172.256C164.771 172.864 165.443 173.168 166.286 173.168C166.787 173.168 167.225 173.045 167.598 172.8C167.982 172.555 168.329 172.176 168.638 171.664C168.67 171.611 168.702 171.584 168.734 171.584C168.766 171.573 168.803 171.579 168.846 171.6L169.534 171.856C169.609 171.888 169.63 171.957 169.598 172.064C169.267 172.683 168.814 173.189 168.238 173.584C167.662 173.968 166.974 174.16 166.174 174.16C165.395 174.16 164.702 173.979 164.094 173.616C163.486 173.243 163.011 172.725 162.67 172.064C162.329 171.403 162.158 170.645 162.158 169.792C162.158 168.939 162.329 168.176 162.67 167.504C163.011 166.821 163.486 166.293 164.094 165.92C164.713 165.547 165.406 165.36 166.174 165.36ZM172.222 170.288C172.222 170.8 172.344 171.275 172.59 171.712C172.846 172.149 173.187 172.496 173.614 172.752C174.04 173.008 174.51 173.136 175.022 173.136C176.088 173.136 176.92 172.693 177.518 171.808C177.56 171.765 177.598 171.744 177.63 171.744C177.662 171.733 177.699 171.739 177.742 171.76L178.414 172.096C178.499 172.149 178.51 172.224 178.446 172.32C178.03 172.96 177.534 173.429 176.958 173.728C176.382 174.016 175.694 174.16 174.894 174.16C174.115 174.16 173.416 173.979 172.798 173.616C172.179 173.253 171.694 172.747 171.342 172.096C171 171.435 170.83 170.683 170.83 169.84C170.83 168.933 171.006 168.144 171.358 167.472C171.71 166.789 172.19 166.267 172.798 165.904C173.416 165.541 174.11 165.36 174.878 165.36C175.646 165.36 176.318 165.531 176.894 165.872C177.48 166.213 177.934 166.715 178.254 167.376C178.574 168.027 178.734 168.8 178.734 169.696V169.76C178.734 169.856 178.718 169.931 178.686 169.984C178.654 170.027 178.59 170.048 178.494 170.048H172.366C172.27 170.048 172.222 170.128 172.222 170.288ZM177.118 169.168C177.235 169.168 177.31 169.157 177.342 169.136C177.374 169.104 177.39 169.04 177.39 168.944C177.39 168.475 177.288 168.043 177.086 167.648C176.894 167.243 176.606 166.923 176.222 166.688C175.848 166.443 175.411 166.32 174.91 166.32C174.366 166.32 173.891 166.459 173.486 166.736C173.08 167.003 172.771 167.355 172.558 167.792C172.344 168.219 172.243 168.677 172.254 169.168H177.118ZM180.847 174C180.697 174 180.623 173.931 180.623 173.792V165.728C180.623 165.589 180.681 165.52 180.799 165.52H181.759C181.876 165.52 181.935 165.579 181.935 165.696V166.624C181.935 166.741 181.983 166.757 182.079 166.672C182.676 166.203 183.183 165.867 183.599 165.664C184.025 165.461 184.5 165.36 185.023 165.36C185.833 165.36 186.463 165.579 186.911 166.016C187.369 166.453 187.599 167.04 187.599 167.776V173.744C187.599 173.915 187.519 174 187.359 174H186.463C186.324 174 186.255 173.931 186.255 173.792V168.08C186.255 167.547 186.116 167.136 185.839 166.848C185.572 166.56 185.156 166.416 184.591 166.416C184.143 166.416 183.727 166.517 183.343 166.72C182.969 166.912 182.511 167.243 181.967 167.712V173.76C181.967 173.845 181.945 173.909 181.903 173.952C181.871 173.984 181.812 174 181.727 174H180.847ZM192.206 166.512C192.121 166.512 192.078 166.56 192.078 166.656V171.728C192.078 172.208 192.158 172.539 192.318 172.72C192.478 172.901 192.74 172.992 193.102 172.992H194.206C194.324 172.992 194.382 173.051 194.382 173.168L194.366 173.712C194.366 173.819 194.302 173.888 194.174 173.92C193.897 173.973 193.396 174 192.67 174C191.998 174 191.508 173.845 191.198 173.536C190.889 173.216 190.734 172.715 190.734 172.032V166.688C190.734 166.571 190.681 166.512 190.574 166.512H189.294C189.177 166.512 189.118 166.459 189.118 166.352V165.68C189.118 165.573 189.172 165.52 189.278 165.52H190.638C190.713 165.52 190.75 165.477 190.75 165.392L190.926 162.848C190.926 162.709 190.985 162.64 191.102 162.64H191.902C192.03 162.64 192.094 162.715 192.094 162.864V165.392C192.094 165.477 192.137 165.52 192.222 165.52H194.238C194.356 165.52 194.414 165.568 194.414 165.664V166.352C194.414 166.459 194.356 166.512 194.238 166.512H192.206ZM196.378 174C196.229 174 196.154 173.931 196.154 173.792V165.728C196.154 165.589 196.213 165.52 196.33 165.52H197.258C197.375 165.52 197.434 165.579 197.434 165.696V166.736C197.434 166.8 197.45 166.837 197.482 166.848C197.525 166.859 197.567 166.837 197.61 166.784C198.421 165.835 199.247 165.36 200.09 165.36C200.463 165.36 200.65 165.429 200.65 165.568V166.528C200.65 166.635 200.602 166.677 200.506 166.656C200.314 166.624 200.074 166.608 199.786 166.608C199.477 166.608 199.141 166.699 198.778 166.88C198.415 167.061 198.111 167.296 197.866 167.584C197.621 167.872 197.498 168.165 197.498 168.464V173.76C197.498 173.92 197.418 174 197.258 174H196.378ZM207.16 172.976C206.339 173.765 205.389 174.16 204.312 174.16C203.48 174.16 202.824 173.952 202.344 173.536C201.875 173.109 201.64 172.544 201.64 171.84C201.64 170.987 201.997 170.315 202.712 169.824C203.437 169.333 204.483 169.045 205.848 168.96L207.096 168.864C207.277 168.843 207.368 168.763 207.368 168.624V168.192C207.368 167.616 207.187 167.163 206.824 166.832C206.472 166.491 205.992 166.32 205.384 166.32C204.445 166.32 203.677 166.747 203.08 167.6C203.048 167.653 203.016 167.691 202.984 167.712C202.952 167.723 202.909 167.717 202.856 167.696L201.992 167.408C201.939 167.387 201.912 167.349 201.912 167.296C201.912 167.264 201.928 167.216 201.96 167.152C202.28 166.587 202.733 166.149 203.32 165.84C203.917 165.52 204.621 165.36 205.432 165.36C206.477 165.36 207.277 165.605 207.832 166.096C208.387 166.576 208.664 167.243 208.664 168.096V173.76C208.664 173.856 208.648 173.92 208.616 173.952C208.584 173.984 208.525 174 208.44 174H207.64C207.512 174 207.437 173.915 207.416 173.744L207.384 173.008C207.373 172.933 207.347 172.896 207.304 172.896C207.261 172.896 207.213 172.923 207.16 172.976ZM207.368 169.936C207.368 169.765 207.288 169.68 207.128 169.68L206.088 169.776C205.096 169.84 204.328 170.032 203.784 170.352C203.251 170.672 202.984 171.115 202.984 171.68C202.984 172.139 203.144 172.501 203.464 172.768C203.795 173.035 204.232 173.168 204.776 173.168C205.107 173.168 205.432 173.109 205.752 172.992C206.072 172.875 206.355 172.715 206.6 172.512C206.845 172.32 207.032 172.117 207.16 171.904C207.299 171.68 207.368 171.467 207.368 171.264V169.936ZM212.358 173.728C212.358 173.835 212.336 173.909 212.294 173.952C212.251 173.984 212.176 174 212.07 174H211.238C211.142 174 211.078 173.984 211.046 173.952C211.014 173.92 210.998 173.861 210.998 173.776L211.014 162.352C211.014 162.203 211.078 162.128 211.206 162.128H212.166C212.294 162.128 212.358 162.197 212.358 162.336V173.728ZM216.234 163.696C216.234 163.803 216.212 163.883 216.17 163.936C216.127 163.979 216.052 164 215.946 164H215.018C214.858 164 214.778 163.909 214.778 163.728V162.384C214.778 162.213 214.852 162.128 215.002 162.128H216.01C216.074 162.128 216.127 162.149 216.17 162.192C216.212 162.235 216.234 162.293 216.234 162.368V163.696ZM216.17 173.728C216.17 173.835 216.148 173.909 216.106 173.952C216.063 173.984 215.988 174 215.882 174H215.066C214.97 174 214.906 173.984 214.874 173.952C214.842 173.92 214.826 173.861 214.826 173.776V165.744C214.826 165.595 214.89 165.52 215.018 165.52H215.994C216.111 165.52 216.17 165.589 216.17 165.728V173.728ZM218.11 174C218.035 174 217.982 173.989 217.95 173.968C217.929 173.936 217.918 173.883 217.918 173.808V173.344C217.918 173.259 217.929 173.189 217.95 173.136C217.982 173.072 218.035 172.987 218.11 172.88L222.766 166.624L222.814 166.528C222.814 166.485 222.771 166.464 222.686 166.464H218.446C218.382 166.464 218.334 166.453 218.302 166.432C218.281 166.411 218.27 166.363 218.27 166.288V165.696C218.27 165.579 218.323 165.52 218.43 165.52H224.35C224.446 165.52 224.494 165.573 224.494 165.68V166.192C224.494 166.331 224.441 166.469 224.334 166.608L219.662 172.88C219.619 172.933 219.603 172.976 219.614 173.008C219.625 173.04 219.657 173.056 219.71 173.056H224.414C224.531 173.056 224.59 173.104 224.59 173.2V173.808C224.59 173.936 224.521 174 224.382 174H218.11ZM227.269 170.288C227.269 170.8 227.391 171.275 227.637 171.712C227.893 172.149 228.234 172.496 228.661 172.752C229.087 173.008 229.557 173.136 230.069 173.136C231.135 173.136 231.967 172.693 232.565 171.808C232.607 171.765 232.645 171.744 232.677 171.744C232.709 171.733 232.746 171.739 232.789 171.76L233.461 172.096C233.546 172.149 233.557 172.224 233.493 172.32C233.077 172.96 232.581 173.429 232.005 173.728C231.429 174.016 230.741 174.16 229.941 174.16C229.162 174.16 228.463 173.979 227.845 173.616C227.226 173.253 226.741 172.747 226.389 172.096C226.047 171.435 225.877 170.683 225.877 169.84C225.877 168.933 226.053 168.144 226.405 167.472C226.757 166.789 227.237 166.267 227.845 165.904C228.463 165.541 229.157 165.36 229.925 165.36C230.693 165.36 231.365 165.531 231.941 165.872C232.527 166.213 232.981 166.715 233.301 167.376C233.621 168.027 233.781 168.8 233.781 169.696V169.76C233.781 169.856 233.765 169.931 233.733 169.984C233.701 170.027 233.637 170.048 233.541 170.048H227.413C227.317 170.048 227.269 170.128 227.269 170.288ZM232.165 169.168C232.282 169.168 232.357 169.157 232.389 169.136C232.421 169.104 232.437 169.04 232.437 168.944C232.437 168.475 232.335 168.043 232.133 167.648C231.941 167.243 231.653 166.923 231.269 166.688C230.895 166.443 230.458 166.32 229.957 166.32C229.413 166.32 228.938 166.459 228.533 166.736C228.127 167.003 227.818 167.355 227.605 167.792C227.391 168.219 227.29 168.677 227.301 169.168H232.165ZM241.702 174C241.552 174 241.478 173.925 241.478 173.776V173.088C241.478 172.992 241.451 172.944 241.398 172.944C241.366 172.944 241.323 172.971 241.27 173.024C240.95 173.344 240.598 173.616 240.214 173.84C239.84 174.053 239.355 174.16 238.758 174.16C238.075 174.16 237.467 174 236.934 173.68C236.4 173.36 235.979 172.88 235.67 172.24C235.36 171.589 235.206 170.805 235.206 169.888C235.206 168.992 235.366 168.203 235.686 167.52C236.006 166.837 236.448 166.309 237.014 165.936C237.579 165.552 238.224 165.36 238.95 165.36C239.43 165.36 239.846 165.435 240.198 165.584C240.55 165.733 240.88 165.941 241.19 166.208C241.275 166.272 241.334 166.304 241.366 166.304C241.419 166.304 241.446 166.235 241.446 166.096V162.336C241.446 162.197 241.504 162.128 241.622 162.128H242.598C242.715 162.128 242.774 162.197 242.774 162.336V173.744C242.774 173.84 242.758 173.909 242.726 173.952C242.694 173.984 242.624 174 242.517 174H241.702ZM241.43 167.392C241.088 167.051 240.742 166.795 240.39 166.624C240.048 166.443 239.675 166.352 239.27 166.352C238.459 166.352 237.808 166.656 237.318 167.264C236.827 167.872 236.582 168.731 236.582 169.84C236.582 170.96 236.822 171.797 237.302 172.352C237.792 172.907 238.416 173.184 239.174 173.184C239.59 173.184 239.968 173.088 240.31 172.896C240.662 172.693 240.934 172.443 241.126 172.144C241.328 171.845 241.43 171.547 241.43 171.248V167.392ZM249.005 162.352C249.005 162.203 249.069 162.128 249.197 162.128H250.349C250.477 162.128 250.541 162.197 250.541 162.336V172.656C250.541 172.72 250.552 172.763 250.573 172.784C250.594 172.805 250.637 172.816 250.701 172.816H256.237C256.301 172.816 256.349 172.827 256.381 172.848C256.413 172.869 256.429 172.912 256.429 172.976V173.824C256.429 173.941 256.365 174 256.237 174H249.229C249.144 174 249.085 173.984 249.053 173.952C249.021 173.92 249.005 173.861 249.005 173.776V162.352ZM259.718 163.696C259.718 163.803 259.697 163.883 259.654 163.936C259.611 163.979 259.537 164 259.43 164H258.502C258.342 164 258.262 163.909 258.262 163.728V162.384C258.262 162.213 258.337 162.128 258.486 162.128H259.494C259.558 162.128 259.611 162.149 259.654 162.192C259.697 162.235 259.718 162.293 259.718 162.368V163.696ZM259.654 173.728C259.654 173.835 259.633 173.909 259.59 173.952C259.547 173.984 259.473 174 259.366 174H258.55C258.454 174 258.39 173.984 258.358 173.952C258.326 173.92 258.31 173.861 258.31 173.776V165.744C258.31 165.595 258.374 165.52 258.502 165.52H259.478C259.595 165.52 259.654 165.589 259.654 165.728V173.728ZM262.362 174C262.213 174 262.138 173.931 262.138 173.792V165.728C262.138 165.589 262.197 165.52 262.314 165.52H263.274C263.381 165.52 263.434 165.579 263.434 165.696V166.624C263.434 166.752 263.488 166.768 263.594 166.672C264.17 166.203 264.661 165.867 265.066 165.664C265.472 165.461 265.925 165.36 266.426 165.36C267.024 165.36 267.514 165.493 267.898 165.76C268.293 166.027 268.56 166.363 268.698 166.768C268.72 166.8 268.741 166.816 268.762 166.816C268.794 166.816 268.848 166.789 268.922 166.736C269.477 166.267 269.973 165.92 270.41 165.696C270.858 165.472 271.328 165.36 271.818 165.36C272.586 165.36 273.184 165.579 273.61 166.016C274.048 166.453 274.266 167.045 274.266 167.792V173.744C274.266 173.915 274.186 174 274.026 174H273.13C272.992 174 272.922 173.931 272.922 173.792V168.08C272.922 167.547 272.794 167.136 272.538 166.848C272.282 166.56 271.898 166.416 271.386 166.416C270.96 166.416 270.56 166.523 270.186 166.736C269.813 166.939 269.45 167.195 269.098 167.504C269.013 167.589 268.954 167.664 268.922 167.728C268.89 167.792 268.874 167.872 268.874 167.968V173.744C268.874 173.915 268.794 174 268.634 174H267.738C267.6 174 267.53 173.931 267.53 173.792V168.08C267.53 166.971 267.018 166.416 265.994 166.416C265.568 166.416 265.173 166.517 264.81 166.72C264.458 166.912 264.016 167.243 263.482 167.712V173.76C263.482 173.845 263.461 173.909 263.418 173.952C263.386 173.984 263.328 174 263.242 174H262.362ZM278.046 163.696C278.046 163.803 278.025 163.883 277.982 163.936C277.94 163.979 277.865 164 277.758 164H276.83C276.67 164 276.59 163.909 276.59 163.728V162.384C276.59 162.213 276.665 162.128 276.814 162.128H277.822C277.886 162.128 277.94 162.149 277.982 162.192C278.025 162.235 278.046 162.293 278.046 162.368V163.696ZM277.982 173.728C277.982 173.835 277.961 173.909 277.918 173.952C277.876 173.984 277.801 174 277.694 174H276.878C276.782 174 276.718 173.984 276.686 173.952C276.654 173.92 276.638 173.861 276.638 173.776V165.744C276.638 165.595 276.702 165.52 276.83 165.52H277.806C277.924 165.52 277.982 165.589 277.982 165.728V173.728ZM282.706 166.512C282.621 166.512 282.578 166.56 282.578 166.656V171.728C282.578 172.208 282.658 172.539 282.818 172.72C282.978 172.901 283.24 172.992 283.602 172.992H284.706C284.824 172.992 284.882 173.051 284.882 173.168L284.866 173.712C284.866 173.819 284.802 173.888 284.674 173.92C284.397 173.973 283.896 174 283.17 174C282.498 174 282.008 173.845 281.698 173.536C281.389 173.216 281.234 172.715 281.234 172.032V166.688C281.234 166.571 281.181 166.512 281.074 166.512H279.794C279.677 166.512 279.618 166.459 279.618 166.352V165.68C279.618 165.573 279.672 165.52 279.778 165.52H281.138C281.213 165.52 281.25 165.477 281.25 165.392L281.426 162.848C281.426 162.709 281.485 162.64 281.602 162.64H282.402C282.53 162.64 282.594 162.715 282.594 162.864V165.392C282.594 165.477 282.637 165.52 282.722 165.52H284.738C284.856 165.52 284.914 165.568 284.914 165.664V166.352C284.914 166.459 284.856 166.512 284.738 166.512H282.706ZM162.675 193.16C161.629 193.16 160.723 192.925 159.955 192.456C159.197 191.987 158.616 191.299 158.211 190.392C157.805 189.485 157.603 188.392 157.603 187.112C157.603 185.821 157.805 184.717 158.211 183.8C158.627 182.872 159.213 182.168 159.971 181.688C160.739 181.208 161.645 180.968 162.691 180.968C163.725 180.968 164.621 181.208 165.378 181.688C166.147 182.168 166.733 182.867 167.139 183.784C167.544 184.701 167.747 185.805 167.747 187.096C167.747 188.376 167.544 189.469 167.139 190.376C166.733 191.283 166.147 191.976 165.378 192.456C164.621 192.925 163.72 193.16 162.675 193.16ZM162.707 191.992C163.859 191.992 164.717 191.592 165.283 190.792C165.859 189.992 166.147 188.765 166.147 187.112C166.147 185.427 165.853 184.179 165.267 183.368C164.691 182.547 163.832 182.136 162.691 182.136C161.528 182.136 160.653 182.547 160.067 183.368C159.491 184.189 159.203 185.437 159.203 187.112C159.203 188.765 159.491 189.992 160.067 190.792C160.653 191.592 161.533 191.992 162.707 191.992ZM170.237 193C170.088 193 170.013 192.931 170.013 192.792V184.728C170.013 184.589 170.072 184.52 170.189 184.52H171.117C171.235 184.52 171.293 184.579 171.293 184.696V185.736C171.293 185.8 171.309 185.837 171.341 185.848C171.384 185.859 171.427 185.837 171.469 185.784C172.28 184.835 173.107 184.36 173.949 184.36C174.323 184.36 174.509 184.429 174.509 184.568V185.528C174.509 185.635 174.461 185.677 174.365 185.656C174.173 185.624 173.933 185.608 173.645 185.608C173.336 185.608 173 185.699 172.637 185.88C172.275 186.061 171.971 186.296 171.725 186.584C171.48 186.872 171.357 187.165 171.357 187.464V192.76C171.357 192.92 171.277 193 171.117 193H170.237ZM181.967 193C181.818 193 181.743 192.925 181.743 192.776V192.088C181.743 191.992 181.716 191.944 181.663 191.944C181.631 191.944 181.588 191.971 181.535 192.024C181.215 192.344 180.863 192.616 180.479 192.84C180.106 193.053 179.62 193.16 179.023 193.16C178.34 193.16 177.732 193 177.199 192.68C176.666 192.36 176.244 191.88 175.935 191.24C175.626 190.589 175.471 189.805 175.471 188.888C175.471 187.992 175.631 187.203 175.951 186.52C176.271 185.837 176.714 185.309 177.279 184.936C177.844 184.552 178.49 184.36 179.215 184.36C179.695 184.36 180.111 184.435 180.463 184.584C180.815 184.733 181.146 184.941 181.455 185.208C181.54 185.272 181.599 185.304 181.631 185.304C181.684 185.304 181.711 185.235 181.711 185.096V181.336C181.711 181.197 181.77 181.128 181.887 181.128H182.863C182.98 181.128 183.039 181.197 183.039 181.336V192.744C183.039 192.84 183.023 192.909 182.991 192.952C182.959 192.984 182.89 193 182.783 193H181.967ZM181.695 186.392C181.354 186.051 181.007 185.795 180.655 185.624C180.314 185.443 179.94 185.352 179.535 185.352C178.724 185.352 178.074 185.656 177.583 186.264C177.092 186.872 176.847 187.731 176.847 188.84C176.847 189.96 177.087 190.797 177.567 191.352C178.058 191.907 178.682 192.184 179.439 192.184C179.855 192.184 180.234 192.088 180.575 191.896C180.927 191.693 181.199 191.443 181.391 191.144C181.594 190.845 181.695 190.547 181.695 190.248V186.392ZM186.409 189.288C186.409 189.8 186.532 190.275 186.777 190.712C187.033 191.149 187.375 191.496 187.801 191.752C188.228 192.008 188.697 192.136 189.209 192.136C190.276 192.136 191.108 191.693 191.705 190.808C191.748 190.765 191.785 190.744 191.817 190.744C191.849 190.733 191.887 190.739 191.929 190.76L192.601 191.096C192.687 191.149 192.697 191.224 192.633 191.32C192.217 191.96 191.721 192.429 191.145 192.728C190.569 193.016 189.881 193.16 189.081 193.16C188.303 193.16 187.604 192.979 186.985 192.616C186.367 192.253 185.881 191.747 185.529 191.096C185.188 190.435 185.017 189.683 185.017 188.84C185.017 187.933 185.193 187.144 185.545 186.472C185.897 185.789 186.377 185.267 186.985 184.904C187.604 184.541 188.297 184.36 189.065 184.36C189.833 184.36 190.505 184.531 191.081 184.872C191.668 185.213 192.121 185.715 192.441 186.376C192.761 187.027 192.921 187.8 192.921 188.696V188.76C192.921 188.856 192.905 188.931 192.873 188.984C192.841 189.027 192.777 189.048 192.681 189.048H186.553C186.457 189.048 186.409 189.128 186.409 189.288ZM191.305 188.168C191.423 188.168 191.497 188.157 191.529 188.136C191.561 188.104 191.577 188.04 191.577 187.944C191.577 187.475 191.476 187.043 191.273 186.648C191.081 186.243 190.793 185.923 190.409 185.688C190.036 185.443 189.599 185.32 189.097 185.32C188.553 185.32 188.079 185.459 187.673 185.736C187.268 186.003 186.959 186.355 186.745 186.792C186.532 187.219 186.431 187.677 186.441 188.168H191.305ZM195.034 193C194.885 193 194.81 192.931 194.81 192.792V184.728C194.81 184.589 194.869 184.52 194.986 184.52H195.914C196.031 184.52 196.09 184.579 196.09 184.696V185.736C196.09 185.8 196.106 185.837 196.138 185.848C196.181 185.859 196.223 185.837 196.266 185.784C197.077 184.835 197.903 184.36 198.746 184.36C199.119 184.36 199.306 184.429 199.306 184.568V185.528C199.306 185.635 199.258 185.677 199.162 185.656C198.97 185.624 198.73 185.608 198.442 185.608C198.133 185.608 197.797 185.699 197.434 185.88C197.071 186.061 196.767 186.296 196.522 186.584C196.277 186.872 196.154 187.165 196.154 187.464V192.76C196.154 192.92 196.074 193 195.914 193H195.034ZM204.917 193C204.767 193 204.693 192.92 204.693 192.76V181.352C204.693 181.267 204.703 181.208 204.725 181.176C204.757 181.144 204.81 181.128 204.885 181.128H206.421C206.506 181.128 206.565 181.144 206.597 181.176C206.639 181.197 206.671 181.24 206.693 181.304L210.245 190.472C210.277 190.568 210.314 190.616 210.357 190.616C210.41 190.616 210.458 190.563 210.501 190.456L214.053 181.336C214.085 181.197 214.165 181.128 214.293 181.128H215.909C216.026 181.128 216.085 181.197 216.085 181.336V192.76C216.085 192.92 216.005 193 215.845 193H214.789C214.629 193 214.549 192.931 214.549 192.792V183.64C214.549 183.587 214.538 183.565 214.517 183.576C214.506 183.576 214.49 183.597 214.469 183.64L210.949 192.792C210.885 192.931 210.783 193 210.645 193H209.877C209.717 193 209.61 192.936 209.557 192.808L206.085 183.736C206.074 183.683 206.058 183.656 206.037 183.656C206.015 183.656 206.005 183.683 206.005 183.736V192.792C206.005 192.867 205.989 192.92 205.957 192.952C205.925 192.984 205.866 193 205.781 193H204.917ZM223.801 191.976C222.979 192.765 222.03 193.16 220.953 193.16C220.121 193.16 219.465 192.952 218.985 192.536C218.515 192.109 218.281 191.544 218.281 190.84C218.281 189.987 218.638 189.315 219.353 188.824C220.078 188.333 221.123 188.045 222.489 187.96L223.737 187.864C223.918 187.843 224.009 187.763 224.009 187.624V187.192C224.009 186.616 223.827 186.163 223.465 185.832C223.113 185.491 222.633 185.32 222.025 185.32C221.086 185.32 220.318 185.747 219.721 186.6C219.689 186.653 219.657 186.691 219.625 186.712C219.593 186.723 219.55 186.717 219.497 186.696L218.633 186.408C218.579 186.387 218.553 186.349 218.553 186.296C218.553 186.264 218.569 186.216 218.601 186.152C218.921 185.587 219.374 185.149 219.961 184.84C220.558 184.52 221.262 184.36 222.073 184.36C223.118 184.36 223.918 184.605 224.473 185.096C225.027 185.576 225.305 186.243 225.305 187.096V192.76C225.305 192.856 225.289 192.92 225.257 192.952C225.225 192.984 225.166 193 225.081 193H224.281C224.153 193 224.078 192.915 224.057 192.744L224.025 192.008C224.014 191.933 223.987 191.896 223.945 191.896C223.902 191.896 223.854 191.923 223.801 191.976ZM224.009 188.936C224.009 188.765 223.929 188.68 223.769 188.68L222.729 188.776C221.737 188.84 220.969 189.032 220.425 189.352C219.891 189.672 219.625 190.115 219.625 190.68C219.625 191.139 219.785 191.501 220.105 191.768C220.435 192.035 220.873 192.168 221.417 192.168C221.747 192.168 222.073 192.109 222.393 191.992C222.713 191.875 222.995 191.715 223.241 191.512C223.486 191.32 223.673 191.117 223.801 190.904C223.939 190.68 224.009 190.467 224.009 190.264V188.936ZM227.862 193C227.713 193 227.638 192.931 227.638 192.792V184.728C227.638 184.589 227.697 184.52 227.814 184.52H228.774C228.892 184.52 228.95 184.579 228.95 184.696V185.624C228.95 185.741 228.998 185.757 229.094 185.672C229.692 185.203 230.198 184.867 230.614 184.664C231.041 184.461 231.516 184.36 232.038 184.36C232.849 184.36 233.478 184.579 233.926 185.016C234.385 185.453 234.614 186.04 234.614 186.776V192.744C234.614 192.915 234.534 193 234.374 193H233.478C233.34 193 233.27 192.931 233.27 192.792V187.08C233.27 186.547 233.132 186.136 232.854 185.848C232.588 185.56 232.172 185.416 231.606 185.416C231.158 185.416 230.742 185.517 230.358 185.72C229.985 185.912 229.526 186.243 228.982 186.712V192.76C228.982 192.845 228.961 192.909 228.918 192.952C228.886 192.984 228.828 193 228.742 193H227.862ZM241.91 191.976C241.089 192.765 240.139 193.16 239.062 193.16C238.23 193.16 237.574 192.952 237.094 192.536C236.625 192.109 236.39 191.544 236.39 190.84C236.39 189.987 236.747 189.315 237.462 188.824C238.187 188.333 239.233 188.045 240.598 187.96L241.846 187.864C242.027 187.843 242.118 187.763 242.118 187.624V187.192C242.118 186.616 241.937 186.163 241.574 185.832C241.222 185.491 240.742 185.32 240.134 185.32C239.195 185.32 238.427 185.747 237.83 186.6C237.798 186.653 237.766 186.691 237.734 186.712C237.702 186.723 237.659 186.717 237.606 186.696L236.742 186.408C236.689 186.387 236.662 186.349 236.662 186.296C236.662 186.264 236.678 186.216 236.71 186.152C237.03 185.587 237.483 185.149 238.07 184.84C238.667 184.52 239.371 184.36 240.182 184.36C241.227 184.36 242.027 184.605 242.582 185.096C243.137 185.576 243.414 186.243 243.414 187.096V192.76C243.414 192.856 243.398 192.92 243.366 192.952C243.334 192.984 243.275 193 243.19 193H242.39C242.262 193 242.187 192.915 242.166 192.744L242.134 192.008C242.123 191.933 242.097 191.896 242.054 191.896C242.011 191.896 241.963 191.923 241.91 191.976ZM242.118 188.936C242.118 188.765 242.038 188.68 241.878 188.68L240.838 188.776C239.846 188.84 239.078 189.032 238.534 189.352C238.001 189.672 237.734 190.115 237.734 190.68C237.734 191.139 237.894 191.501 238.214 191.768C238.545 192.035 238.982 192.168 239.526 192.168C239.857 192.168 240.182 192.109 240.502 191.992C240.822 191.875 241.105 191.715 241.35 191.512C241.595 191.32 241.782 191.117 241.91 190.904C242.049 190.68 242.118 190.467 242.118 190.264V188.936ZM253.412 184.376C253.614 184.376 253.716 184.461 253.716 184.632V185.192C253.716 185.299 253.689 185.379 253.636 185.432C253.593 185.475 253.513 185.491 253.396 185.48C253.044 185.48 252.766 185.528 252.564 185.624C252.308 185.731 252.201 185.853 252.244 185.992C252.254 186.035 252.286 186.115 252.34 186.232C252.393 186.349 252.436 186.483 252.468 186.632C252.5 186.771 252.516 186.92 252.516 187.08C252.516 187.837 252.217 188.456 251.62 188.936C251.033 189.416 250.174 189.656 249.044 189.656C248.286 189.656 247.742 189.72 247.412 189.848C247.081 189.976 246.916 190.141 246.916 190.344C246.916 190.504 247.028 190.627 247.252 190.712C247.476 190.787 247.849 190.84 248.372 190.872L250.436 190.984C251.353 191.037 252.036 191.256 252.484 191.64C252.932 192.024 253.156 192.547 253.156 193.208C253.156 194.019 252.798 194.653 252.084 195.112C251.38 195.571 250.372 195.8 249.06 195.8C247.705 195.8 246.67 195.603 245.956 195.208C245.252 194.824 244.9 194.269 244.9 193.544C244.9 192.829 245.401 192.227 246.404 191.736C246.521 191.683 246.521 191.624 246.404 191.56C245.913 191.347 245.668 191.032 245.668 190.616C245.668 190.381 245.774 190.157 245.988 189.944C246.212 189.731 246.526 189.555 246.932 189.416C246.985 189.405 247.012 189.379 247.012 189.336C247.012 189.283 246.985 189.245 246.932 189.224C246.462 188.979 246.116 188.685 245.892 188.344C245.668 187.992 245.556 187.571 245.556 187.08C245.556 186.248 245.87 185.592 246.5 185.112C247.129 184.632 248.02 184.392 249.172 184.392C250.185 184.392 250.985 184.632 251.572 185.112C251.646 185.165 251.7 185.192 251.732 185.192C251.774 185.192 251.833 185.165 251.908 185.112C252.11 184.909 252.345 184.739 252.612 184.6C252.889 184.451 253.156 184.376 253.412 184.376ZM249.044 188.808C249.78 188.808 250.329 188.659 250.692 188.36C251.065 188.061 251.252 187.629 251.252 187.064C251.252 186.488 251.065 186.04 250.692 185.72C250.318 185.4 249.769 185.24 249.044 185.24C248.34 185.24 247.79 185.405 247.396 185.736C247.001 186.056 246.804 186.499 246.804 187.064C246.804 187.619 246.996 188.051 247.38 188.36C247.774 188.659 248.329 188.808 249.044 188.808ZM247.636 191.96C247.444 191.949 247.225 192.008 246.98 192.136C246.734 192.253 246.526 192.424 246.356 192.648C246.185 192.872 246.1 193.117 246.1 193.384C246.1 193.896 246.361 194.285 246.884 194.552C247.406 194.829 248.18 194.968 249.204 194.968C251.006 194.968 251.908 194.435 251.908 193.368C251.908 192.995 251.78 192.701 251.524 192.488C251.278 192.275 250.873 192.152 250.308 192.12L247.636 191.96ZM256.144 189.288C256.144 189.8 256.266 190.275 256.512 190.712C256.768 191.149 257.109 191.496 257.536 191.752C257.962 192.008 258.432 192.136 258.944 192.136C260.01 192.136 260.842 191.693 261.44 190.808C261.482 190.765 261.52 190.744 261.552 190.744C261.584 190.733 261.621 190.739 261.664 190.76L262.336 191.096C262.421 191.149 262.432 191.224 262.368 191.32C261.952 191.96 261.456 192.429 260.88 192.728C260.304 193.016 259.616 193.16 258.816 193.16C258.037 193.16 257.338 192.979 256.72 192.616C256.101 192.253 255.616 191.747 255.264 191.096C254.922 190.435 254.752 189.683 254.752 188.84C254.752 187.933 254.928 187.144 255.28 186.472C255.632 185.789 256.112 185.267 256.72 184.904C257.338 184.541 258.032 184.36 258.8 184.36C259.568 184.36 260.24 184.531 260.816 184.872C261.402 185.213 261.856 185.715 262.176 186.376C262.496 187.027 262.656 187.8 262.656 188.696V188.76C262.656 188.856 262.64 188.931 262.608 188.984C262.576 189.027 262.512 189.048 262.416 189.048H256.288C256.192 189.048 256.144 189.128 256.144 189.288ZM261.04 188.168C261.157 188.168 261.232 188.157 261.264 188.136C261.296 188.104 261.312 188.04 261.312 187.944C261.312 187.475 261.21 187.043 261.008 186.648C260.816 186.243 260.528 185.923 260.144 185.688C259.77 185.443 259.333 185.32 258.832 185.32C258.288 185.32 257.813 185.459 257.408 185.736C257.002 186.003 256.693 186.355 256.48 186.792C256.266 187.219 256.165 187.677 256.176 188.168H261.04ZM264.769 193C264.619 193 264.545 192.931 264.545 192.792V184.728C264.545 184.589 264.603 184.52 264.721 184.52H265.649C265.766 184.52 265.825 184.579 265.825 184.696V185.736C265.825 185.8 265.841 185.837 265.873 185.848C265.915 185.859 265.958 185.837 266.001 185.784C266.811 184.835 267.638 184.36 268.481 184.36C268.854 184.36 269.041 184.429 269.041 184.568V185.528C269.041 185.635 268.993 185.677 268.897 185.656C268.705 185.624 268.465 185.608 268.177 185.608C267.867 185.608 267.531 185.699 267.169 185.88C266.806 186.061 266.502 186.296 266.257 186.584C266.011 186.872 265.889 187.165 265.889 187.464V192.76C265.889 192.92 265.809 193 265.649 193H264.769Z" fill="white"/>
<circle cx="356" cy="177" r="14.5" fill="#21272D" stroke="#12B2FF"/>
<path d="M355.624 178.024C356.541 177.16 357.176 176.461 357.528 175.928C357.88 175.384 358.056 174.824 358.056 174.248C358.056 173.597 357.821 173.091 357.352 172.728C356.883 172.355 356.328 172.168 355.688 172.168C355.187 172.168 354.691 172.296 354.2 172.552C353.709 172.808 353.293 173.208 352.952 173.752C352.92 173.805 352.867 173.832 352.792 173.832C352.749 173.832 352.696 173.816 352.632 173.784L351.928 173.368C351.843 173.315 351.8 173.251 351.8 173.176C351.8 173.123 351.821 173.069 351.864 173.016C352.333 172.333 352.909 171.821 353.592 171.48C354.285 171.139 355.027 170.968 355.816 170.968C356.499 170.968 357.123 171.096 357.688 171.352C358.253 171.597 358.701 171.971 359.032 172.472C359.373 172.973 359.544 173.581 359.544 174.296C359.544 174.989 359.352 175.635 358.968 176.232C358.595 176.829 357.928 177.581 356.968 178.488L353.752 181.512C353.699 181.544 353.672 181.581 353.672 181.624C353.672 181.677 353.731 181.704 353.848 181.704H359.464C359.539 181.704 359.592 181.72 359.624 181.752C359.656 181.773 359.672 181.816 359.672 181.88V182.808C359.672 182.936 359.603 183 359.464 183H352.04C351.944 183 351.875 182.984 351.832 182.952C351.8 182.909 351.784 182.84 351.784 182.744V182.088C351.784 181.971 351.811 181.869 351.864 181.784C351.917 181.699 352.035 181.576 352.216 181.416L355.624 178.024Z" fill="#12B2FF"/>
<circle cx="236" cy="275" r="1" fill="#12B2FF"/>
<circle cx="235" cy="282" r="1" fill="#12B2FF"/>
<circle cx="233" cy="289" r="1" fill="#12B2FF"/>
<circle cx="230" cy="296" r="1" fill="#12B2FF"/>
<circle cx="226" cy="302" r="1" fill="#12B2FF"/>
<circle cx="232" cy="262" r="1" fill="#12B2FF"/>
<circle cx="235" cy="268" r="1" fill="#12B2FF"/>
<circle cx="221" cy="308" r="1" fill="#12B2FF"/>
<circle cx="187" cy="80" r="1" transform="rotate(-180 187 80)" fill="#12B2FF"/>
<circle cx="188" cy="73" r="1" transform="rotate(-180 188 73)" fill="#12B2FF"/>
<circle cx="190" cy="66" r="1" transform="rotate(-180 190 66)" fill="#12B2FF"/>
<circle cx="193" cy="59" r="1" transform="rotate(-180 193 59)" fill="#12B2FF"/>
<circle cx="197" cy="53" r="1" transform="rotate(-180 197 53)" fill="#12B2FF"/>
<circle cx="191" cy="93" r="1" transform="rotate(-180 191 93)" fill="#12B2FF"/>
<circle cx="188" cy="87" r="1" transform="rotate(-180 188 87)" fill="#12B2FF"/>
<circle cx="201" cy="48" r="1" transform="rotate(-180 201 48)" fill="#12B2FF"/>
<circle cx="310.523" cy="157.745" r="1" transform="rotate(-105 310.523 157.745)" fill="#12B2FF"/>
<circle cx="317.544" cy="156.899" r="1" transform="rotate(-105 317.544 156.899)" fill="#12B2FF"/>
<circle cx="324.822" cy="157.019" r="1" transform="rotate(-105 324.822 157.019)" fill="#12B2FF"/>
<circle cx="332.36" cy="158.105" r="1" transform="rotate(-105 332.36 158.105)" fill="#12B2FF"/>
<circle cx="339.191" cy="160.416" r="1" transform="rotate(-105 339.191 160.416)" fill="#12B2FF"/>
<circle cx="299.001" cy="164.973" r="1" transform="rotate(-105 299.001 164.973)" fill="#12B2FF"/>
<circle cx="304.02" cy="160.522" r="1" transform="rotate(-105 304.02 160.522)" fill="#12B2FF"/>
<circle cx="344.225" cy="163.225" r="1" transform="rotate(-105 344.225 163.225)" fill="#12B2FF"/>
<circle cx="116.625" cy="198.014" r="1" transform="rotate(81.8468 116.625 198.014)" fill="#12B2FF"/>
<circle cx="109.554" cy="198.017" r="1" transform="rotate(81.8468 109.554 198.017)" fill="#12B2FF"/>
<circle cx="102.341" cy="197.031" r="1" transform="rotate(81.8468 102.341 197.031)" fill="#12B2FF"/>
<circle cx="94.9864" cy="195.053" r="1" transform="rotate(81.8468 94.9864 195.053)" fill="#12B2FF"/>
<circle cx="88.4801" cy="191.945" r="1" transform="rotate(81.8468 88.4801 191.945)" fill="#12B2FF"/>
<circle cx="128.926" cy="192.211" r="1" transform="rotate(81.8468 128.926 192.211)" fill="#12B2FF"/>
<circle cx="123.412" cy="196.032" r="1" transform="rotate(81.8468 123.412 196.032)" fill="#12B2FF"/>
<circle cx="83.1319" cy="189.132" r="1" transform="rotate(81.8468 83.1319 189.132)" fill="#12B2FF"/>
<circle cx="213" cy="34" r="14.5" fill="#21272D" stroke="#12B2FF"/>
<path d="M215.592 38.784C215.709 38.784 215.768 38.8373 215.768 38.944V39.84C215.768 39.8827 215.752 39.92 215.72 39.952C215.688 39.984 215.645 40 215.592 40H209.976C209.859 40 209.8 39.9467 209.8 39.84V38.944C209.8 38.8373 209.859 38.784 209.976 38.784H211.992C212.077 38.784 212.12 38.7573 212.12 38.704V29.904C212.12 29.7867 212.072 29.744 211.976 29.776L209.992 30.512C209.981 30.512 209.971 30.5173 209.96 30.528C209.949 30.528 209.939 30.5227 209.928 30.512C209.832 30.512 209.784 30.448 209.784 30.32V29.68C209.784 29.6053 209.795 29.5573 209.816 29.536C209.837 29.504 209.88 29.472 209.944 29.44L212.312 28.256C212.493 28.1707 212.653 28.128 212.792 28.128H213.48C213.597 28.128 213.656 28.192 213.656 28.32V38.672C213.656 38.7467 213.688 38.784 213.752 38.784H215.592Z" fill="#12B2FF"/>
<circle cx="213" cy="324" r="14.5" fill="#21272D" stroke="#12B2FF"/>
<path d="M208.232 319.792C208.2 319.76 208.184 319.723 208.184 319.68C208.184 319.637 208.2 319.595 208.232 319.552C209.213 318.496 210.445 317.968 211.928 317.968C212.728 317.968 213.432 318.101 214.04 318.368C214.648 318.624 215.112 318.981 215.432 319.44C215.763 319.888 215.928 320.4 215.928 320.976C215.928 321.552 215.747 322.075 215.384 322.544C215.032 323.003 214.536 323.344 213.896 323.568C213.779 323.6 213.72 323.637 213.72 323.68C213.72 323.701 213.779 323.739 213.896 323.792C214.589 323.984 215.16 324.341 215.608 324.864C216.067 325.376 216.296 325.995 216.296 326.72C216.296 327.392 216.12 327.989 215.768 328.512C215.427 329.024 214.915 329.429 214.232 329.728C213.549 330.016 212.712 330.16 211.72 330.16C210.088 330.16 208.755 329.595 207.72 328.464C207.688 328.411 207.672 328.368 207.672 328.336C207.672 328.283 207.704 328.235 207.768 328.192L208.456 327.648C208.531 327.595 208.579 327.568 208.6 327.568C208.643 327.568 208.68 327.595 208.712 327.648C209.181 328.139 209.656 328.485 210.136 328.688C210.627 328.891 211.192 328.992 211.832 328.992C212.749 328.992 213.469 328.789 213.992 328.384C214.515 327.979 214.776 327.44 214.776 326.768C214.776 326.277 214.632 325.851 214.344 325.488C214.067 325.125 213.699 324.853 213.24 324.672C212.781 324.491 212.291 324.4 211.768 324.4L210.344 324.384C210.216 324.384 210.152 324.331 210.152 324.224V323.392C210.152 323.307 210.216 323.253 210.344 323.232L211.496 323.216C212.04 323.216 212.536 323.12 212.984 322.928C213.432 322.736 213.784 322.475 214.04 322.144C214.296 321.813 214.424 321.445 214.424 321.04C214.424 320.688 214.317 320.368 214.104 320.08C213.891 319.781 213.592 319.547 213.208 319.376C212.835 319.205 212.413 319.12 211.944 319.12C210.888 319.12 209.933 319.531 209.08 320.352C209.027 320.405 208.979 320.432 208.936 320.432C208.915 320.432 208.867 320.405 208.792 320.352L208.232 319.792Z" fill="#12B2FF"/>
<circle cx="69" cy="177" r="14.5" fill="#21272D" stroke="#12B2FF"/>
<path d="M70.176 170.288C70.24 170.224 70.2987 170.181 70.352 170.16C70.4053 170.139 70.48 170.128 70.576 170.128H71.648C71.776 170.128 71.84 170.192 71.84 170.32V177.52C71.84 177.616 71.8827 177.664 71.968 177.664H73.472C73.6213 177.664 73.696 177.717 73.696 177.824V178.608C73.696 178.747 73.6213 178.816 73.472 178.816H71.984C71.888 178.816 71.84 178.869 71.84 178.976V181.76C71.84 181.92 71.7547 182 71.584 182H70.496C70.3573 182 70.288 181.931 70.288 181.792V178.928C70.288 178.853 70.24 178.816 70.144 178.816H64.96C64.8 178.816 64.72 178.747 64.72 178.608V177.792C64.72 177.728 64.7413 177.653 64.784 177.568C64.8373 177.472 64.9013 177.371 64.976 177.264L70.176 170.288ZM70.112 177.664C70.1547 177.664 70.1867 177.653 70.208 177.632C70.24 177.611 70.256 177.584 70.256 177.552V172.208C70.256 172.08 70.2347 172.016 70.192 172.016C70.1707 172.016 70.1173 172.059 70.032 172.144L66.128 177.456C66.096 177.499 66.08 177.536 66.08 177.568C66.08 177.632 66.1333 177.664 66.24 177.664H70.112Z" fill="#12B2FF"/>
</svg>