<?xml version="1.0" standalone="no"?>
<!DOCTYPE svg PUBLIC "-//W3C//DTD SVG 20010904//EN"
 "http://www.w3.org/TR/2001/REC-SVG-20010904/DTD/svg10.dtd">
<svg version="1.0" xmlns="http://www.w3.org/2000/svg"
 width="3000.000000pt" height="3000.000000pt" viewBox="0 0 3000.000000 3000.000000"
 preserveAspectRatio="xMidYMid meet">

<g transform="translate(0.000000,3000.000000) scale(0.100000,-0.100000)"
fill="#fff" stroke="none">
<path d="M5925 24956 c-404 -66 -724 -355 -832 -751 l-28 -100 -5 -1185 c-3
-652 -7 -2202 -8 -3445 -2 -1243 -7 -4312 -12 -6820 -5 -2626 -4 -4596 1
-4645 35 -342 232 -639 532 -800 357 -193 795 -151 1146 110 42 31 180 148
306 260 127 111 322 284 435 384 113 99 473 417 800 706 823 727 1413 1247
1614 1425 94 83 443 391 776 685 333 294 695 614 805 711 110 97 396 349 635
560 239 212 860 760 1380 1219 520 459 1055 931 1189 1050 133 118 270 238
304 267 l60 52 81 -73 c45 -40 189 -168 321 -286 570 -507 1483 -1320 2185
-1945 306 -273 1118 -995 1685 -1500 155 -138 402 -358 550 -490 149 -132 457
-407 685 -610 228 -203 537 -478 685 -610 149 -132 475 -423 725 -646 250
-223 599 -533 774 -689 571 -509 566 -505 700 -575 160 -85 332 -122 520 -112
265 14 498 118 677 304 126 131 201 258 256 438 25 84 27 101 27 275 0 172 -2
191 -27 273 -52 169 -131 310 -235 420 -32 33 -199 186 -372 340 -173 155
-416 372 -540 482 -124 110 -452 403 -730 650 -278 247 -606 540 -730 650
-124 110 -409 365 -635 566 -800 713 -1344 1196 -1645 1464 -311 277 -440 392
-1235 1100 -247 220 -634 565 -860 765 -225 201 -538 479 -695 619 -157 140
-361 322 -453 404 l-168 150 23 23 c13 12 163 145 334 295 170 151 575 508
899 794 324 286 668 590 765 675 96 85 461 407 810 715 1244 1099 1290 1139
2095 1850 193 169 406 358 475 420 69 61 296 262 505 446 665 586 1925 1699
2059 1818 155 138 240 242 306 376 76 152 102 267 103 445 1 282 -85 505 -271
702 -96 100 -177 161 -289 217 -161 79 -280 106 -468 104 -116 0 -157 -5 -238
-26 -126 -33 -261 -98 -362 -174 -44 -33 -282 -239 -530 -458 -247 -219 -576
-509 -730 -645 -154 -136 -440 -388 -635 -561 -534 -471 -1120 -989 -1755
-1549 -313 -277 -601 -531 -640 -566 -38 -34 -308 -272 -600 -530 -291 -257
-716 -632 -944 -833 -2150 -1898 -2443 -2156 -2450 -2159 -5 -2 -53 37 -107
85 -178 159 -1218 1085 -2244 1998 -168 150 -435 388 -595 530 -159 142 -549
489 -865 770 -316 282 -723 644 -905 806 -181 162 -553 493 -825 735 -272 242
-601 535 -730 650 -129 115 -543 484 -920 819 -377 335 -757 674 -845 753
-246 220 -335 283 -500 353 -173 74 -397 104 -570 75z m1830 -3846 c714 -636
1369 -1219 1825 -1625 179 -159 507 -451 730 -650 360 -321 712 -634 1685
-1500 155 -138 485 -432 735 -655 250 -222 520 -463 600 -534 80 -71 146 -132
147 -135 1 -3 -148 -137 -330 -298 -316 -277 -536 -471 -1597 -1408 -255 -225
-541 -478 -634 -560 -163 -143 -904 -798 -1805 -1594 -228 -201 -496 -438
-596 -526 -100 -88 -460 -405 -799 -705 -340 -300 -622 -546 -627 -548 -9 -4
-5 4615 6 7808 3 773 5 1879 5 2459 l0 1054 23 -20 c12 -12 297 -265 632 -563z"/>
<path d="M10766 5249 c-364 -38 -662 -240 -818 -554 -99 -198 -145 -461 -118
-680 36 -296 140 -518 328 -696 198 -188 443 -279 747 -279 215 0 417 51 578
146 112 67 275 230 338 339 143 247 195 521 153 804 -76 522 -432 868 -945
921 -113 11 -148 11 -263 -1z m304 -273 c320 -57 547 -288 615 -625 14 -66 16
-117 12 -240 -6 -185 -20 -246 -89 -390 -43 -90 -61 -115 -136 -190 -48 -48
-116 -103 -152 -124 -233 -135 -597 -135 -830 0 -97 56 -226 190 -277 288 -71
136 -95 235 -100 415 -6 196 14 309 80 445 115 236 293 374 542 420 92 17 242
18 335 1z"/>
<path d="M23895 5246 c-73 -33 -76 -39 -499 -1039 -448 -1056 -434 -1015 -375
-1082 53 -61 142 -66 204 -12 17 15 60 105 130 272 l104 250 524 3 524 2 93
-222 c51 -123 101 -240 111 -260 47 -92 165 -110 234 -38 26 27 30 39 30 88
-1 52 -35 137 -402 1002 -283 667 -411 956 -434 984 -18 21 -47 45 -65 52 -42
18 -140 17 -179 0z m306 -870 l195 -471 -202 -3 c-112 -1 -297 -1 -412 0
l-210 3 197 475 c109 261 201 484 205 495 10 25 -11 73 227 -499z"/>
<path d="M5101 5237 c-19 -7 -44 -25 -55 -40 -20 -27 -21 -43 -26 -370 -3
-188 -5 -634 -5 -992 0 -725 -3 -695 69 -729 44 -21 73 -20 113 2 18 9 247
206 509 437 263 231 488 428 501 438 l23 18 212 -188 c117 -104 339 -301 493
-437 154 -137 294 -257 310 -267 59 -37 140 -16 171 43 20 38 14 100 -13 130
-10 12 -157 145 -328 297 -611 542 -656 583 -653 591 2 4 224 201 495 439 494
434 513 453 513 515 0 35 -38 86 -76 102 -56 23 -102 5 -197 -80 -45 -40 -273
-240 -506 -444 l-423 -372 -77 68 c-42 37 -218 194 -391 347 -173 154 -362
322 -420 373 -93 84 -165 132 -195 131 -5 0 -25 -5 -44 -12z m380 -572 c112
-99 284 -252 383 -340 l179 -159 -30 -26 c-17 -14 -190 -166 -386 -337 -195
-172 -358 -313 -361 -313 -3 0 -6 306 -6 681 0 405 4 679 9 677 5 -1 101 -84
212 -183z"/>
<path d="M20321 5237 c-19 -7 -44 -25 -55 -40 -20 -27 -21 -44 -26 -355 -3
-180 -7 -621 -8 -980 -2 -620 -1 -656 17 -696 30 -68 104 -94 168 -58 18 9
247 206 509 437 263 231 488 428 501 438 l23 18 212 -188 c117 -104 339 -301
493 -437 154 -137 294 -257 310 -267 59 -37 140 -16 171 43 20 38 14 100 -13
130 -16 19 -162 149 -811 726 -95 85 -172 157 -170 162 2 4 64 61 138 126 74
65 230 201 345 303 116 101 276 243 357 314 119 104 150 137 159 167 20 68
-13 131 -80 151 -32 9 -44 8 -79 -7 -23 -11 -256 -209 -537 -457 l-497 -437
-77 68 c-42 37 -218 194 -391 347 -173 154 -362 321 -420 373 -93 84 -165 132
-195 131 -5 0 -25 -5 -44 -12z m292 -494 c67 -59 165 -146 217 -193 53 -47
172 -152 264 -235 l169 -149 -30 -26 c-17 -14 -190 -166 -386 -337 -195 -172
-358 -313 -361 -313 -3 0 -6 306 -6 680 0 374 3 680 6 680 3 0 60 -48 127
-107z"/>
<path d="M12574 5221 c-51 -23 -99 -81 -113 -137 -15 -57 -15 -1873 -1 -1925
13 -47 53 -86 101 -100 51 -16 119 9 151 54 l23 32 5 888 5 888 334 -828 c184
-455 349 -860 367 -899 37 -79 77 -114 153 -134 81 -21 180 18 225 88 13 20
180 426 372 901 l349 864 5 -881 c5 -870 5 -881 26 -908 54 -73 138 -91 204
-44 63 45 60 -3 60 1040 0 1056 4 989 -68 1063 -45 46 -82 57 -192 57 -100 0
-149 -19 -196 -72 -23 -26 -120 -258 -384 -917 l-353 -883 -354 884 c-379 943
-372 929 -458 969 -56 26 -204 26 -261 0z"/>
<path d="M16200 5229 c-35 -14 -78 -57 -100 -99 -10 -19 -195 -451 -411 -960
-358 -844 -393 -930 -393 -982 -1 -47 3 -61 24 -83 74 -81 190 -65 239 33 10
21 60 137 111 260 l93 222 524 -2 524 -3 104 -248 c56 -136 109 -255 116 -264
17 -20 87 -52 113 -53 34 0 101 38 119 69 37 63 39 56 -389 1068 -425 1004
-426 1007 -501 1039 -37 16 -136 17 -173 3z m295 -856 l202 -488 -203 -3
c-111 -1 -297 -1 -411 0 l-209 3 205 493 c112 270 206 490 208 488 3 -2 96
-224 208 -493z"/>
<path d="M19510 5233 c-24 -9 -61 -46 -76 -75 -12 -23 -14 -186 -14 -1013 0
-711 3 -992 11 -1008 50 -96 168 -112 238 -32 l31 36 0 1000 c0 1096 4 1028
-57 1073 -26 19 -105 31 -133 19z"/>
<path d="M7856 5220 c-47 -14 -84 -57 -95 -112 -13 -60 -14 -1871 -2 -1938 7
-31 19 -54 44 -77 50 -45 95 -51 154 -22 84 42 83 37 83 467 l0 372 338 0
c187 0 366 -5 402 -11 99 -16 173 -53 232 -118 98 -107 138 -248 138 -489 0
-135 10 -175 54 -209 69 -55 180 -29 216 49 50 109 6 477 -79 661 -49 108
-139 197 -229 226 -23 8 -42 17 -41 20 0 3 31 21 69 39 132 63 238 187 286
337 53 164 27 372 -63 505 -121 180 -318 275 -619 300 -145 12 -848 12 -888 0z
m983 -284 c152 -32 250 -98 300 -205 23 -49 26 -69 26 -156 0 -89 -3 -106 -28
-156 -33 -68 -95 -127 -174 -168 -122 -61 -143 -64 -550 -68 l-373 -5 0 393 0
392 363 -6 c267 -4 381 -10 436 -21z"/>
<path d="M17376 5220 c-52 -16 -96 -75 -96 -131 0 -36 32 -90 64 -110 29 -18
56 -19 364 -19 l332 0 0 -895 c0 -983 -3 -940 60 -985 66 -47 150 -29 204 44
21 27 21 36 24 931 l2 904 341 3 341 3 34 37 c28 31 34 45 34 83 0 58 -21 100
-63 122 -30 17 -88 18 -822 20 -434 1 -803 -2 -819 -7z"/>
</g>
</svg>
